$MeshFormat
2.2 0 8
$EndMeshFormat
$Nodes
906
1 -1.5 -0.4330127018922194 0
2 -3 -1.299038105676658 0
3 -2.5 -2.165063509461096 0
4 -0.5 -2.165063509461096 0
5 0 -1.299038105676658 0
6 1.5 -2.165063509461096 0
7 3 -1.299038105676658 0
8 2.5 -0.4330127018922194 0
9 1.5 -0.4330127018922194 0
10 1.5 1.299038105676658 0
11 0 2.165063509461096 0
12 -0.5 1.299038105676658 0
13 -1.5 1.299038105676658 0
14 -0.1 0.05 0
15 -1.57894736842044 -0.4785929863015731 0
16 -1.657894736840878 -0.5241732707109253 0
17 -1.736842105261301 -0.569753555120269 0
18 -1.815789473681727 -0.615333839529615 0
19 -1.894736842102171 -0.6609141239389705 0
20 -1.973684210522614 -0.7064944083483261 0
21 -2.052631578943626 -0.7520746927580099 0
22 -2.131578947364908 -0.7976549771678497 0
23 -2.210526315786185 -0.8432352615776864 0
24 -2.289473684207509 -0.8888155459875501 0
25 -2.368421052628916 -0.9343958303974623 0
26 -2.447368421050318 -0.9799761148073713 0
27 -2.526315789471754 -1.0255563992173 0
28 -2.605263157893194 -1.07113668362723 0
29 -2.684210526314551 -1.116716968037114 0
30 -2.763157894735909 -1.162297252446997 0
31 -2.842105263157276 -1.207877536856886 0
32 -2.921052631578642 -1.253457821266775 0
33 -2.954545454545521 -1.377767687838764 0
34 -2.909090909091061 -1.456497270000838 0
35 -2.86363636363662 -1.535226852162879 0
36 -2.818181818182178 -1.61395643432492 0
37 -2.772727272727703 -1.692686016487021 0
38 -2.727272727273187 -1.771415598649192 0
39 -2.681818181818546 -1.850145180811579 0
40 -2.636363636363905 -1.928874762973966 0
41 -2.590909090909218 -2.007604345136432 0
42 -2.545454545454641 -2.086333927298708 0
43 -2.409090909091414 -2.165063509461096 0
44 -2.318181818182827 -2.165063509461096 0
45 -2.227272727274241 -2.165063509461096 0
46 -2.136363636365655 -2.165063509461096 0
47 -2.045454545457069 -2.165063509461096 0
48 -1.954545454548482 -2.165063509461096 0
49 -1.863636363639896 -2.165063509461096 0
50 -1.77272727273131 -2.165063509461096 0
51 -1.681818181822724 -2.165063509461096 0
52 -1.590909090914137 -2.165063509461096 0
53 -1.500000000005508 -2.165063509461096 0
54 -1.409090909095956 -2.165063509461096 0
55 -1.31818181818636 -2.165063509461096 0
56 -1.227272727276765 -2.165063509461096 0
57 -1.136363636367169 -2.165063509461096 0
58 -1.045454545457573 -2.165063509461096 0
59 -0.9545454545479779 -2.165063509461096 0
60 -0.8636363636383821 -2.165063509461096 0
61 -0.7727272727287866 -2.165063509461096 0
62 -0.6818181818191908 -2.165063509461096 0
63 -0.5909090909095955 -2.165063509461096 0
64 -0.4545454545454687 -2.086333927298899 0
65 -0.4090909090909888 -2.007604345136791 0
66 -0.3636363636366655 -1.928874762974954 0
67 -0.3181818181823098 -1.850145180813061 0
68 -0.2727272727279201 -1.771415598651109 0
69 -0.2272727272734263 -1.692686016488977 0
70 -0.1818181818187449 -1.61395643432652 0
71 -0.1363636363640635 -1.535226852164063 0
72 -0.09090909090938187 -1.456497270001605 0
73 -0.04545454545466965 -1.377767687839095 0
74 0.07894736842076056 -1.344618390086197 0
75 0.1578947368415643 -1.39019867449576 0
76 0.2368421052622722 -1.435778958905269 0
77 0.3157894736830464 -1.481359243314815 0
78 0.3947368421038101 -1.526939527724355 0
79 0.4736842105245995 -1.572519812133911 0
80 0.5526315789453731 -1.618100096543457 0
81 0.6315789473661904 -1.663680380953028 0
82 0.7105263157869668 -1.709260665362576 0
83 0.7894736842079998 -1.754840949772272 0
84 0.8684210526293643 -1.800421234182159 0
85 0.9473684210506698 -1.846001518592012 0
86 1.026315789472048 -1.891581803001908 0
87 1.105263157893351 -1.93716208741176 0
88 1.184210526314692 -1.982742371821633 0
89 1.263157894736052 -2.028322656231518 0
90 1.342105263157355 -2.07390294064137 0
91 1.421052631578649 -2.119483225051217 0
92 1.578947368420384 -2.119483225051774 0
93 1.657894736840861 -2.073902940642399 0
94 1.736842105261349 -2.028322656233019 0
95 1.815789473681724 -1.982742371823702 0
96 1.894736842102109 -1.937162087414381 0
97 1.97368421052252 -1.891581803005044 0
98 2.052631578943521 -1.846001518595366 0
99 2.131578947364836 -1.800421234185507 0
100 2.210526315786111 -1.754840949775672 0
101 2.289473684207423 -1.709260665365815 0
102 2.368421052628847 -1.663680380955893 0
103 2.447368421050213 -1.618100096546005 0
104 2.526315789471651 -1.572519812136076 0
105 2.605263157893014 -1.526939527726189 0
106 2.684210526314415 -1.481359243316281 0
107 2.763157894735816 -1.435778958906372 0
108 2.842105263157226 -1.390198674496459 0
109 2.921052631578618 -1.344618390086556 0
110 2.954545454545432 -1.220308523514398 0
111 2.909090909090964 -1.141578941352309 0
112 2.863636363636541 -1.0628493591903 0
113 2.818181818182129 -0.9841197770283094 0
114 2.772727272727708 -0.9053901948663033 0
115 2.727272727273196 -0.8266606127041407 0
116 2.681818181818557 -0.7479310305417564 0
117 2.636363636363918 -0.6692014483793719 0
118 2.590909090909278 -0.5904718662169877 0
119 2.545454545454639 -0.5117422840546035 0
120 2.409090909090909 -0.4330127018922194 0
121 2.318181818181818 -0.4330127018922194 0
122 2.227272727272727 -0.4330127018922194 0
123 2.136363636363636 -0.4330127018922194 0
124 2.045454545454545 -0.4330127018922194 0
125 1.954545454545455 -0.4330127018922194 0
126 1.863636363636364 -0.4330127018922194 0
127 1.772727272727273 -0.4330127018922194 0
128 1.681818181818182 -0.4330127018922194 0
129 1.590909090909091 -0.4330127018922194 0
130 1.5 -0.34185213307297 0
131 1.5 -0.2506915642537207 0
132 1.5 -0.1595309954345169 0
133 1.5 -0.06837042661536227 0
134 1.5 0.02279014220379623 0
135 1.5 0.1139507110229513 0
136 1.5 0.2051112798421062 0
137 1.5 0.2962718486612612 0
138 1.5 0.3874324174804161 0
139 1.5 0.4785929862998482 0
140 1.5 0.5697535551195456 0
141 1.5 0.6609141239392254 0
142 1.5 0.7520746927589178 0
143 1.5 0.8432352615785413 0
144 1.5 0.9343958303981339 0
145 1.5 1.025556399217783 0
146 1.5 1.116716968037471 0
147 1.5 1.207877536857151 0
148 1.421052631579414 1.344618390086096 0
149 1.342105263158828 1.390198674495534 0
150 1.26315789473828 1.43577895890495 0
151 1.184210526317713 1.481359243314377 0
152 1.105263157897177 1.526939527723785 0
153 1.026315789476616 1.572519812133209 0
154 0.9473684210557676 1.618100096542798 0
155 0.8684210526347402 1.663680380952491 0
156 0.7894736842137537 1.70926066536216 0
157 0.7105263157925105 1.754840949771977 0
158 0.6315789473709359 1.800421234181986 0
159 0.5526315789494202 1.84600151859196 0
160 0.473684210527899 1.891581803001938 0
161 0.3947368421066045 1.937162087411785 0
162 0.3157894736852723 1.982742371821654 0
163 0.2368421052639212 2.028322656231533 0
164 0.1578947368426265 2.073902940641381 0
165 0.07894736842134198 2.119483225051221 0
166 -0.04545454545446256 2.086333927299018 0
167 -0.09090909090894668 2.007604345136902 0
168 -0.1363636363633157 1.928874762974987 0
169 -0.1818181818177171 1.850145180813014 0
170 -0.2272727272721527 1.771415598650983 0
171 -0.2727272727266606 1.692686016488826 0
172 -0.3181818181813247 1.613956434326399 0
173 -0.3636363636359887 1.535226852163972 0
174 -0.4090909090906529 1.456497270001545 0
175 -0.4545454545453477 1.377767687839065 0
176 -0.5909090909099741 1.299038105676658 0
177 -0.6818181818193173 1.299038105676658 0
178 -0.772727272728282 1.299038105676658 0
179 -0.8636363636372468 1.299038105676658 0
180 -0.9545454545462115 1.299038105676658 0
181 -1.045454545455176 1.299038105676658 0
182 -1.136363636364141 1.299038105676658 0
183 -1.227272727273106 1.299038105676658 0
184 -1.318181818182071 1.299038105676658 0
185 -1.409090909091035 1.299038105676658 0
186 -1.5 1.207877536857574 0
187 -1.5 1.116716968038296 0
188 -1.5 1.025556399219103 0
189 -1.5 0.9343958303999765 0
190 -1.5 0.843235261580775 0
191 -1.5 0.7520746927615815 0
192 -1.5 0.6609141239423948 0
193 -1.5 0.5697535551232709 0
194 -1.5 0.4785929863041622 0
195 -1.5 0.3874324174847416 0
196 -1.5 0.2962718486650647 0
197 -1.5 0.2051112798454054 0
198 -1.5 0.1139507110257494 0
199 -1.5 0.02279014220609436 0
200 -1.5 -0.06837042661356109 0
201 -1.5 -0.1595309954332163 0
202 -1.5 -0.2506915642528851 0
203 -1.5 -0.3418521330725426 0
204 0.9548162680002736 1.522083450135149 0
205 -1.499922911604863 -0.5334138676543809 0
206 0.1592040790593122 -1.296964561126696 0
207 -0.4087914299687275 1.298716650284978 0
208 1.420392184191677 0.6149854505635778 0
209 -1.003623716712252 -2.091793424593363 0
210 -0.2746833508886884 -1.612550017971738 0
211 1.419057489586928 -0.3879191968513846 0
212 -0.09249603555445764 -1.298309268331296 0
213 -1.812815184481561 -0.7069578801657128 0
214 1.415517082996759 0.2491726874329238 0
215 1.895772218438459 -1.847794843015108 0
216 -1.363636363641158 -2.086333927298456 0
217 -1.41447066125294 -0.4879209013768343 0
218 -1.416685279353502 -0.6024260708764945 0
219 -1.424792908066616 0.5242246359895657 0
220 1.022586946473015 -1.796718111383466 0
221 0.4726488284507047 -1.483152577672032 0
222 1.54334910116789 -0.5087500042141466 0
223 -0.6399288328010138 1.220158964202424 0
224 -1.727184159554047 -2.077336817752477 0
225 0.6331607414766159 1.706894262002097 0
226 -1.422008361136616 -0.1147080057220892 0
227 2.207062190200946 -1.662827658678574 0
228 -1.312643395670744 -0.5377294751244668 0
229 -2.130968857300811 -0.8892604353295838 0
230 -0.05031698855698791 -1.20868783291596 0
231 1.911482931312166 -0.515757369487176 0
232 -1.31275730490241 -0.6858338058872089 0
233 -2.091667554047542 -2.084818724716006 0
234 -2.446685848762902 -1.072175463600259 0
235 2.633446242024066 -0.8277611786560169 0
236 -0.2314295092371713 1.620461529714626 0
237 -0.1552525177491712 -1.214803750391823 0
238 -0.1017561984914424 -1.109457705080414 0
239 1.418321360883348 0.9815099466428949 0
240 -2.633032939704359 -1.768226152751466 0
241 -0.9998747147120063 1.222402817517606 0
242 1.422458933799277 -0.1220686037522714 0
243 0.7883695943109057 -1.667473839519772 0
244 2.446694942537226 -1.526143116983793 0
245 -1.40883760231512 0.2489762095372874 0
246 1.26125896556414 -1.929810261886143 0
247 -0.4057414631192058 -1.850788706104872 0
248 -1.173468488038958 -0.6006946602250256 0
249 2.181818181818181 -0.510801300563525 0
250 -1.169818386507429 -0.7831163567759593 0
251 0.387100104281225 1.854542697137389 0
252 -1.423151738419345 0.7969578136265159 0
253 1.186797262487791 1.389887435221763 0
254 -0.2292938074197747 -1.114300801594897 0
255 -0.1597519657999352 -0.9889092827219133 0
256 2.688085378623787 -1.380744327121849 0
257 -2.684511024186449 -1.206617019062084 0
258 1.658813326971835 -1.983188520591057 0
259 -0.7331843650599932 -2.081825916008145 0
260 -0.08490564830536645 1.833282106780843 0
261 -0.0126420875235267 -1.005960682418491 0
262 -0.06245707618424113 -0.8450531417834336 0
263 0.1376548843527731 -0.8980524639770595 0
264 -0.2608453364567955 -0.8550819787548739 0
265 -1.341949834818863 -0.8637762623877832 0
266 -1.183030631075887 -0.9857379116784164 0
267 -1.383013046731873 -1.068350844923859 0
268 -1.208462229650705 -1.202388930218547 0
269 -1.421786111982909 -1.293584182752078 0
270 2.776571750929155 -1.064847942929102 0
271 -2.773792858013897 -1.535842068114695 0
272 -2.498443546848235 -2.004838540595784 0
273 2.362748352411871 -0.5118937880799672 0
274 1.343035728977909 1.299648056587088 0
275 2.052348892619238 -1.75435132269951 0
276 0.788471391990294 1.613756206931468 0
277 0.2520001573911388 1.934118356951026 0
278 -2.287166815601888 -0.9834596595835938 0
279 -1.418598139479666 0.06511798481616515 0
280 1.414131600396909 0.7989064320754425 0
281 -1.417254206562001 0.9858117743345922 0
282 1.42051924349769 0.4299051929223682 0
283 0.6327347611492908 -1.569418520350994 0
284 1.419943799621315 0.06033618408732153 0
285 0.3142053103193431 -1.391026549136092 0
286 -1.974418249421733 -0.7963965424449031 0
287 -1.185163191767326 -2.086755711235327 0
288 -0.3190262914632628 1.458587853817061 0
289 2.542119695281078 -0.6677515596063641 0
290 1.727188316099291 -0.518653982426212 0
291 -0.818774577805363 1.222201791815815 0
292 -1.182834163656449 1.224859532148697 0
293 -1.541918361199036 -2.087013896113453 0
294 -1.912957236582626 -2.083798821858422 0
295 -2.270783247735344 -2.083241483435899 0
296 -0.4546424439097533 1.212773793142901 0
297 -0.3494476469684535 1.215505787419984 0
298 -0.4072829090872536 1.119695735064397 0
299 -0.2806862994957701 1.112907790853242 0
300 -0.3807134885319632 0.9884296447497561 0
301 -0.1792210945023687 0.9800627409637801 0
302 -0.277657907911502 0.8034823754417474 0
303 -0.05297035008198912 0.8062256165936922 0
304 0.02490327799332043 1.04205500634826 0
305 0.1831331144243881 0.8330689277891056 0
306 -0.4906190179574088 0.8174893169019068 0
307 0.2752981538148823 1.056166494544682 0
308 0.4250014278830575 0.8641458883583485 0
309 0.3270155914316372 0.6390548061291403 0
310 0.567753678441172 0.6652702788167072 0
311 0.4701667257299003 0.4569777150048682 0
312 0.04430347312975888 -0.6588927095480483 0
313 0.2762769920560786 -0.6942364511451494 0
314 0.7086838700471025 0.4762013217668909 0
315 0.6010879674703964 0.2736558060797649 0
316 0.6865503875869391 0.9067242791462011 0
317 -0.3971526545545068 0.6186290177220266 0
318 -0.6304358547000781 0.6429472675700919 0
319 -0.5368112961501668 0.4269514379075992 0
320 -0.1804241297296493 -1.455789108009756 0
321 -0.7739451506253916 0.4581630294958606 0
322 -0.6829127278795319 0.2086188750569525 0
323 -1.000041712959513 -1.103555111745393 0
324 -1.012921246125971 -1.331223117709975 0
325 -1.218852734124962 -0.4170472429045817 0
326 -1.01707536971498 -0.4977893817182524 0
327 0.3693786331375553 -0.9022721786124499 0
328 0.5137482458278909 -0.7196769118575218 0
329 0.5979175677094919 -0.9320557141091538 0
330 0.7543152921046771 -0.7473782215863169 0
331 0.8375628788538274 -0.9659314378730053 0
332 0.1801612332434014 -0.4779617345871784 0
333 0.9838644891472922 -0.7982714803333117 0
334 1.069010900059493 -1.01594216114392 0
335 0.9210925117740669 -0.5356786035111847 0
336 -0.8619222364340776 0.6831718522863914 0
337 0.8456370972484893 0.2914855247449196 0
338 0.1384193265551907 1.243297253095176 0
339 -0.04342467635332983 -0.4471279740474768 0
340 1.420574994090446 -2.021731471439335 0
341 -0.5005113636362944 -2.007309109203701 0
342 -1.04932134752502 -0.2990832874646884 0
343 -0.8464925572143236 -0.3829803883553265 0
344 -1.589082273306269 -1.150814972060562 0
345 -1.640925327818241 -1.380175445846287 0
346 -1.465643727636554 -1.524177499739438 0
347 0.3743911843868351 0.2646595370272241 0
348 0.3697726630681512 1.267502085663492 0
349 -0.8005552760430419 -1.214129352042042 0
350 -0.7835131478157289 -1.458642510841776 0
351 -0.9434033137929881 0.3084062584630849 0
352 -1.683075925477447 -1.602877779878489 0
353 -1.872895182885774 -1.421419682763986 0
354 0.4721466432205854 0.06991517023251359 0
355 0.9491418380188894 0.4966965292849311 0
356 0.9204945354581363 -1.196536290245872 0
357 1.177607730310763 -1.258900989789769 0
358 1.292544691797522 -1.057945697025839 0
359 1.420437716450135 -1.255035995080939 0
360 1.545458776578189 -1.041687528167509 0
361 1.644161474021471 -1.286953482960409 0
362 1.790791079560298 -1.107645946448009 0
363 1.528290338757228 -1.474623251454049 0
364 1.448522801721259 -0.50089435860412 0
365 1.498253965285943 -0.5952407037838272 0
366 1.346804667554068 -0.4832140148575278 0
367 1.307315472839228 -0.37516890362781 0
368 1.850421647142072 -1.324246300412649 0
369 2.028294377573862 -1.179548219806935 0
370 -0.225685518933033 1.245133867028013 0
371 -0.2783596859747226 -1.256502764146328 0
372 -1.661299490596947 -0.6093314926546103 0
373 -0.3836968605008514 -1.11674996986906 0
374 -0.8046261412564986 -1.005645965080874 0
375 0.2479019552855911 1.474945329651761 0
376 0.2818705335308777 -0.002875469953660906 0
377 1.941062891037696 -0.9270543158684738 0
378 2.179199584782482 -0.9440461748304939 0
379 -1.892688606748977 -1.69190821649369 0
380 -2.107488049962349 -1.575901079139577 0
381 -0.2807273685611085 0.404581020815687 0
382 -2.112474800939276 -1.286920231602844 0
383 -2.298695888828248 -1.416884298249204 0
384 2.274200519180117 -1.172112460056729 0
385 -1.041365043533004 -1.573025397688304 0
386 -0.8221825560765491 -1.731961242466622 0
387 0.07683970020088232 2.025171014047632 0
388 2.846618462326293 -1.299824832238276 0
389 -2.844372854609217 -1.294361358827357 0
390 -1.410194378892804 1.158223001943904 0
391 -2.339470902017542 -1.610119159944893 0
392 -1.420389740398905 -0.295882688096566 0
393 -0.6294309047126272 -1.627964869452689 0
394 0.9990093540872286 -1.401521341556646 0
395 1.421618500334562 1.163440763730215 0
396 0.1653432185088358 0.2307990837827572 0
397 -1.504420415271792 -1.757799931354985 0
398 1.100317257225574 0.3104622161349588 0
399 0.9790901726166005 0.1092014001579944 0
400 -0.4537731894985382 -1.2978079282923 0
401 1.383658560942921 -0.5972235716183816 0
402 1.448914759663566 -0.7129122633427502 0
403 1.57905568167867 -0.6732336390478755 0
404 1.25831515659438 -0.5722514364124642 0
405 0.4467886768070546 -1.090941926728136 0
406 -0.8766928548870625 -0.1659089535824448 0
407 -0.6592192481439156 -0.2493239457307671 0
408 -1.088257382555117 -0.1049200130158529 0
409 -0.6327543872402341 -0.4696134912107987 0
410 -2.495735989731177 -1.490540764589332 0
411 -1.049873940804074 -1.806084309825434 0
412 0.4054076822954878 -0.1369656780996686 0
413 0.6262459824344037 -0.1245887862505705 0
414 2.414756892015264 -0.9907064688046396 0
415 2.487439718560993 -1.210338722151813 0
416 2.3350656092358 -0.8128990770708935 0
417 -0.007000174872569292 1.43422168295807 0
418 0.07966727264204122 1.631888305368632 0
419 0.04690431761258716 -1.196282483336233 0
420 -1.507771378408773 -0.6283025393105418 0
421 1.184570886950956 0.5114285466356461 0
422 1.071157874606174 0.6788932635419959 0
423 0.4645253951795095 1.444926634238049 0
424 0.5829769249399654 1.300008079114508 0
425 0.7751645665299227 -1.372973299827049 0
426 -0.4522438384066579 -0.3289797760079481 0
427 -0.4564483710103978 -0.0985690288471118 0
428 -1.721882292503282 -1.841785903072531 0
429 -0.5142363736294524 1.12629759243355 0
430 -0.628423386624544 -1.809318869201893 0
431 0.2523663178864969 -1.092221824492183 0
432 -2.469464555627848 -1.297117892554498 0
433 -2.311803682610736 -1.214861721709285 0
434 -2.07673500580452 -1.074140180127232 0
435 0.1025410476815896 -0.005159037999460407 0
436 -0.8779515352628195 -1.897020937516576 0
437 -2.622895089772423 -1.373707198691353 0
438 0.2853167495428008 1.67529365773074 0
439 0.5268317385294751 -0.3209356198987471 0
440 1.196199317242601 0.1338182385372723 0
441 1.111469394329014 -0.04156828141458056 0
442 0.08610011479285931 -0.2539121577765333 0
443 -0.1124751540216491 -0.2496341867957277 0
444 -1.23794528651423 -0.2374505674659595 0
445 -1.295894131014948 -1.674482910627211 0
446 -1.237829095767774 -1.893258613129884 0
447 2.575984239343813 -1.062645970745088 0
448 2.651321212814977 -1.193891640403895 0
449 1.236333054579477 0.7391817792177001 0
450 1.131608870269807 0.8618143030295897 0
451 0.6657116795259466 -1.166133607997493 0
452 0.5990030982367486 -1.34846758353555 0
453 -1.918352168716269 -1.170911683558045 0
454 -1.926127624726516 -0.9736323429115284 0
455 0.4596828032122675 1.675609740689582 0
456 1.365766206323213 -0.2873868047509624 0
457 1.252679965448114 -0.2646162340461729 0
458 1.178248372693668 -0.3719528556751938 0
459 -1.900915712786726 -1.894608218519914 0
460 -2.061113679295488 -1.811112184761415 0
461 -2.313162865622624 -1.863950220228593 0
462 2.361267081499046 -1.359722536713066 0
463 2.177002634760852 -1.350967761450133 0
464 2.005413591812185 -1.576791907439772 0
465 2.255638676162157 -1.496829411855363 0
466 -1.4163061212429 -1.914714376688497 0
467 0.1582551540419813 1.780597268722118 0
468 2.512955586246725 -1.370428154555047 0
469 0.2425534385249639 0.4255309151560628 0
470 0.04660245207667224 0.3699775925326856 0
471 -0.02094052437084974 0.2153802823543815 0
472 0.651821512070445 1.486886490777852 0
473 0.7833271996584812 1.357813262161069 0
474 0.718900557029446 1.157251278509815 0
475 0.8996931188540411 1.199280344225057 0
476 2.073260179636851 -0.7311049194763128 0
477 1.868367743266917 -0.7246811712779828 0
478 1.735345754362076 -0.8863829822857678 0
479 -0.4258105286500132 -0.5485382536255629 0
480 -0.5972142598012441 -0.7141891878240447 0
481 -1.253769724888201 -0.07693990756239596 0
482 -1.194097005234914 0.08018685115820694 0
483 0.355268331929206 -1.220078620770226 0
484 1.258157245403967 0.3730950562851557 0
485 0.9292795633291508 0.8638585335186292 0
486 -0.6808756855721936 -0.0294188040541195 0
487 -0.1674804749971024 0.6157542536420182 0
488 0.07180145901590318 0.5917167564597013 0
489 -0.3313398380806737 -1.39254906749629 0
490 2.234997361434282 -0.6762445718851449 0
491 -2.496864980865601 -1.653494409223722 0
492 -2.615481629659378 -1.596002508485247 0
493 -0.4360739264973955 0.231762295017825 0
494 -0.2354170357996007 0.2103441615381158 0
495 -0.1138954014207824 0.3189853483326505 0
496 -0.3580777461850012 0.07483022240333456 0
497 0.9387346340591584 1.34937233700684 0
498 1.063754659485881 1.253623777518827 0
499 1.046937234659376 1.047831834829148 0
500 1.227674272565263 1.14822114054253 0
501 0.885416828887569 -0.1216852824839699 0
502 1.297497314604991 -0.7138570590832121 0
503 0.8779700128813941 -1.522764405826595 0
504 1.05024318111469 -1.599196949199724 0
505 1.186312897576128 -1.477550028399341 0
506 1.216838818004819 -1.685209348046899 0
507 1.260296733662974 -0.003043207999473003 0
508 -0.8155458564009612 -0.5936694807348211 0
509 1.557880102893394 -0.8246456376357447 0
510 2.467208829105061 -0.8591174846462221 0
511 -0.5154713255779793 -1.728529948788478 0
512 -0.4627940945513008 -1.582032083424973 0
513 -0.4083830769328869 -1.695658348563479 0
514 -0.5627483411519774 -1.450878235146552 0
515 -0.9925568563337315 -0.8961378797058996 0
516 -0.07688531139899027 1.574188355410678 0
517 -0.1529444159447857 1.459830113270723 0
518 -1.551145331904369 -0.9173667213719696 0
519 -0.7203195690329137 0.8738130905324153 0
520 -0.9593476664498179 0.8797130951637435 0
521 -1.078936506369094 0.7225649064956361 0
522 -1.182991252793836 0.9066365673863706 0
523 -1.04854694235594 1.046535443753936 0
524 -0.8633694917130466 1.045556710527712 0
525 -0.6925522086389151 1.051588291771806 0
526 -1.195631226303989 1.067595905306188 0
527 -1.247974906335546 0.7436710862265263 0
528 -1.211342409576275 0.5826463020997393 0
529 -1.008548671427173 0.5218297244605995 0
530 -1.183890035004431 0.3857998840951689 0
531 -1.336835344652415 0.662144787596603 0
532 -0.02025818454675163 -0.110843815944529 0
533 -0.15908149133412 -0.1087937442905095 0
534 -0.2848928271458626 -0.2055948014897576 0
535 -1.243590066753815 -1.435597403723778 0
536 0.02691915357514497 1.782052842295268 0
537 0.08510379435193503 1.89666841834615 0
538 -0.07683661767967004 1.701919000811791 0
539 0.2798260719700782 1.829291364018207 0
540 -0.9855796873162013 -1.946601265179863 0
541 1.740439792770949 -1.473519388173636 0
542 1.520979390417069 -1.682101529295148 0
543 1.852506789506279 -1.63508733118372 0
544 1.500157518639353 -2.072647063054228 0
545 1.501039108766704 -1.97591152596774 0
546 1.419194006540208 -1.913293741567883 0
547 -2.454740784897223 -2.086058135848967 0
548 -2.410804739807118 -2.01341603972222 0
549 -2.426348749892898 -1.912666933504392 0
550 -0.5876866267955833 -1.110211875840617 0
551 1.296730633599042 0.8522878037642718 0
552 1.963651483592912 -0.6128457581682272 0
553 -1.418449249433497 -0.3876931332934072 0
554 -1.330702855370072 -0.3363187394282142 0
555 0.5516284453897257 1.747931468483265 0
556 -2.525572725147103 -1.116660660592768 0
557 -1.411868116806128 0.3457365954028804 0
558 -1.309594292619636 0.301369619109749 0
559 -1.311757938814437 0.1865551638575557 0
560 -1.328306722887835 0.4048834710160621 0
561 -1.212905000959485 0.2362661212455505 0
562 2.525273754972821 -1.477808887677355 0
563 2.362457683155729 -1.566939926080722 0
564 2.371985372599122 -1.47752390237482 0
565 2.280479737565519 -1.612855076644772 0
566 0.4696069225574071 1.796821868031899 0
567 0.3763065303127557 1.766311865521563 0
568 0.9441210199422185 -1.753409241823518 0
569 1.102081242421026 -1.840706544677463 0
570 -2.368190858022282 -1.027318444457209 0
571 2.768088269384741 -1.338373411651962 0
572 2.604390558995382 -1.425141516273423 0
573 -2.763676820339417 -1.253311587367534 0
574 -2.760814309625033 -1.358934763993096 0
575 -2.605320692903107 -1.161257318269627 0
576 2.131249146653091 -1.708689433776789 0
577 2.123132796657545 -1.61230058963686 0
578 1.181960242331393 -1.884857182348856 0
579 1.265206247141976 -1.823948251972624 0
580 -2.20851846478818 -0.9354450664289076 0
581 1.339901426568156 -1.975150303023106 0
582 0.1660476082278611 1.97356653719748 0
583 2.283510820622167e-05 1.957943121971053 0
584 1.420585535531375 1.071450870138621 0
585 1.338780218219229 1.025556399217759 0
586 -1.421505680379497 -0.2042797966038792 0
587 1.419467595069707 0.7066486303290036 0
588 -1.412043896048862 0.1531776314038105 0
589 -1.420907742794997 -0.02485631049986056 0
590 0.8678297991714403 -1.709007394746064 0
591 1.411265975003782 0.8917486363410628 0
592 1.418738987906562 0.5212564637013444 0
593 1.329483458107271 0.4645462621072192 0
594 -2.053083355088114 -0.8429156782579545 0
595 0.7102905546085863 1.662559253432652 0
596 1.033188081494524 1.481087432752681 0
597 0.8705244529674508 1.563954051432729 0
598 0.7812922281470464 1.508948728692959 0
599 -1.421052631579123 0.4330127018944519 0
600 -1.415529700482017 0.8901805480176753 0
601 -1.327751785340168 0.9424122860139059 0
602 -1.323459043373434 1.067164537418209 0
603 0.7135224988729807 -1.61887338446105 0
604 0.734118519579585 -1.518854867190896 0
605 0.634459396853877 -1.465020374517755 0
606 1.422654920457554 -0.02926689583648327 0
607 -1.421052631579179 1.0711366836287 0
608 -1.321703220578426 1.16822430396778 0
609 1.414676899041381 0.1536073192909802 0
610 1.322196246993171 0.1983897924715622 0
611 1.42073265011162 0.3408941106359967 0
612 0.2360453303388722 -1.346420051295388 0
613 0.5526315789453794 -1.526939527724354 0
614 0.3950835908998762 -1.432923230845093 0
615 0.3908086490349065 -1.331743063818748 0
616 1.970737714197087 -1.799213401348318 0
617 1.420754653501858 1.25370589165396 0
618 1.263951536927578 1.343869040563025 0
619 1.109879395448329 1.436618373597923 0
620 1.738112583135345 -1.936499427402399 0
621 1.656232214371322 -1.888702229619017 0
622 1.742663364118267 -1.842047752600448 0
623 1.530372572985853 -1.852715992702548 0
624 1.380026500633321 -1.777001081530469 0
625 -1.89316276774725 -0.7530857837912079 0
626 -1.807289657918861 -0.8024560784778582 0
627 -1.721901022051605 -0.7518693344481264 0
628 1.580049715162692 -2.02814444909175 0
629 -1.581553899909723 -0.5703304276351567 0
630 -1.734642610393697 -0.6563696093090456 0
631 1.81832360975765 -1.893982417271022 0
632 -0.2204222691920758 0.07571577988523731 0
633 -0.5480963038046331 1.21738888797784 0
634 -0.1847584803279294 1.697210627863486 0
635 -0.8271612453156068 -2.084158127725316 0
636 -0.9170484287402317 -2.090602834015779 0
637 -1.27485376839853 -2.086065652200933 0
638 -1.093427980793283 -2.087429057056178 0
639 -1.145952470127714 -2.003173868028032 0
640 -0.6397582840182061 -2.082441751442273 0
641 -0.6903998505972632 -1.99605011801729 0
642 2.681382545774268 -0.9064671644532816 0
643 2.56828112409492 -0.9217376218262125 0
644 -2.67727136762155 -1.688866885264356 0
645 -0.1365468284599222 -1.377085863891979 0
646 -0.3606664708363692 1.379402063603511 0
647 -0.2530220921813653 1.380909408454585 0
648 -0.2272025269742072 -1.535277759714029 0
649 -0.3354312425367058 -1.521006517267851 0
650 -2.543542436532205 -1.922966237016549 0
651 -2.500194508904291 -1.842981917950855 0
652 -0.2762836640525848 1.542716577995657 0
653 2.586062398619336 -0.7470050907982517 0
654 2.500097749327592 -0.5885069471907396 0
655 2.459839067568335 -0.657480650840219 0
656 2.272727272727272 -0.5100539981154881 0
657 1.820703235847241 -0.5179711189663876 0
658 1.778480222559158 -0.6130155113423079 0
659 2.454236521861561 -0.5116805350749226 0
660 2.091760770586165 -0.5108606343967665 0
661 1.636352696824996 -0.5118907315636479 0
662 -1.454545454550716 -2.086619538784865 0
663 2.003705622948222 -0.5166332485630616 0
664 -0.5468588967465049 -2.084681531984718 0
665 -0.7292216635340947 1.221903980838469 0
666 -0.9092839861599258 1.222097918190556 0
667 -1.090276374656486 1.223855158649038 0
668 -2.727272727273261 -1.61395643432494 0
669 -2.8158421768138 -1.453744542473538 0
670 2.821630696273008 -1.143316401723181 0
671 2.730494979364997 -0.9866710750934944 0
672 -0.454781693346174 -1.925984785171576 0
673 -2.001803851353128 -2.084000282009745 0
674 -2.047893902858451 -2.004787700307721 0
675 -2.137722449465624 -2.003930669995468 0
676 -2.360587273281605 -2.081710085131694 0
677 -2.180839080134307 -2.085981954251683 0
678 -1.633183974242848 -2.084274222159645 0
679 -1.578820503509211 -2.016279130382236 0
680 -1.823159434045149 -2.080118184312298 0
681 -1.786156122359192 -1.981370103413809 0
682 -1.328850989277468 0.01173416025516739 0
683 0.6299164249022947 1.615220523157175 0
684 -0.7742216539965366 1.138557081149507 0
685 -0.452990580986915 -0.9211184013809987 0
686 1.102619992023584 -1.739146477379011 0
687 -2.289348814645216 -1.083864108395875 0
688 -0.2747704545671167 -0.04535290148676794 0
689 -0.9547857202755111 1.136853323457241 0
690 1.091568720292349 -0.2354545412894232 0
691 0.921870651303306 -0.3215254979434058 0
692 -0.5533641469091375 -1.91710411159642 0
693 -2.719951824130704 -1.456298117012075 0
694 -2.441217881791579 -1.169914345883109 0
695 2.144314708721164 -0.6001070741978902 0
696 -1.753859454125019 -1.016004028849058 0
697 0.7355010203303605 0.0826960220351136 0
698 1.338865927733592 1.207632902394666 0
699 -1.33697311606212 -0.1587524094602068 0
700 -0.5954615748615358 -2.001817308316841 0
701 2.408027574884358 -0.5919147873397866 0
702 -0.127223491202563 0.1475310692506048 0
703 -0.2543376400222578 -0.4022392049731077 0
704 1.340360722042056 -0.1836293724731675 0
705 -1.321757741497725 -1.99943871811066 0
706 0.5095142226337604 1.085668723336775 0
707 -0.2043000852420918 -0.6401278506042654 0
708 -2.603600635424109 -1.256337394651934 0
709 1.969619700111339 -1.698737062756044 0
710 0.8070256148073085 0.6829047859994867 0
711 -2.049144118466826 -0.9420014413860509 0
712 2.868711033782698 -1.217378661339439 0
713 2.770745165063561 -1.232191335513697 0
714 2.74102899179829 -1.141052114809123 0
715 -2.867766796385487 -1.379668183557648 0
716 -0.9346702834679017 0.07162378146197138 0
717 -0.05275526435831589 1.246711702341188 0
718 1.130834431730377 -0.6684686075944521 0
719 0.09635876644698933 -1.087733717700404 0
720 1.183894366807937 1.28994607108561 0
721 0.9455047192122664 -1.658844181221541 0
722 1.349504890876804 1.123260415204758 0
723 1.228172527409348 0.9800542856655592 0
724 1.271484366602456 1.257863442234584 0
725 -0.2299415948277602 -1.373332449275768 0
726 0.672184889972246 -0.5335535587036315 0
727 2.313141335229503 -0.5916693656642331 0
728 2.44451767096699 -1.442199003171186 0
729 1.33547865963042 0.3007369186380685 0
730 1.243392419596312 0.2610311070233932 0
731 1.327896012516454 0.09195527742061346 0
732 1.880345865805779 -1.756793714442486 0
733 -1.896032462036506 -0.8452956693715017 0
734 -1.979758991879462 -0.8800792705502904 0
735 2.05635282557068 -1.670174063261795 0
736 2.128315173290414 -1.503727341048755 0
737 1.342038072203758 0.5697535551194216 0
738 1.34210523458897 0.6609141239392539 0
739 1.339811300744797 0.7517138070955185 0
740 1.339296436545703 0.9403515445440118 0
741 1.115690534053426 1.35175200423409 0
742 -2.687099575869486 -1.2897815927532 0
743 -2.528766088453239 -1.20007518364663 0
744 1.173741308384559 -1.794773560884971 0
745 -1.32502047257033 0.8382703221502528 0
746 0.4823183915983801 -1.383278975512805 0
747 -2.371449417166543 -1.113626816809147 0
748 -2.132961942310653 -0.9743101871590544 0
749 -2.199117577083177 -1.031153926721721 0
750 0.8548540966414597 -1.624681220567835 0
751 0.7933233760386799 -1.588425871815087 0
752 0.8828110485685732 1.457107332913073 0
753 0.7108303677524794 1.574128470608482 0
754 -1.34953619170002 -0.2465156251046365 0
755 1.013015171753155 -1.709462992201452 0
756 -1.044902207232443 1.153534293681069 0
757 -1.1322289805187 1.144258097193543 0
758 -1.958306184105125 -2.000467510900453 0
759 -1.876298937975764 -2.008072567800979 0
760 -1.494051143971799 -2.004783466431787 0
761 -1.233111253511814 -2.013738512540967 0
762 -0.7903135870818701 -1.994731136208489 0
763 2.47235080103812 -0.7493020671725517 0
764 -0.4991675893581595 -1.834807290911071 0
765 1.673048286818525 -0.6030211289006092 0
766 1.711819879824695 -0.7191781497632133 0
767 1.586011946355205 -0.5784272415020212 0
768 1.869753873498279 -0.5945875167194424 0
769 -0.8640870859900768 1.153053365028166 0
770 -0.6878594620540557 1.152429836509752 0
771 -0.5526998689042386 1.001382276162446 0
772 -1.667498413300231 -1.986296530346171 0
773 0.4124164139453618 -0.5085666675820959 0
774 -0.1792933858361939 -1.30156178719366 0
775 -0.3195226317775898 1.303933555358214 0
776 1.429075077438572 -0.2166307585341668 0
777 2.685048848271857 -1.070824289366017 0
778 -0.003280138905435722 -1.124083140189428 0
779 0.1512647198796058 -1.19179335770549 0
780 -1.422638415919213 0.7058861614922496 0
781 -1.420539865408013 0.6138632531543415 0
782 -2.313903344115532 -1.981806503530141 0
783 -0.5224973844089638 0.06524805238526098 0
784 0.3052953840430792 -0.3050357293003477 0
785 -1.339023779170443 -0.4333418984255009 0
786 -1.704413631955396 -0.8580829741432645 0
787 -1.580543605777188 -0.7568967922383683 0
788 1.131438710593815 -0.5014328588775261 0
789 1.19084525598501 -0.8561053847227621 0
790 2.610847600526682 -1.312310444847794 0
791 1.583530412564906 -1.94365088071927 0
792 -0.1553309049235918 1.341594464153786 0
793 0.4899831378553737 -1.256773963060493 0
794 -1.352723452051071 0.7497636316305226 0
795 -1.339376500619032 0.5582099419773714 0
796 -0.3579331372441098 -1.774038473304587 0
797 -2.588420874259366 -1.845886983547065 0
798 -1.363197290555918 1.232319909843133 0
799 -0.4372235205719164 -1.777117324603187 0
800 -0.3156073343921006 -1.694430036382004 0
801 -1.557763427632807 -1.916733005296329 0
802 -0.3612690492599148 -1.617802224877648 0
803 -1.283941246653931 0.4827632211007025 0
804 -2.587840909091415 -1.690914600888268 0
805 -2.4070869124612 -1.771261771656615 0
806 -0.09239225287773582 -0.03163105292578727 0
807 0.3258905298868637 1.907571375468012 0
808 -0.003645133891019266 1.86946328616393 0
809 -0.169700022535243 -0.009705836581800704 0
810 -0.01292156597256447 0.02118813218790288 0
811 0.06263661685618416 0.1106780737614962 0
812 -0.0396897929379586 0.1089555115108771 0
813 0.09852842514587212 -0.1269043279800635 0
814 2.199825139038017 -1.577592416932266 0
815 -0.151108550309196 1.770764862389254 0
816 1.360155965508012 -1.584370788762895 0
817 0.5631096787717084 1.661840187402066 0
818 1.771677950562816 -1.743168439807782 0
819 0.8483776489846789 1.027970465483647 0
820 -1.044010324327666 -2.012724319558158 0
821 -2.628989131285476 -1.489142754594759 0
822 -0.4296098602784237 -1.450127783080354 0
823 -1.363612440824354 -1.810063957950144 0
824 -1.076453014353507 0.2044022562079724 0
825 1.377050742317236 -0.873201874345795 0
826 -0.004529254011324407 2.031204523675339 0
827 -0.8860620346179159 -2.007661541401377 0
828 -0.8020288343396038 -0.8035212903721096 0
829 1.232639874426993 -0.1342039410502031 0
830 0.2436910307781495 -1.242304555466921 0
831 2.649057640304869 -0.9883770819179531 0
832 1.034126986037193 1.388684363746329 0
833 -1.088318531275476 -1.926239591325202 0
834 1.339463710787449 -0.07691200907840146 0
835 -0.1426889798592335 1.125374221506897 0
836 -0.9957954318634583 -0.695250642582647 0
837 -1.410059364980859 -2.018378005462853 0
838 -0.2615811008425611 -1.457314453011094 0
839 -1.451808789194184 -0.7424336986787275 0
840 1.33311742928956 -1.883840727996045 0
841 -1.659208386981979 -0.6849715533802981 0
842 1.821756601736594 -1.816757433427369 0
843 -1.359494001961307 0.4806187943956307 0
844 -1.333069593771069 0.09935435829818114 0
845 0.5463856910251352 -1.446597154121471 0
846 -1.597655206090457 -0.6503905382513397 0
847 1.352874251350194 0.3818355081177617 0
848 -0.08355175561785291 0.4618807380034843 0
849 -2.221156318164062 -2.013563482518623 0
850 -2.194480214305075 -1.904097280169567 0
851 -2.693066866291604 -1.538122291105031 0
852 -0.06314546608753137 1.919370223258255 0
853 -1.352663627583084 -0.07245809572181124 0
854 1.244424476055032 -0.4608040138901043 0
855 2.008878201311731 -1.40788195897814 0
856 -0.7418579704841424 -1.892066588511252 0
857 2.909714932133673 -1.274896751265021 0
858 -2.90971493213378 -1.323179460088241 0
859 0.3080037304800955 -1.306314568097475 0
860 1.889963372729975 -1.489925756921453 0
861 -0.187449585211725 1.550182882049603 0
862 -2.232268798352149 -1.753114520730153 0
863 -1.256053221886929 0.9930197898231627 0
864 -0.2969456160025255 -0.999381337359843 0
865 0.08739954681135154 -1.26635874582946 0
866 -2.199974419348609 -1.135704358635663 0
867 2.697817525282749 -1.29150223190784 0
868 -1.274470989800738 1.23072779278389 0
869 0.9687354036319443 1.439666983310815 0
870 2.370570291565066 -0.6799184199954713 0
871 -0.9672648383428535 -2.029876676949708 0
872 -0.1491762047427261 1.626016759125434 0
873 -1.815412879240844 -0.8994448289473355 0
874 -1.436496515707951 1.239299331999585 0
875 -0.6153886670669332 -1.28131536138625 0
876 2.545589715242358 -0.820942187029166 0
877 -0.6058955083053847 1.128207641509636 0
878 2.228713206653415 -0.577320693323831 0
879 0.3893346009389149 1.574103520216623 0
880 0.7321718609069493 -0.3205572926829174 0
881 1.649870104487332 -1.773169358355746 0
882 0.2200554267445532 -0.1382735241771039 0
883 1.252042292198137 0.6196810253590685 0
884 -1.238031675843974 1.150892554327442 0
885 2.055338553097063 -0.5943103269604517 0
886 0.1814878465005907 0.09290464272457605 0
887 0.2950478852295449 0.131080592762682 0
888 1.677294061083612 -1.630278216378346 0
889 1.354051035409149 0.008613869718715457 0
890 -2.090297627284305 -1.930334878009212 0
891 2.205643248417003 -0.7910607776250588 0
892 -0.1246711000403079 0.2229317605137918 0
893 -0.2379784058940919 1.4778839567805 0
894 1.445864602466884 -0.2964772105403621 0
895 -0.6419013858953246 -1.923271399128739 0
896 1.042059768433873 -0.3942413103679156 0
897 -0.6448834748904071 -0.9063238936839499 0
898 0.526966420011109 1.575752460844901 0
899 -0.4640145493846674 1.059264509687335 0
900 0.1876051553166628 1.883215836967164 0
901 1.334560929720453 -1.410096210697399 0
902 0.02081000285773935 2.087021917646931 0
903 -2.009969424571722 -1.927535351716933 0
904 -0.3886266945250647 -0.7359018586787902 0
905 -1.755261400537862 -1.241243342828969 0
906 -2.535573520881039 -1.762127639336332 0
$EndNodes
$Elements
1810
1 1 2 1 1 1 15
2 1 2 1 1 15 16
3 1 2 1 1 16 17
4 1 2 1 1 17 18
5 1 2 1 1 18 19
6 1 2 1 1 19 20
7 1 2 1 1 20 21
8 1 2 1 1 21 22
9 1 2 1 1 22 23
10 1 2 1 1 23 24
11 1 2 1 1 24 25
12 1 2 1 1 25 26
13 1 2 1 1 26 27
14 1 2 1 1 27 28
15 1 2 1 1 28 29
16 1 2 1 1 29 30
17 1 2 1 1 30 31
18 1 2 1 1 31 32
19 1 2 1 1 32 2
20 1 2 1 2 2 33
21 1 2 1 2 33 34
22 1 2 1 2 34 35
23 1 2 1 2 35 36
24 1 2 1 2 36 37
25 1 2 1 2 37 38
26 1 2 1 2 38 39
27 1 2 1 2 39 40
28 1 2 1 2 40 41
29 1 2 1 2 41 42
30 1 2 1 2 42 3
31 1 2 1 3 3 43
32 1 2 1 3 43 44
33 1 2 1 3 44 45
34 1 2 1 3 45 46
35 1 2 1 3 46 47
36 1 2 1 3 47 48
37 1 2 1 3 48 49
38 1 2 1 3 49 50
39 1 2 1 3 50 51
40 1 2 1 3 51 52
41 1 2 1 3 52 53
42 1 2 1 3 53 54
43 1 2 1 3 54 55
44 1 2 1 3 55 56
45 1 2 1 3 56 57
46 1 2 1 3 57 58
47 1 2 1 3 58 59
48 1 2 1 3 59 60
49 1 2 1 3 60 61
50 1 2 1 3 61 62
51 1 2 1 3 62 63
52 1 2 1 3 63 4
53 1 2 1 4 4 64
54 1 2 1 4 64 65
55 1 2 1 4 65 66
56 1 2 1 4 66 67
57 1 2 1 4 67 68
58 1 2 1 4 68 69
59 1 2 1 4 69 70
60 1 2 1 4 70 71
61 1 2 1 4 71 72
62 1 2 1 4 72 73
63 1 2 1 4 73 5
64 1 2 1 5 5 74
65 1 2 1 5 74 75
66 1 2 1 5 75 76
67 1 2 1 5 76 77
68 1 2 1 5 77 78
69 1 2 1 5 78 79
70 1 2 1 5 79 80
71 1 2 1 5 80 81
72 1 2 1 5 81 82
73 1 2 1 5 82 83
74 1 2 1 5 83 84
75 1 2 1 5 84 85
76 1 2 1 5 85 86
77 1 2 1 5 86 87
78 1 2 1 5 87 88
79 1 2 1 5 88 89
80 1 2 1 5 89 90
81 1 2 1 5 90 91
82 1 2 1 5 91 6
83 1 2 1 6 6 92
84 1 2 1 6 92 93
85 1 2 1 6 93 94
86 1 2 1 6 94 95
87 1 2 1 6 95 96
88 1 2 1 6 96 97
89 1 2 1 6 97 98
90 1 2 1 6 98 99
91 1 2 1 6 99 100
92 1 2 1 6 100 101
93 1 2 1 6 101 102
94 1 2 1 6 102 103
95 1 2 1 6 103 104
96 1 2 1 6 104 105
97 1 2 1 6 105 106
98 1 2 1 6 106 107
99 1 2 1 6 107 108
100 1 2 1 6 108 109
101 1 2 1 6 109 7
102 1 2 1 7 7 110
103 1 2 1 7 110 111
104 1 2 1 7 111 112
105 1 2 1 7 112 113
106 1 2 1 7 113 114
107 1 2 1 7 114 115
108 1 2 1 7 115 116
109 1 2 1 7 116 117
110 1 2 1 7 117 118
111 1 2 1 7 118 119
112 1 2 1 7 119 8
113 1 2 1 8 8 120
114 1 2 1 8 120 121
115 1 2 1 8 121 122
116 1 2 1 8 122 123
117 1 2 1 8 123 124
118 1 2 1 8 124 125
119 1 2 1 8 125 126
120 1 2 1 8 126 127
121 1 2 1 8 127 128
122 1 2 1 8 128 129
123 1 2 1 8 129 9
124 1 2 1 9 9 130
125 1 2 1 9 130 131
126 1 2 1 9 131 132
127 1 2 1 9 132 133
128 1 2 1 9 133 134
129 1 2 1 9 134 135
130 1 2 1 9 135 136
131 1 2 1 9 136 137
132 1 2 1 9 137 138
133 1 2 1 9 138 139
134 1 2 1 9 139 140
135 1 2 1 9 140 141
136 1 2 1 9 141 142
137 1 2 1 9 142 143
138 1 2 1 9 143 144
139 1 2 1 9 144 145
140 1 2 1 9 145 146
141 1 2 1 9 146 147
142 1 2 1 9 147 10
143 1 2 1 10 10 148
144 1 2 1 10 148 149
145 1 2 1 10 149 150
146 1 2 1 10 150 151
147 1 2 1 10 151 152
148 1 2 1 10 152 153
149 1 2 1 10 153 154
150 1 2 1 10 154 155
151 1 2 1 10 155 156
152 1 2 1 10 156 157
153 1 2 1 10 157 158
154 1 2 1 10 158 159
155 1 2 1 10 159 160
156 1 2 1 10 160 161
157 1 2 1 10 161 162
158 1 2 1 10 162 163
159 1 2 1 10 163 164
160 1 2 1 10 164 165
161 1 2 1 10 165 11
162 1 2 1 11 11 166
163 1 2 1 11 166 167
164 1 2 1 11 167 168
165 1 2 1 11 168 169
166 1 2 1 11 169 170
167 1 2 1 11 170 171
168 1 2 1 11 171 172
169 1 2 1 11 172 173
170 1 2 1 11 173 174
171 1 2 1 11 174 175
172 1 2 1 11 175 12
173 1 2 1 12 12 176
174 1 2 1 12 176 177
175 1 2 1 12 177 178
176 1 2 1 12 178 179
177 1 2 1 12 179 180
178 1 2 1 12 180 181
179 1 2 1 12 181 182
180 1 2 1 12 182 183
181 1 2 1 12 183 184
182 1 2 1 12 184 185
183 1 2 1 12 185 13
184 1 2 1 13 13 186
185 1 2 1 13 186 187
186 1 2 1 13 187 188
187 1 2 1 13 188 189
188 1 2 1 13 189 190
189 1 2 1 13 190 191
190 1 2 1 13 191 192
191 1 2 1 13 192 193
192 1 2 1 13 193 194
193 1 2 1 13 194 195
194 1 2 1 13 195 196
195 1 2 1 13 196 197
196 1 2 1 13 197 198
197 1 2 1 13 198 199
198 1 2 1 13 199 200
199 1 2 1 13 200 201
200 1 2 1 13 201 202
201 1 2 1 13 202 203
202 1 2 1 13 203 1
203 2 2 1 1 503 604 751
204 2 2 1 1 546 624 840
205 2 2 1 1 549 548 782
206 2 2 1 1 411 445 446
207 2 2 1 1 579 506 744
208 2 2 1 1 530 528 803
209 2 2 1 1 686 504 755
210 2 2 1 1 443 442 532
211 2 2 1 1 551 280 591
212 2 2 1 1 482 559 844
213 2 2 1 1 386 411 436
214 2 2 1 1 532 435 810
215 2 2 1 1 9 211 364
216 2 2 1 1 506 579 624
217 2 2 1 1 681 459 759
218 2 2 1 1 351 530 824
219 2 2 1 1 390 602 608
220 2 2 1 1 431 263 719
221 2 2 1 1 428 772 801
222 2 2 1 1 351 529 530
223 2 2 1 1 624 579 840
224 2 2 1 1 414 447 643
225 2 2 1 1 536 260 538
226 2 2 1 1 533 532 806
227 2 2 1 1 522 601 745
228 2 2 1 1 494 496 632
229 2 2 1 1 411 385 445
230 2 2 1 1 771 429 877
231 2 2 1 1 602 390 607
232 2 2 1 1 381 493 494
233 2 2 1 1 432 433 694
234 2 2 1 1 524 519 525
235 2 2 1 1 434 711 748
236 2 2 1 1 538 260 815
237 2 2 1 1 231 552 663
238 2 2 1 1 428 459 681
239 2 2 1 1 477 476 552
240 2 2 1 1 434 454 711
241 2 2 1 1 425 452 605
242 2 2 1 1 263 261 719
243 2 2 1 1 464 709 735
244 2 2 1 1 471 495 892
245 2 2 1 1 418 536 538
246 2 2 1 1 604 425 605
247 2 2 1 1 516 418 538
248 2 2 1 1 396 470 471
249 2 2 1 1 682 482 844
250 2 2 1 1 410 432 437
251 2 2 1 1 339 442 443
252 2 2 1 1 471 702 812
253 2 2 1 1 425 451 452
254 2 2 1 1 494 493 496
255 2 2 1 1 721 503 750
256 2 2 1 1 377 476 477
257 2 2 1 1 433 382 866
258 2 2 1 1 506 504 686
259 2 2 1 1 464 543 709
260 2 2 1 1 632 14 702
261 2 2 1 1 703 479 707
262 2 2 1 1 431 779 830
263 2 2 1 1 435 813 882
264 2 2 1 1 639 446 761
265 2 2 1 1 410 383 432
266 2 2 1 1 486 322 716
267 2 2 1 1 763 655 870
268 2 2 1 1 325 444 554
269 2 2 1 1 363 542 888
270 2 2 1 1 496 427 688
271 2 2 1 1 624 542 816
272 2 2 1 1 381 494 495
273 2 2 1 1 414 415 447
274 2 2 1 1 364 211 366
275 2 2 1 1 443 532 533
276 2 2 1 1 472 473 598
277 2 2 1 1 405 431 483
278 2 2 1 1 510 414 643
279 2 2 1 1 403 509 766
280 2 2 1 1 427 426 534
281 2 2 1 1 483 615 793
282 2 2 1 1 528 527 531
283 2 2 1 1 425 356 451
284 2 2 1 1 328 726 773
285 2 2 1 1 563 465 565
286 2 2 1 1 393 386 430
287 2 2 1 1 405 327 431
288 2 2 1 1 520 519 524
289 2 2 1 1 529 528 530
290 2 2 1 1 387 537 582
291 2 2 1 1 469 309 488
292 2 2 1 1 537 387 583
293 2 2 1 1 546 623 624
294 2 2 1 1 415 462 468
295 2 2 1 1 454 453 696
296 2 2 1 1 444 408 481
297 2 2 1 1 455 555 566
298 2 2 1 1 428 379 459
299 2 2 1 1 427 534 688
300 2 2 1 1 421 398 484
301 2 2 1 1 355 398 421
302 2 2 1 1 558 530 560
303 2 2 1 1 598 473 752
304 2 2 1 1 512 511 513
305 2 2 1 1 432 383 433
306 2 2 1 1 14 632 809
307 2 2 1 1 500 585 722
308 2 2 1 1 397 352 428
309 2 2 1 1 552 231 768
310 2 2 1 1 414 384 415
311 2 2 1 1 417 375 418
312 2 2 1 1 539 438 567
313 2 2 1 1 702 14 812
314 2 2 1 1 503 425 604
315 2 2 1 1 470 469 488
316 2 2 1 1 378 414 416
317 2 2 1 1 539 277 900
318 2 2 1 1 416 414 510
319 2 2 1 1 524 525 684
320 2 2 1 1 462 463 465
321 2 2 1 1 394 356 425
322 2 2 1 1 411 446 833
323 2 2 1 1 527 522 745
324 2 2 1 1 525 771 877
325 2 2 1 1 773 439 784
326 2 2 1 1 377 378 476
327 2 2 1 1 787 518 839
328 2 2 1 1 386 436 856
329 2 2 1 1 418 438 467
330 2 2 1 1 417 418 516
331 2 2 1 1 504 503 721
332 2 2 1 1 393 430 511
333 2 2 1 1 428 681 772
334 2 2 1 1 439 412 784
335 2 2 1 1 394 425 503
336 2 2 1 1 726 439 773
337 2 2 1 1 498 500 720
338 2 2 1 1 397 428 801
339 2 2 1 1 447 415 448
340 2 2 1 1 342 408 444
341 2 2 1 1 251 539 567
342 2 2 1 1 483 431 830
343 2 2 1 1 391 383 410
344 2 2 1 1 446 639 833
345 2 2 1 1 383 382 433
346 2 2 1 1 627 786 787
347 2 2 1 1 434 453 454
348 2 2 1 1 280 551 739
349 2 2 1 1 322 351 716
350 2 2 1 1 481 482 682
351 2 2 1 1 541 363 888
352 2 2 1 1 806 532 810
353 2 2 1 1 352 379 428
354 2 2 1 1 448 714 777
355 2 2 1 1 260 536 808
356 2 2 1 1 521 520 522
357 2 2 1 1 360 478 509
358 2 2 1 1 559 482 561
359 2 2 1 1 218 420 839
360 2 2 1 1 449 422 883
361 2 2 1 1 327 263 431
362 2 2 1 1 360 362 478
363 2 2 1 1 461 549 782
364 2 2 1 1 462 465 564
365 2 2 1 1 476 695 885
366 2 2 1 1 376 354 887
367 2 2 1 1 339 332 442
368 2 2 1 1 418 375 438
369 2 2 1 1 386 385 411
370 2 2 1 1 523 524 689
371 2 2 1 1 430 386 856
372 2 2 1 1 643 447 831
373 2 2 1 1 375 348 423
374 2 2 1 1 482 408 716
375 2 2 1 1 473 497 752
376 2 2 1 1 382 434 866
377 2 2 1 1 669 574 715
378 2 2 1 1 440 441 507
379 2 2 1 1 396 471 811
380 2 2 1 1 447 448 777
381 2 2 1 1 398 440 730
382 2 2 1 1 398 399 440
383 2 2 1 1 485 450 499
384 2 2 1 1 381 319 493
385 2 2 1 1 694 433 747
386 2 2 1 1 676 295 782
387 2 2 1 1 437 432 708
388 2 2 1 1 378 384 414
389 2 2 1 1 446 466 705
390 2 2 1 1 615 483 859
391 2 2 1 1 501 413 880
392 2 2 1 1 416 510 763
393 2 2 1 1 497 498 832
394 2 2 1 1 338 375 417
395 2 2 1 1 421 593 737
396 2 2 1 1 467 438 539
397 2 2 1 1 391 410 491
398 2 2 1 1 723 551 740
399 2 2 1 1 752 497 869
400 2 2 1 1 459 460 903
401 2 2 1 1 267 265 518
402 2 2 1 1 335 718 788
403 2 2 1 1 421 484 593
404 2 2 1 1 468 462 728
405 2 2 1 1 382 353 453
406 2 2 1 1 350 514 875
407 2 2 1 1 651 805 906
408 2 2 1 1 522 520 523
409 2 2 1 1 518 265 839
410 2 2 1 1 691 501 880
411 2 2 1 1 452 451 793
412 2 2 1 1 309 305 488
413 2 2 1 1 422 421 883
414 2 2 1 1 476 378 891
415 2 2 1 1 445 385 535
416 2 2 1 1 347 396 887
417 2 2 1 1 451 405 793
418 2 2 1 1 350 386 393
419 2 2 1 1 438 455 567
420 2 2 1 1 726 335 880
421 2 2 1 1 473 475 497
422 2 2 1 1 423 424 472
423 2 2 1 1 658 477 768
424 2 2 1 1 453 353 905
425 2 2 1 1 329 327 405
426 2 2 1 1 530 561 824
427 2 2 1 1 426 479 703
428 2 2 1 1 281 602 607
429 2 2 1 1 415 384 462
430 2 2 1 1 381 495 848
431 2 2 1 1 491 410 492
432 2 2 1 1 390 608 798
433 2 2 1 1 336 519 520
434 2 2 1 1 379 380 460
435 2 2 1 1 344 267 518
436 2 2 1 1 454 733 734
437 2 2 1 1 311 309 469
438 2 2 1 1 335 691 880
439 2 2 1 1 482 716 824
440 2 2 1 1 376 435 882
441 2 2 1 1 521 528 529
442 2 2 1 1 423 348 424
443 2 2 1 1 407 426 427
444 2 2 1 1 325 342 444
445 2 2 1 1 601 522 863
446 2 2 1 1 396 469 470
447 2 2 1 1 319 322 493
448 2 2 1 1 281 601 602
449 2 2 1 1 346 352 397
450 2 2 1 1 551 591 740
451 2 2 1 1 355 337 398
452 2 2 1 1 416 763 870
453 2 2 1 1 702 471 892
454 2 2 1 1 317 319 381
455 2 2 1 1 521 522 527
456 2 2 1 1 471 470 495
457 2 2 1 1 357 356 394
458 2 2 1 1 360 509 825
459 2 2 1 1 440 399 441
460 2 2 1 1 339 703 707
461 2 2 1 1 316 474 706
462 2 2 1 1 380 383 391
463 2 2 1 1 349 350 875
464 2 2 1 1 542 363 816
465 2 2 1 1 375 423 879
466 2 2 1 1 429 771 899
467 2 2 1 1 480 409 508
468 2 2 1 1 572 256 790
469 2 2 1 1 364 366 401
470 2 2 1 1 585 723 740
471 2 2 1 1 552 476 885
472 2 2 1 1 336 520 521
473 2 2 1 1 335 333 718
474 2 2 1 1 571 388 713
475 2 2 1 1 435 376 886
476 2 2 1 1 495 494 892
477 2 2 1 1 498 741 832
478 2 2 1 1 531 527 794
479 2 2 1 1 450 449 551
480 2 2 1 1 303 487 488
481 2 2 1 1 491 492 804
482 2 2 1 1 318 306 519
483 2 2 1 1 415 468 790
484 2 2 1 1 827 540 871
485 2 2 1 1 354 347 887
486 2 2 1 1 305 303 488
487 2 2 1 1 405 483 793
488 2 2 1 1 523 520 524
489 2 2 1 1 356 331 451
490 2 2 1 1 336 318 519
491 2 2 1 1 651 549 805
492 2 2 1 1 435 532 813
493 2 2 1 1 424 348 706
494 2 2 1 1 342 406 408
495 2 2 1 1 303 302 487
496 2 2 1 1 499 450 723
497 2 2 1 1 505 504 506
498 2 2 1 1 374 349 550
499 2 2 1 1 720 500 724
500 2 2 1 1 690 501 691
501 2 2 1 1 498 499 500
502 2 2 1 1 460 380 862
503 2 2 1 1 269 346 535
504 2 2 1 1 351 321 529
505 2 2 1 1 384 369 463
506 2 2 1 1 707 479 904
507 2 2 1 1 444 481 699
508 2 2 1 1 485 316 710
509 2 2 1 1 361 363 541
510 2 2 1 1 368 361 541
511 2 2 1 1 465 563 564
512 2 2 1 1 357 394 505
513 2 2 1 1 329 405 451
514 2 2 1 1 355 421 422
515 2 2 1 1 413 501 697
516 2 2 1 1 497 475 498
517 2 2 1 1 771 300 899
518 2 2 1 1 350 385 386
519 2 2 1 1 380 382 383
520 2 2 1 1 517 516 861
521 2 2 1 1 585 500 723
522 2 2 1 1 232 218 839
523 2 2 1 1 441 501 690
524 2 2 1 1 534 426 703
525 2 2 1 1 696 453 905
526 2 2 1 1 264 707 904
527 2 2 1 1 355 422 710
528 2 2 1 1 511 430 764
529 2 2 1 1 354 376 412
530 2 2 1 1 455 566 567
531 2 2 1 1 463 369 855
532 2 2 1 1 407 427 486
533 2 2 1 1 346 397 445
534 2 2 1 1 398 337 399
535 2 2 1 1 440 507 731
536 2 2 1 1 317 381 487
537 2 2 1 1 268 269 535
538 2 2 1 1 430 692 764
539 2 2 1 1 167 583 826
540 2 2 1 1 325 554 785
541 2 2 1 1 509 478 766
542 2 2 1 1 571 713 867
543 2 2 1 1 644 492 668
544 2 2 1 1 394 503 504
545 2 2 1 1 522 523 526
546 2 2 1 1 350 393 514
547 2 2 1 1 530 558 561
548 2 2 1 1 352 353 379
549 2 2 1 1 472 424 473
550 2 2 1 1 770 525 877
551 2 2 1 1 467 539 900
552 2 2 1 1 378 369 384
553 2 2 1 1 494 632 702
554 2 2 1 1 627 787 841
555 2 2 1 1 787 420 846
556 2 2 1 1 385 324 535
557 2 2 1 1 324 268 535
558 2 2 1 1 477 658 766
559 2 2 1 1 358 360 825
560 2 2 1 1 493 322 783
561 2 2 1 1 806 14 809
562 2 2 1 1 521 527 528
563 2 2 1 1 574 669 693
564 2 2 1 1 733 454 873
565 2 2 1 1 379 353 380
566 2 2 1 1 422 449 450
567 2 2 1 1 406 486 716
568 2 2 1 1 608 602 884
569 2 2 1 1 409 343 508
570 2 2 1 1 731 507 889
571 2 2 1 1 266 323 515
572 2 2 1 1 647 517 893
573 2 2 1 1 513 511 799
574 2 2 1 1 396 347 469
575 2 2 1 1 583 167 852
576 2 2 1 1 399 337 697
577 2 2 1 1 377 369 378
578 2 2 1 1 362 369 377
579 2 2 1 1 362 368 369
580 2 2 1 1 362 361 368
581 2 2 1 1 361 359 363
582 2 2 1 1 360 361 362
583 2 2 1 1 360 359 361
584 2 2 1 1 358 359 360
585 2 2 1 1 358 357 359
586 2 2 1 1 315 347 354
587 2 2 1 1 314 337 355
588 2 2 1 1 334 357 358
589 2 2 1 1 314 315 337
590 2 2 1 1 315 311 347
591 2 2 1 1 334 356 357
592 2 2 1 1 314 311 315
593 2 2 1 1 334 331 356
594 2 2 1 1 310 311 314
595 2 2 1 1 352 345 353
596 2 2 1 1 330 333 335
597 2 2 1 1 333 331 334
598 2 2 1 1 310 309 311
599 2 2 1 1 308 310 316
600 2 2 1 1 323 374 515
601 2 2 1 1 346 345 352
602 2 2 1 1 350 324 385
603 2 2 1 1 330 331 333
604 2 2 1 1 308 309 310
605 2 2 1 1 338 348 375
606 2 2 1 1 479 409 480
607 2 2 1 1 322 321 351
608 2 2 1 1 323 349 374
609 2 2 1 1 349 324 350
610 2 2 1 1 269 345 346
611 2 2 1 1 330 329 331
612 2 2 1 1 308 305 309
613 2 2 1 1 338 307 348
614 2 2 1 1 426 409 479
615 2 2 1 1 321 318 336
616 2 2 1 1 319 321 322
617 2 2 1 1 323 324 349
618 2 2 1 1 269 344 345
619 2 2 1 1 328 329 330
620 2 2 1 1 346 445 535
621 2 2 1 1 427 496 783
622 2 2 1 1 304 307 338
623 2 2 1 1 307 305 308
624 2 2 1 1 407 409 426
625 2 2 1 1 319 318 321
626 2 2 1 1 269 267 344
627 2 2 1 1 323 268 324
628 2 2 1 1 328 327 329
629 2 2 1 1 312 332 339
630 2 2 1 1 393 511 512
631 2 2 1 1 371 489 725
632 2 2 1 1 304 305 307
633 2 2 1 1 476 490 695
634 2 2 1 1 407 343 409
635 2 2 1 1 380 353 382
636 2 2 1 1 548 676 782
637 2 2 1 1 534 533 688
638 2 2 1 1 474 316 819
639 2 2 1 1 367 211 456
640 2 2 1 1 344 518 696
641 2 2 1 1 549 461 805
642 2 2 1 1 494 702 892
643 2 2 1 1 339 443 703
644 2 2 1 1 519 306 771
645 2 2 1 1 413 412 439
646 2 2 1 1 459 379 460
647 2 2 1 1 417 516 517
648 2 2 1 1 250 266 515
649 2 2 1 1 277 539 807
650 2 2 1 1 539 251 807
651 2 2 1 1 317 318 319
652 2 2 1 1 268 267 269
653 2 2 1 1 266 268 323
654 2 2 1 1 468 562 572
655 2 2 1 1 302 317 487
656 2 2 1 1 448 415 790
657 2 2 1 1 313 327 328
658 2 2 1 1 623 621 881
659 2 2 1 1 423 472 898
660 2 2 1 1 262 312 707
661 2 2 1 1 230 5 419
662 2 2 1 1 304 717 835
663 2 2 1 1 313 263 327
664 2 2 1 1 14 806 810
665 2 2 1 1 406 407 486
666 2 2 1 1 473 474 475
667 2 2 1 1 337 315 697
668 2 2 1 1 331 329 451
669 2 2 1 1 434 382 453
670 2 2 1 1 536 467 537
671 2 2 1 1 377 477 478
672 2 2 1 1 312 313 332
673 2 2 1 1 577 464 735
674 2 2 1 1 462 384 463
675 2 2 1 1 304 338 717
676 2 2 1 1 9 130 211
677 2 2 1 1 203 1 553
678 2 2 1 1 157 158 225
679 2 2 1 1 158 159 555
680 2 2 1 1 159 160 566
681 2 2 1 1 27 28 556
682 2 2 1 1 101 102 565
683 2 2 1 1 103 104 244
684 2 2 1 1 26 27 234
685 2 2 1 1 104 105 562
686 2 2 1 1 24 25 278
687 2 2 1 1 83 84 590
688 2 2 1 1 85 86 220
689 2 2 1 1 25 26 570
690 2 2 1 1 106 107 256
691 2 2 1 1 107 108 571
692 2 2 1 1 98 99 275
693 2 2 1 1 105 106 572
694 2 2 1 1 108 109 388
695 2 2 1 1 86 87 569
696 2 2 1 1 88 89 246
697 2 2 1 1 162 163 277
698 2 2 1 1 31 32 389
699 2 2 1 1 102 103 563
700 2 2 1 1 30 31 573
701 2 2 1 1 29 30 257
702 2 2 1 1 28 29 575
703 2 2 1 1 87 88 578
704 2 2 1 1 195 196 557
705 2 2 1 1 23 24 580
706 2 2 1 1 100 101 227
707 2 2 1 1 146 147 395
708 2 2 1 1 139 140 592
709 2 2 1 1 84 85 568
710 2 2 1 1 141 142 587
711 2 2 1 1 145 146 584
712 2 2 1 1 163 164 582
713 2 2 1 1 160 161 251
714 2 2 1 1 89 90 581
715 2 2 1 1 90 91 340
716 2 2 1 1 164 165 387
717 2 2 1 1 21 22 594
718 2 2 1 1 201 202 586
719 2 2 1 1 140 141 208
720 2 2 1 1 22 23 229
721 2 2 1 1 99 100 576
722 2 2 1 1 144 145 239
723 2 2 1 1 196 197 245
724 2 2 1 1 202 203 392
725 2 2 1 1 199 200 589
726 2 2 1 1 197 198 588
727 2 2 1 1 198 199 279
728 2 2 1 1 200 201 226
729 2 2 1 1 156 157 595
730 2 2 1 1 142 143 280
731 2 2 1 1 143 144 591
732 2 2 1 1 20 21 286
733 2 2 1 1 138 139 282
734 2 2 1 1 82 83 243
735 2 2 1 1 154 155 597
736 2 2 1 1 194 195 599
737 2 2 1 1 186 187 390
738 2 2 1 1 97 98 616
739 2 2 1 1 155 156 276
740 2 2 1 1 91 6 544
741 2 2 1 1 153 154 204
742 2 2 1 1 189 190 600
743 2 2 1 1 190 191 252
744 2 2 1 1 147 10 617
745 2 2 1 1 187 188 607
746 2 2 1 1 80 81 283
747 2 2 1 1 74 75 206
748 2 2 1 1 133 134 606
749 2 2 1 1 134 135 284
750 2 2 1 1 136 137 214
751 2 2 1 1 132 133 242
752 2 2 1 1 137 138 611
753 2 2 1 1 135 136 609
754 2 2 1 1 81 82 603
755 2 2 1 1 188 189 281
756 2 2 1 1 78 79 221
757 2 2 1 1 76 77 285
758 2 2 1 1 79 80 613
759 2 2 1 1 193 194 219
760 2 2 1 1 77 78 614
761 2 2 1 1 75 76 612
762 2 2 1 1 148 149 274
763 2 2 1 1 10 148 617
764 2 2 1 1 150 151 253
765 2 2 1 1 152 153 596
766 2 2 1 1 149 150 618
767 2 2 1 1 151 152 619
768 2 2 1 1 93 94 258
769 2 2 1 1 94 95 620
770 2 2 1 1 92 93 628
771 2 2 1 1 18 19 213
772 2 2 1 1 19 20 625
773 2 2 1 1 1 15 205
774 2 2 1 1 15 16 629
775 2 2 1 1 17 18 630
776 2 2 1 1 16 17 372
777 2 2 1 1 96 97 215
778 2 2 1 1 95 96 631
779 2 2 1 1 6 92 544
780 2 2 1 1 437 574 693
781 2 2 1 1 422 485 710
782 2 2 1 1 357 505 901
783 2 2 1 1 12 176 633
784 2 2 1 1 54 55 216
785 2 2 1 1 62 63 640
786 2 2 1 1 61 62 259
787 2 2 1 1 58 59 209
788 2 2 1 1 56 57 287
789 2 2 1 1 60 61 635
790 2 2 1 1 57 58 638
791 2 2 1 1 59 60 636
792 2 2 1 1 55 56 637
793 2 2 1 1 53 54 662
794 2 2 1 1 72 73 645
795 2 2 1 1 69 70 210
796 2 2 1 1 40 41 650
797 2 2 1 1 176 177 223
798 2 2 1 1 174 175 646
799 2 2 1 1 171 172 236
800 2 2 1 1 71 72 320
801 2 2 1 1 70 71 648
802 2 2 1 1 73 5 212
803 2 2 1 1 38 39 240
804 2 2 1 1 115 116 235
805 2 2 1 1 172 173 652
806 2 2 1 1 173 174 288
807 2 2 1 1 175 12 207
808 2 2 1 1 118 119 654
809 2 2 1 1 63 4 664
810 2 2 1 1 116 117 653
811 2 2 1 1 117 118 289
812 2 2 1 1 119 8 659
813 2 2 1 1 41 42 272
814 2 2 1 1 121 122 656
815 2 2 1 1 123 124 660
816 2 2 1 1 8 120 659
817 2 2 1 1 129 9 222
818 2 2 1 1 120 121 273
819 2 2 1 1 122 123 249
820 2 2 1 1 125 126 231
821 2 2 1 1 127 128 290
822 2 2 1 1 124 125 663
823 2 2 1 1 126 127 657
824 2 2 1 1 128 129 661
825 2 2 1 1 114 115 642
826 2 2 1 1 4 64 664
827 2 2 1 1 42 3 547
828 2 2 1 1 37 38 644
829 2 2 1 1 170 171 634
830 2 2 1 1 64 65 341
831 2 2 1 1 179 180 666
832 2 2 1 1 180 181 241
833 2 2 1 1 182 183 292
834 2 2 1 1 178 179 291
835 2 2 1 1 177 178 665
836 2 2 1 1 181 182 667
837 2 2 1 1 36 37 668
838 2 2 1 1 35 36 271
839 2 2 1 1 34 35 669
840 2 2 1 1 111 112 670
841 2 2 1 1 113 114 671
842 2 2 1 1 112 113 270
843 2 2 1 1 168 169 260
844 2 2 1 1 66 67 247
845 2 2 1 1 65 66 672
846 2 2 1 1 52 53 293
847 2 2 1 1 51 52 678
848 2 2 1 1 49 50 680
849 2 2 1 1 47 48 673
850 2 2 1 1 50 51 224
851 2 2 1 1 48 49 294
852 2 2 1 1 3 43 547
853 2 2 1 1 44 45 295
854 2 2 1 1 46 47 233
855 2 2 1 1 43 44 676
856 2 2 1 1 45 46 677
857 2 2 1 1 322 486 783
858 2 2 1 1 348 307 706
859 2 2 1 1 354 413 697
860 2 2 1 1 525 519 771
861 2 2 1 1 321 336 529
862 2 2 1 1 649 512 802
863 2 2 1 1 308 316 706
864 2 2 1 1 317 306 318
865 2 2 1 1 1 205 217
866 2 2 1 1 336 521 529
867 2 2 1 1 454 696 873
868 2 2 1 1 421 737 883
869 2 2 1 1 362 377 478
870 2 2 1 1 212 5 230
871 2 2 1 1 207 12 296
872 2 2 1 1 222 9 364
873 2 2 1 1 304 303 305
874 2 2 1 1 474 424 706
875 2 2 1 1 456 211 894
876 2 2 1 1 406 343 407
877 2 2 1 1 316 310 710
878 2 2 1 1 314 355 710
879 2 2 1 1 470 488 848
880 2 2 1 1 371 400 489
881 2 2 1 1 719 419 779
882 2 2 1 1 1 217 553
883 2 2 1 1 528 531 795
884 2 2 1 1 477 552 768
885 2 2 1 1 296 12 633
886 2 2 1 1 805 491 906
887 2 2 1 1 468 572 790
888 2 2 1 1 354 412 413
889 2 2 1 1 315 354 697
890 2 2 1 1 632 688 809
891 2 2 1 1 301 303 304
892 2 2 1 1 242 606 834
893 2 2 1 1 225 158 555
894 2 2 1 1 555 159 566
895 2 2 1 1 234 27 556
896 2 2 1 1 26 234 570
897 2 2 1 1 556 28 575
898 2 2 1 1 244 104 562
899 2 2 1 1 160 251 566
900 2 2 1 1 256 107 571
901 2 2 1 1 562 105 572
902 2 2 1 1 103 244 563
903 2 2 1 1 108 388 571
904 2 2 1 1 106 256 572
905 2 2 1 1 278 25 570
906 2 2 1 1 102 563 565
907 2 2 1 1 31 389 573
908 2 2 1 1 257 30 573
909 2 2 1 1 24 278 580
910 2 2 1 1 227 101 565
911 2 2 1 1 29 257 575
912 2 2 1 1 157 225 595
913 2 2 1 1 220 86 569
914 2 2 1 1 569 87 578
915 2 2 1 1 340 91 544
916 2 2 1 1 85 220 568
917 2 2 1 1 88 246 578
918 2 2 1 1 246 89 581
919 2 2 1 1 277 163 582
920 2 2 1 1 229 23 580
921 2 2 1 1 100 227 576
922 2 2 1 1 90 340 581
923 2 2 1 1 164 387 582
924 2 2 1 1 208 141 587
925 2 2 1 1 392 203 553
926 2 2 1 1 202 392 586
927 2 2 1 1 226 201 586
928 2 2 1 1 84 568 590
929 2 2 1 1 239 145 584
930 2 2 1 1 245 197 588
931 2 2 1 1 198 279 588
932 2 2 1 1 279 199 589
933 2 2 1 1 200 226 589
934 2 2 1 1 142 280 587
935 2 2 1 1 146 395 584
936 2 2 1 1 144 239 591
937 2 2 1 1 275 99 576
938 2 2 1 1 140 208 592
939 2 2 1 1 196 245 557
940 2 2 1 1 280 143 591
941 2 2 1 1 395 147 617
942 2 2 1 1 22 229 594
943 2 2 1 1 243 83 590
944 2 2 1 1 282 139 592
945 2 2 1 1 276 156 595
946 2 2 1 1 195 557 599
947 2 2 1 1 286 21 594
948 2 2 1 1 98 275 616
949 2 2 1 1 155 276 597
950 2 2 1 1 138 282 611
951 2 2 1 1 82 243 603
952 2 2 1 1 219 194 599
953 2 2 1 1 204 154 597
954 2 2 1 1 390 187 607
955 2 2 1 1 190 252 600
956 2 2 1 1 281 189 600
957 2 2 1 1 188 281 607
958 2 2 1 1 134 284 606
959 2 2 1 1 242 133 606
960 2 2 1 1 284 135 609
961 2 2 1 1 214 137 611
962 2 2 1 1 136 214 609
963 2 2 1 1 283 81 603
964 2 2 1 1 80 283 613
965 2 2 1 1 221 79 613
966 2 2 1 1 78 221 614
967 2 2 1 1 20 286 625
968 2 2 1 1 285 77 614
969 2 2 1 1 206 75 612
970 2 2 1 1 76 285 612
971 2 2 1 1 153 204 596
972 2 2 1 1 215 97 616
973 2 2 1 1 148 274 617
974 2 2 1 1 274 149 618
975 2 2 1 1 150 253 618
976 2 2 1 1 152 596 619
977 2 2 1 1 253 151 619
978 2 2 1 1 258 94 620
979 2 2 1 1 93 258 628
980 2 2 1 1 213 19 625
981 2 2 1 1 18 213 630
982 2 2 1 1 205 15 629
983 2 2 1 1 544 92 628
984 2 2 1 1 16 372 629
985 2 2 1 1 372 17 630
986 2 2 1 1 620 95 631
987 2 2 1 1 96 215 631
988 2 2 1 1 623 542 624
989 2 2 1 1 583 387 826
990 2 2 1 1 501 399 697
991 2 2 1 1 316 485 819
992 2 2 1 1 313 328 773
993 2 2 1 1 640 63 664
994 2 2 1 1 209 59 636
995 2 2 1 1 259 62 640
996 2 2 1 1 287 57 638
997 2 2 1 1 58 209 638
998 2 2 1 1 60 635 636
999 2 2 1 1 61 259 635
1000 2 2 1 1 56 287 637
1001 2 2 1 1 216 55 637
1002 2 2 1 1 176 223 633
1003 2 2 1 1 320 72 645
1004 2 2 1 1 73 212 645
1005 2 2 1 1 71 320 648
1006 2 2 1 1 54 216 662
1007 2 2 1 1 288 174 646
1008 2 2 1 1 175 207 646
1009 2 2 1 1 173 288 652
1010 2 2 1 1 210 70 648
1011 2 2 1 1 117 289 653
1012 2 2 1 1 654 119 659
1013 2 2 1 1 289 118 654
1014 2 2 1 1 236 172 652
1015 2 2 1 1 41 272 650
1016 2 2 1 1 272 42 547
1017 2 2 1 1 235 116 653
1018 2 2 1 1 223 177 665
1019 2 2 1 1 171 236 634
1020 2 2 1 1 38 240 644
1021 2 2 1 1 115 235 642
1022 2 2 1 1 122 249 656
1023 2 2 1 1 120 273 659
1024 2 2 1 1 249 123 660
1025 2 2 1 1 231 126 657
1026 2 2 1 1 273 121 656
1027 2 2 1 1 290 128 661
1028 2 2 1 1 125 231 663
1029 2 2 1 1 660 124 663
1030 2 2 1 1 127 290 657
1031 2 2 1 1 129 222 661
1032 2 2 1 1 293 53 662
1033 2 2 1 1 37 644 668
1034 2 2 1 1 178 291 665
1035 2 2 1 1 180 241 666
1036 2 2 1 1 182 292 667
1037 2 2 1 1 291 179 666
1038 2 2 1 1 241 181 667
1039 2 2 1 1 64 341 664
1040 2 2 1 1 114 642 671
1041 2 2 1 1 271 36 668
1042 2 2 1 1 35 271 669
1043 2 2 1 1 112 270 670
1044 2 2 1 1 270 113 671
1045 2 2 1 1 341 65 672
1046 2 2 1 1 66 247 672
1047 2 2 1 1 52 293 678
1048 2 2 1 1 224 51 678
1049 2 2 1 1 547 43 676
1050 2 2 1 1 233 47 673
1051 2 2 1 1 294 49 680
1052 2 2 1 1 295 45 677
1053 2 2 1 1 50 224 680
1054 2 2 1 1 48 294 673
1055 2 2 1 1 44 295 676
1056 2 2 1 1 46 233 677
1057 2 2 1 1 621 623 791
1058 2 2 1 1 228 325 785
1059 2 2 1 1 312 263 313
1060 2 2 1 1 328 330 726
1061 2 2 1 1 131 132 776
1062 2 2 1 1 266 267 268
1063 2 2 1 1 429 296 633
1064 2 2 1 1 443 533 534
1065 2 2 1 1 347 311 469
1066 2 2 1 1 338 417 717
1067 2 2 1 1 489 400 822
1068 2 2 1 1 400 514 822
1069 2 2 1 1 485 499 819
1070 2 2 1 1 264 262 707
1071 2 2 1 1 574 389 715
1072 2 2 1 1 369 368 855
1073 2 2 1 1 342 343 406
1074 2 2 1 1 834 606 889
1075 2 2 1 1 132 242 776
1076 2 2 1 1 515 828 836
1077 2 2 1 1 828 508 836
1078 2 2 1 1 478 477 766
1079 2 2 1 1 343 326 508
1080 2 2 1 1 705 466 837
1081 2 2 1 1 307 308 706
1082 2 2 1 1 481 408 482
1083 2 2 1 1 306 300 771
1084 2 2 1 1 166 167 826
1085 2 2 1 1 419 719 778
1086 2 2 1 1 605 452 845
1087 2 2 1 1 487 381 848
1088 2 2 1 1 442 332 784
1089 2 2 1 1 312 339 707
1090 2 2 1 1 418 467 536
1091 2 2 1 1 252 191 780
1092 2 2 1 1 193 219 781
1093 2 2 1 1 401 366 404
1094 2 2 1 1 445 397 823
1095 2 2 1 1 526 523 757
1096 2 2 1 1 261 238 778
1097 2 2 1 1 353 345 905
1098 2 2 1 1 310 314 710
1099 2 2 1 1 191 192 780
1100 2 2 1 1 192 193 781
1101 2 2 1 1 554 444 754
1102 2 2 1 1 111 670 712
1103 2 2 1 1 34 669 715
1104 2 2 1 1 408 406 716
1105 2 2 1 1 436 540 827
1106 2 2 1 1 266 265 267
1107 2 2 1 1 40 650 797
1108 2 2 1 1 240 39 797
1109 2 2 1 1 492 644 804
1110 2 2 1 1 688 533 809
1111 2 2 1 1 110 111 712
1112 2 2 1 1 33 34 715
1113 2 2 1 1 184 185 798
1114 2 2 1 1 292 868 884
1115 2 2 1 1 242 704 776
1116 2 2 1 1 247 67 796
1117 2 2 1 1 558 559 561
1118 2 2 1 1 359 357 901
1119 2 2 1 1 410 437 821
1120 2 2 1 1 69 210 800
1121 2 2 1 1 162 277 807
1122 2 2 1 1 251 161 807
1123 2 2 1 1 39 40 797
1124 2 2 1 1 786 518 787
1125 2 2 1 1 818 543 888
1126 2 2 1 1 167 168 852
1127 2 2 1 1 184 798 868
1128 2 2 1 1 5 74 865
1129 2 2 1 1 632 496 688
1130 2 2 1 1 543 464 860
1131 2 2 1 1 780 192 781
1132 2 2 1 1 441 399 501
1133 2 2 1 1 170 634 815
1134 2 2 1 1 260 169 815
1135 2 2 1 1 302 306 317
1136 2 2 1 1 452 746 845
1137 2 2 1 1 378 416 891
1138 2 2 1 1 565 465 814
1139 2 2 1 1 506 686 744
1140 2 2 1 1 14 810 812
1141 2 2 1 1 574 437 742
1142 2 2 1 1 533 806 809
1143 2 2 1 1 368 541 860
1144 2 2 1 1 446 445 823
1145 2 2 1 1 109 7 857
1146 2 2 1 1 32 2 858
1147 2 2 1 1 7 110 857
1148 2 2 1 1 2 33 858
1149 2 2 1 1 512 513 802
1150 2 2 1 1 417 517 792
1151 2 2 1 1 480 508 828
1152 2 2 1 1 457 704 829
1153 2 2 1 1 419 5 865
1154 2 2 1 1 67 68 796
1155 2 2 1 1 438 375 879
1156 2 2 1 1 551 449 739
1157 2 2 1 1 810 811 812
1158 2 2 1 1 489 649 838
1159 2 2 1 1 344 696 905
1160 2 2 1 1 610 440 731
1161 2 2 1 1 550 373 685
1162 2 2 1 1 298 296 429
1163 2 2 1 1 302 300 306
1164 2 2 1 1 68 69 800
1165 2 2 1 1 663 552 885
1166 2 2 1 1 380 391 862
1167 2 2 1 1 450 551 723
1168 2 2 1 1 420 205 629
1169 2 2 1 1 366 211 367
1170 2 2 1 1 622 620 631
1171 2 2 1 1 557 560 599
1172 2 2 1 1 213 627 630
1173 2 2 1 1 559 245 588
1174 2 2 1 1 283 605 613
1175 2 2 1 1 555 455 817
1176 2 2 1 1 330 335 726
1177 2 2 1 1 340 546 581
1178 2 2 1 1 233 675 677
1179 2 2 1 1 228 248 325
1180 2 2 1 1 206 779 865
1181 2 2 1 1 779 419 865
1182 2 2 1 1 292 183 868
1183 2 2 1 1 272 549 650
1184 2 2 1 1 516 538 872
1185 2 2 1 1 255 238 261
1186 2 2 1 1 211 130 894
1187 2 2 1 1 455 438 879
1188 2 2 1 1 161 162 807
1189 2 2 1 1 560 530 803
1190 2 2 1 1 810 435 811
1191 2 2 1 1 550 349 875
1192 2 2 1 1 650 651 797
1193 2 2 1 1 332 313 773
1194 2 2 1 1 403 765 767
1195 2 2 1 1 443 534 703
1196 2 2 1 1 708 432 743
1197 2 2 1 1 301 302 303
1198 2 2 1 1 506 624 816
1199 2 2 1 1 543 541 888
1200 2 2 1 1 704 456 776
1201 2 2 1 1 394 504 505
1202 2 2 1 1 796 68 800
1203 2 2 1 1 765 403 766
1204 2 2 1 1 690 457 829
1205 2 2 1 1 169 170 815
1206 2 2 1 1 498 475 499
1207 2 2 1 1 466 446 823
1208 2 2 1 1 420 787 839
1209 2 2 1 1 537 467 900
1210 2 2 1 1 496 493 783
1211 2 2 1 1 342 326 343
1212 2 2 1 1 422 450 485
1213 2 2 1 1 262 263 312
1214 2 2 1 1 131 776 894
1215 2 2 1 1 800 210 802
1216 2 2 1 1 332 773 784
1217 2 2 1 1 301 304 835
1218 2 2 1 1 602 526 884
1219 2 2 1 1 465 463 736
1220 2 2 1 1 670 270 714
1221 2 2 1 1 473 424 474
1222 2 2 1 1 536 537 808
1223 2 2 1 1 464 577 736
1224 2 2 1 1 393 512 514
1225 2 2 1 1 13 186 874
1226 2 2 1 1 658 765 766
1227 2 2 1 1 388 712 713
1228 2 2 1 1 185 13 874
1229 2 2 1 1 374 550 897
1230 2 2 1 1 486 427 783
1231 2 2 1 1 334 358 789
1232 2 2 1 1 861 516 872
1233 2 2 1 1 434 748 749
1234 2 2 1 1 779 206 830
1235 2 2 1 1 333 334 789
1236 2 2 1 1 230 419 778
1237 2 2 1 1 538 634 872
1238 2 2 1 1 217 205 218
1239 2 2 1 1 212 230 237
1240 2 2 1 1 207 296 297
1241 2 2 1 1 222 364 365
1242 2 2 1 1 250 265 266
1243 2 2 1 1 532 442 813
1244 2 2 1 1 488 487 848
1245 2 2 1 1 464 855 860
1246 2 2 1 1 412 376 882
1247 2 2 1 1 813 442 882
1248 2 2 1 1 455 879 898
1249 2 2 1 1 712 670 713
1250 2 2 1 1 650 549 651
1251 2 2 1 1 250 232 265
1252 2 2 1 1 218 205 420
1253 2 2 1 1 370 647 775
1254 2 2 1 1 371 725 774
1255 2 2 1 1 340 544 545
1256 2 2 1 1 250 515 836
1257 2 2 1 1 272 548 549
1258 2 2 1 1 340 545 546
1259 2 2 1 1 233 674 675
1260 2 2 1 1 621 620 622
1261 2 2 1 1 213 626 627
1262 2 2 1 1 557 558 560
1263 2 2 1 1 283 604 605
1264 2 2 1 1 558 245 559
1265 2 2 1 1 272 547 548
1266 2 2 1 1 713 448 867
1267 2 2 1 1 472 598 753
1268 2 2 1 1 563 244 564
1269 2 2 1 1 616 275 709
1270 2 2 1 1 609 214 610
1271 2 2 1 1 279 589 682
1272 2 2 1 1 213 625 626
1273 2 2 1 1 573 389 574
1274 2 2 1 1 595 225 683
1275 2 2 1 1 576 227 577
1276 2 2 1 1 282 592 593
1277 2 2 1 1 239 584 585
1278 2 2 1 1 226 586 699
1279 2 2 1 1 618 253 720
1280 2 2 1 1 258 620 621
1281 2 2 1 1 578 246 579
1282 2 2 1 1 575 257 708
1283 2 2 1 1 281 600 601
1284 2 2 1 1 285 614 615
1285 2 2 1 1 278 570 687
1286 2 2 1 1 590 568 721
1287 2 2 1 1 594 229 711
1288 2 2 1 1 557 245 558
1289 2 2 1 1 597 276 598
1290 2 2 1 1 283 603 604
1291 2 2 1 1 392 553 554
1292 2 2 1 1 234 556 694
1293 2 2 1 1 566 251 567
1294 2 2 1 1 220 569 686
1295 2 2 1 1 265 232 839
1296 2 2 1 1 542 623 881
1297 2 2 1 1 457 456 704
1298 2 2 1 1 644 240 804
1299 2 2 1 1 642 235 643
1300 2 2 1 1 666 241 689
1301 2 2 1 1 233 673 674
1302 2 2 1 1 678 293 679
1303 2 2 1 1 287 638 639
1304 2 2 1 1 210 648 649
1305 2 2 1 1 249 660 695
1306 2 2 1 1 259 640 641
1307 2 2 1 1 320 645 725
1308 2 2 1 1 288 646 647
1309 2 2 1 1 289 654 655
1310 2 2 1 1 341 672 692
1311 2 2 1 1 657 290 658
1312 2 2 1 1 665 291 684
1313 2 2 1 1 669 271 693
1314 2 2 1 1 680 224 681
1315 2 2 1 1 216 637 705
1316 2 2 1 1 622 818 881
1317 2 2 1 1 492 410 821
1318 2 2 1 1 562 468 728
1319 2 2 1 1 325 326 342
1320 2 2 1 1 460 850 890
1321 2 2 1 1 500 499 723
1322 2 2 1 1 365 402 403
1323 2 2 1 1 237 254 371
1324 2 2 1 1 297 299 370
1325 2 2 1 1 365 403 767
1326 2 2 1 1 517 647 792
1327 2 2 1 1 237 371 774
1328 2 2 1 1 297 370 775
1329 2 2 1 1 696 518 786
1330 2 2 1 1 367 456 457
1331 2 2 1 1 300 298 899
1332 2 2 1 1 593 484 847
1333 2 2 1 1 433 687 747
1334 2 2 1 1 545 544 628
1335 2 2 1 1 548 547 676
1336 2 2 1 1 401 404 502
1337 2 2 1 1 480 685 904
1338 2 2 1 1 505 506 816
1339 2 2 1 1 400 373 550
1340 2 2 1 1 466 397 801
1341 2 2 1 1 371 373 400
1342 2 2 1 1 698 500 722
1343 2 2 1 1 262 261 263
1344 2 2 1 1 499 475 819
1345 2 2 1 1 512 649 822
1346 2 2 1 1 570 234 747
1347 2 2 1 1 568 220 755
1348 2 2 1 1 204 597 752
1349 2 2 1 1 556 575 743
1350 2 2 1 1 569 578 744
1351 2 2 1 1 600 252 745
1352 2 2 1 1 614 221 746
1353 2 2 1 1 586 392 754
1354 2 2 1 1 229 580 748
1355 2 2 1 1 243 590 750
1356 2 2 1 1 276 595 753
1357 2 2 1 1 257 573 742
1358 2 2 1 1 591 239 740
1359 2 2 1 1 253 619 741
1360 2 2 1 1 275 576 735
1361 2 2 1 1 592 208 737
1362 2 2 1 1 214 611 729
1363 2 2 1 1 244 562 728
1364 2 2 1 1 284 609 731
1365 2 2 1 1 215 616 732
1366 2 2 1 1 625 286 733
1367 2 2 1 1 515 374 828
1368 2 2 1 1 208 587 738
1369 2 2 1 1 286 594 734
1370 2 2 1 1 584 395 722
1371 2 2 1 1 274 618 724
1372 2 2 1 1 580 278 749
1373 2 2 1 1 603 243 751
1374 2 2 1 1 395 617 698
1375 2 2 1 1 617 274 698
1376 2 2 1 1 587 280 739
1377 2 2 1 1 868 608 884
1378 2 2 1 1 270 671 777
1379 2 2 1 1 704 242 834
1380 2 2 1 1 240 797 906
1381 2 2 1 1 446 705 761
1382 2 2 1 1 241 667 756
1383 2 2 1 1 231 657 768
1384 2 2 1 1 291 666 769
1385 2 2 1 1 290 661 765
1386 2 2 1 1 223 665 770
1387 2 2 1 1 635 259 762
1388 2 2 1 1 653 289 763
1389 2 2 1 1 672 247 764
1390 2 2 1 1 637 287 761
1391 2 2 1 1 224 678 772
1392 2 2 1 1 673 294 758
1393 2 2 1 1 293 662 760
1394 2 2 1 1 645 212 774
1395 2 2 1 1 646 207 775
1396 2 2 1 1 850 460 862
1397 2 2 1 1 661 222 767
1398 2 2 1 1 667 292 757
1399 2 2 1 1 294 680 759
1400 2 2 1 1 640 664 700
1401 2 2 1 1 654 659 701
1402 2 2 1 1 664 341 700
1403 2 2 1 1 659 273 701
1404 2 2 1 1 273 656 727
1405 2 2 1 1 387 165 902
1406 2 2 1 1 636 635 827
1407 2 2 1 1 798 608 868
1408 2 2 1 1 484 398 730
1409 2 2 1 1 402 502 825
1410 2 2 1 1 550 685 897
1411 2 2 1 1 685 480 897
1412 2 2 1 1 514 512 822
1413 2 2 1 1 335 788 896
1414 2 2 1 1 717 417 792
1415 2 2 1 1 776 456 894
1416 2 2 1 1 370 717 792
1417 2 2 1 1 264 685 864
1418 2 2 1 1 523 756 757
1419 2 2 1 1 255 262 264
1420 2 2 1 1 553 217 785
1421 2 2 1 1 479 480 904
1422 2 2 1 1 638 209 820
1423 2 2 1 1 227 565 814
1424 2 2 1 1 472 683 898
1425 2 2 1 1 634 538 815
1426 2 2 1 1 736 577 814
1427 2 2 1 1 431 719 779
1428 2 2 1 1 500 698 724
1429 2 2 1 1 671 642 831
1430 2 2 1 1 690 691 896
1431 2 2 1 1 662 216 837
1432 2 2 1 1 811 471 812
1433 2 2 1 1 297 296 298
1434 2 2 1 1 365 364 401
1435 2 2 1 1 237 230 238
1436 2 2 1 1 217 218 228
1437 2 2 1 1 628 258 791
1438 2 2 1 1 206 612 830
1439 2 2 1 1 225 555 817
1440 2 2 1 1 183 184 868
1441 2 2 1 1 691 335 896
1442 2 2 1 1 685 373 864
1443 2 2 1 1 165 11 902
1444 2 2 1 1 648 320 838
1445 2 2 1 1 11 166 902
1446 2 2 1 1 440 610 730
1447 2 2 1 1 531 780 781
1448 2 2 1 1 252 780 794
1449 2 2 1 1 619 596 832
1450 2 2 1 1 611 282 847
1451 2 2 1 1 301 300 302
1452 2 2 1 1 781 219 795
1453 2 2 1 1 582 537 900
1454 2 2 1 1 502 404 718
1455 2 2 1 1 363 359 901
1456 2 2 1 1 589 226 853
1457 2 2 1 1 413 439 880
1458 2 2 1 1 345 344 905
1459 2 2 1 1 782 295 849
1460 2 2 1 1 391 491 805
1461 2 2 1 1 168 260 852
1462 2 2 1 1 508 326 836
1463 2 2 1 1 247 796 799
1464 2 2 1 1 439 726 880
1465 2 2 1 1 186 390 874
1466 2 2 1 1 537 583 808
1467 2 2 1 1 510 643 876
1468 2 2 1 1 647 370 792
1469 2 2 1 1 509 402 825
1470 2 2 1 1 719 261 778
1471 2 2 1 1 130 131 894
1472 2 2 1 1 459 758 759
1473 2 2 1 1 649 489 822
1474 2 2 1 1 713 670 714
1475 2 2 1 1 805 461 862
1476 2 2 1 1 388 109 857
1477 2 2 1 1 389 32 858
1478 2 2 1 1 513 796 800
1479 2 2 1 1 325 248 326
1480 2 2 1 1 612 285 859
1481 2 2 1 1 692 430 895
1482 2 2 1 1 255 261 262
1483 2 2 1 1 74 206 865
1484 2 2 1 1 546 545 623
1485 2 2 1 1 541 543 860
1486 2 2 1 1 442 784 882
1487 2 2 1 1 462 564 728
1488 2 2 1 1 524 684 769
1489 2 2 1 1 718 333 789
1490 2 2 1 1 683 472 753
1491 2 2 1 1 490 416 870
1492 2 2 1 1 717 370 835
1493 2 2 1 1 596 204 869
1494 2 2 1 1 634 236 872
1495 2 2 1 1 236 652 861
1496 2 2 1 1 855 368 860
1497 2 2 1 1 513 800 802
1498 2 2 1 1 209 636 871
1499 2 2 1 1 461 850 862
1500 2 2 1 1 444 699 754
1501 2 2 1 1 746 452 793
1502 2 2 1 1 475 474 819
1503 2 2 1 1 602 601 863
1504 2 2 1 1 656 249 878
1505 2 2 1 1 235 653 876
1506 2 2 1 1 627 626 786
1507 2 2 1 1 299 298 300
1508 2 2 1 1 402 401 502
1509 2 2 1 1 254 238 255
1510 2 2 1 1 458 457 690
1511 2 2 1 1 228 232 248
1512 2 2 1 1 523 689 756
1513 2 2 1 1 238 230 778
1514 2 2 1 1 441 690 829
1515 2 2 1 1 260 808 852
1516 2 2 1 1 248 250 836
1517 2 2 1 1 326 248 836
1518 2 2 1 1 764 247 799
1519 2 2 1 1 684 525 770
1520 2 2 1 1 367 457 458
1521 2 2 1 1 465 736 814
1522 2 2 1 1 371 254 373
1523 2 2 1 1 403 402 509
1524 2 2 1 1 397 466 823
1525 2 2 1 1 217 228 785
1526 2 2 1 1 271 668 851
1527 2 2 1 1 561 482 824
1528 2 2 1 1 297 298 299
1529 2 2 1 1 365 401 402
1530 2 2 1 1 237 238 254
1531 2 2 1 1 228 218 232
1532 2 2 1 1 718 404 788
1533 2 2 1 1 507 441 829
1534 2 2 1 1 502 718 789
1535 2 2 1 1 246 581 840
1536 2 2 1 1 528 795 803
1537 2 2 1 1 631 215 842
1538 2 2 1 1 372 630 841
1539 2 2 1 1 219 599 843
1540 2 2 1 1 588 279 844
1541 2 2 1 1 221 613 845
1542 2 2 1 1 629 372 846
1543 2 2 1 1 432 694 743
1544 2 2 1 1 248 232 250
1545 2 2 1 1 299 300 301
1546 2 2 1 1 714 270 777
1547 2 2 1 1 745 252 794
1548 2 2 1 1 255 264 864
1549 2 2 1 1 256 571 867
1550 2 2 1 1 295 677 849
1551 2 2 1 1 606 284 889
1552 2 2 1 1 687 433 866
1553 2 2 1 1 716 351 824
1554 2 2 1 1 790 256 867
1555 2 2 1 1 841 787 846
1556 2 2 1 1 210 649 802
1557 2 2 1 1 595 683 753
1558 2 2 1 1 699 586 754
1559 2 2 1 1 573 574 742
1560 2 2 1 1 575 708 743
1561 2 2 1 1 578 579 744
1562 2 2 1 1 601 600 745
1563 2 2 1 1 615 614 746
1564 2 2 1 1 721 568 755
1565 2 2 1 1 687 570 747
1566 2 2 1 1 597 598 752
1567 2 2 1 1 709 275 735
1568 2 2 1 1 610 214 729
1569 2 2 1 1 708 257 742
1570 2 2 1 1 239 585 740
1571 2 2 1 1 720 253 741
1572 2 2 1 1 711 229 748
1573 2 2 1 1 590 721 750
1574 2 2 1 1 598 276 753
1575 2 2 1 1 576 577 735
1576 2 2 1 1 593 592 737
1577 2 2 1 1 392 554 754
1578 2 2 1 1 234 694 747
1579 2 2 1 1 220 686 755
1580 2 2 1 1 564 244 728
1581 2 2 1 1 609 610 731
1582 2 2 1 1 616 709 732
1583 2 2 1 1 694 556 743
1584 2 2 1 1 686 569 744
1585 2 2 1 1 626 625 733
1586 2 2 1 1 808 583 852
1587 2 2 1 1 481 682 853
1588 2 2 1 1 585 584 722
1589 2 2 1 1 618 720 724
1590 2 2 1 1 594 711 734
1591 2 2 1 1 278 687 749
1592 2 2 1 1 604 603 751
1593 2 2 1 1 212 237 774
1594 2 2 1 1 207 297 775
1595 2 2 1 1 222 365 767
1596 2 2 1 1 685 264 904
1597 2 2 1 1 689 241 756
1598 2 2 1 1 666 689 769
1599 2 2 1 1 657 658 768
1600 2 2 1 1 684 291 769
1601 2 2 1 1 658 290 765
1602 2 2 1 1 665 684 770
1603 2 2 1 1 259 641 762
1604 2 2 1 1 289 655 763
1605 2 2 1 1 692 672 764
1606 2 2 1 1 287 639 761
1607 2 2 1 1 678 679 772
1608 2 2 1 1 705 637 761
1609 2 2 1 1 681 224 772
1610 2 2 1 1 674 673 758
1611 2 2 1 1 679 293 760
1612 2 2 1 1 725 645 774
1613 2 2 1 1 647 646 775
1614 2 2 1 1 641 640 700
1615 2 2 1 1 655 654 701
1616 2 2 1 1 341 692 700
1617 2 2 1 1 680 681 759
1618 2 2 1 1 504 721 755
1619 2 2 1 1 660 663 885
1620 2 2 1 1 788 404 854
1621 2 2 1 1 689 524 769
1622 2 2 1 1 652 288 893
1623 2 2 1 1 577 227 814
1624 2 2 1 1 639 638 820
1625 2 2 1 1 522 526 863
1626 2 2 1 1 514 400 875
1627 2 2 1 1 448 713 714
1628 2 2 1 1 642 643 831
1629 2 2 1 1 258 621 791
1630 2 2 1 1 216 705 837
1631 2 2 1 1 683 225 817
1632 2 2 1 1 668 492 851
1633 2 2 1 1 282 593 847
1634 2 2 1 1 649 648 838
1635 2 2 1 1 320 725 838
1636 2 2 1 1 682 589 853
1637 2 2 1 1 226 699 853
1638 2 2 1 1 748 580 749
1639 2 2 1 1 243 750 751
1640 2 2 1 1 737 208 738
1641 2 2 1 1 733 286 734
1642 2 2 1 1 110 712 857
1643 2 2 1 1 33 715 858
1644 2 2 1 1 395 698 722
1645 2 2 1 1 698 274 724
1646 2 2 1 1 738 587 739
1647 2 2 1 1 633 223 877
1648 2 2 1 1 554 553 785
1649 2 2 1 1 756 667 757
1650 2 2 1 1 765 661 767
1651 2 2 1 1 758 294 759
1652 2 2 1 1 701 273 727
1653 2 2 1 1 635 762 827
1654 2 2 1 1 437 693 821
1655 2 2 1 1 495 470 848
1656 2 2 1 1 285 615 859
1657 2 2 1 1 490 476 891
1658 2 2 1 1 711 454 734
1659 2 2 1 1 777 671 831
1660 2 2 1 1 249 695 878
1661 2 2 1 1 643 235 876
1662 2 2 1 1 277 582 900
1663 2 2 1 1 760 662 837
1664 2 2 1 1 579 246 840
1665 2 2 1 1 279 682 844
1666 2 2 1 1 741 619 832
1667 2 2 1 1 693 271 851
1668 2 2 1 1 729 611 847
1669 2 2 1 1 615 746 793
1670 2 2 1 1 795 219 843
1671 2 2 1 1 404 366 854
1672 2 2 1 1 527 745 794
1673 2 2 1 1 701 727 870
1674 2 2 1 1 695 660 885
1675 2 2 1 1 288 647 893
1676 2 2 1 1 727 490 870
1677 2 2 1 1 826 387 902
1678 2 2 1 1 712 388 857
1679 2 2 1 1 715 389 858
1680 2 2 1 1 655 701 870
1681 2 2 1 1 817 455 898
1682 2 2 1 1 709 543 732
1683 2 2 1 1 204 752 869
1684 2 2 1 1 789 358 825
1685 2 2 1 1 507 834 889
1686 2 2 1 1 653 763 876
1687 2 2 1 1 727 656 878
1688 2 2 1 1 636 827 871
1689 2 2 1 1 729 484 730
1690 2 2 1 1 215 732 842
1691 2 2 1 1 746 221 845
1692 2 2 1 1 511 764 799
1693 2 2 1 1 610 729 730
1694 2 2 1 1 284 731 889
1695 2 2 1 1 545 628 791
1696 2 2 1 1 797 651 906
1697 2 2 1 1 434 749 866
1698 2 2 1 1 366 367 854
1699 2 2 1 1 830 612 859
1700 2 2 1 1 820 209 871
1701 2 2 1 1 881 818 888
1702 2 2 1 1 391 805 862
1703 2 2 1 1 223 770 877
1704 2 2 1 1 829 704 834
1705 2 2 1 1 699 481 853
1706 2 2 1 1 390 798 874
1707 2 2 1 1 502 789 825
1708 2 2 1 1 832 596 869
1709 2 2 1 1 416 490 891
1710 2 2 1 1 621 622 881
1711 2 2 1 1 695 490 878
1712 2 2 1 1 437 708 742
1713 2 2 1 1 780 531 794
1714 2 2 1 1 370 299 835
1715 2 2 1 1 531 781 795
1716 2 2 1 1 757 292 884
1717 2 2 1 1 458 690 896
1718 2 2 1 1 879 423 898
1719 2 2 1 1 623 545 791
1720 2 2 1 1 458 788 854
1721 2 2 1 1 236 861 872
1722 2 2 1 1 798 185 874
1723 2 2 1 1 490 727 878
1724 2 2 1 1 796 513 799
1725 2 2 1 1 526 602 863
1726 2 2 1 1 400 550 875
1727 2 2 1 1 803 795 843
1728 2 2 1 1 679 760 801
1729 2 2 1 1 675 674 890
1730 2 2 1 1 861 652 893
1731 2 2 1 1 372 841 846
1732 2 2 1 1 396 811 886
1733 2 2 1 1 540 411 833
1734 2 2 1 1 449 738 739
1735 2 2 1 1 436 762 856
1736 2 2 1 1 429 633 877
1737 2 2 1 1 784 412 882
1738 2 2 1 1 762 436 827
1739 2 2 1 1 581 546 840
1740 2 2 1 1 484 729 847
1741 2 2 1 1 622 631 842
1742 2 2 1 1 630 627 841
1743 2 2 1 1 599 560 843
1744 2 2 1 1 559 588 844
1745 2 2 1 1 613 605 845
1746 2 2 1 1 420 629 846
1747 2 2 1 1 811 435 886
1748 2 2 1 1 677 675 849
1749 2 2 1 1 367 458 854
1750 2 2 1 1 804 240 906
1751 2 2 1 1 762 641 856
1752 2 2 1 1 299 301 835
1753 2 2 1 1 507 829 834
1754 2 2 1 1 732 818 842
1755 2 2 1 1 760 466 801
1756 2 2 1 1 850 675 890
1757 2 2 1 1 491 804 906
1758 2 2 1 1 505 816 901
1759 2 2 1 1 560 803 843
1760 2 2 1 1 750 503 751
1761 2 2 1 1 498 720 741
1762 2 2 1 1 732 543 818
1763 2 2 1 1 683 817 898
1764 2 2 1 1 254 255 864
1765 2 2 1 1 749 687 866
1766 2 2 1 1 886 376 887
1767 2 2 1 1 758 459 903
1768 2 2 1 1 828 374 897
1769 2 2 1 1 480 828 897
1770 2 2 1 1 763 510 876
1771 2 2 1 1 639 820 833
1772 2 2 1 1 466 760 837
1773 2 2 1 1 448 790 867
1774 2 2 1 1 460 890 903
1775 2 2 1 1 849 675 850
1776 2 2 1 1 373 254 864
1777 2 2 1 1 725 489 838
1778 2 2 1 1 166 826 902
1779 2 2 1 1 788 458 896
1780 2 2 1 1 818 622 842
1781 2 2 1 1 626 733 873
1782 2 2 1 1 464 736 855
1783 2 2 1 1 786 626 873
1784 2 2 1 1 821 693 851
1785 2 2 1 1 782 849 850
1786 2 2 1 1 492 821 851
1787 2 2 1 1 298 429 899
1788 2 2 1 1 737 738 883
1789 2 2 1 1 674 758 903
1790 2 2 1 1 447 777 831
1791 2 2 1 1 736 463 855
1792 2 2 1 1 738 449 883
1793 2 2 1 1 696 786 873
1794 2 2 1 1 461 782 850
1795 2 2 1 1 526 757 884
1796 2 2 1 1 820 540 833
1797 2 2 1 1 540 820 871
1798 2 2 1 1 816 363 901
1799 2 2 1 1 483 830 859
1800 2 2 1 1 890 674 903
1801 2 2 1 1 497 832 869
1802 2 2 1 1 396 886 887
1803 2 2 1 1 856 641 895
1804 2 2 1 1 517 861 893
1805 2 2 1 1 641 700 895
1806 2 2 1 1 700 692 895
1807 2 2 1 1 542 881 888
1808 2 2 1 1 430 856 895
1809 2 2 1 1 436 411 540
1810 2 2 1 1 772 679 801
$EndElements
