$MeshFormat
2.2 0 8
$EndMeshFormat
$Nodes
656
1 -1.24 -1.74 0
2 -0.76 -1.74 0
3 -0.76 -1.26 0
4 -1.24 -1.26 0
5 0.76 -1.74 0
6 1.24 -1.74 0
7 1.24 -1.26 0
8 0.76 -1.26 0
9 1.76 -1.74 0
10 2.24 -1.74 0
11 2.24 -1.26 0
12 1.76 -1.26 0
13 -1.24 -0.74 0
14 -0.76 -0.74 0
15 -0.76 -0.26 0
16 -1.24 -0.26 0
17 0.76 -0.74 0
18 1.24 -0.74 0
19 1.24 -0.26 0
20 0.76 -0.26 0
21 1.76 -0.74 0
22 2.24 -0.74 0
23 2.24 -0.26 0
24 1.76 -0.26 0
25 -1.24 0.26 0
26 -0.76 0.26 0
27 -0.76 0.74 0
28 -1.24 0.74 0
29 -1.24 1.26 0
30 -0.76 1.26 0
31 -0.76 1.74 0
32 -1.24 1.74 0
33 1.76 1.26 0
34 2.24 1.26 0
35 2.24 1.74 0
36 1.76 1.74 0
37 -2.24 -1.26 0
38 -2.24 -1.74 0
39 -1.76 -1.74 0
40 -1.76 -1.26 0
41 -1.86 -1.26 0
42 -1.86 -0.74 0
43 -1.76 -0.74 0
44 -1.76 -0.64 0
45 -1.24 -0.64 0
46 -0.7600000000000002 -0.64 0
47 -0.24 -0.64 0
48 -0.24 -0.74 0
49 -0.14 -0.74 0
50 -0.14 -1.26 0
51 -0.24 -1.26 0
52 -0.24 -1.36 0
53 -0.76 -1.36 0
54 -0.76 -1.64 0
55 -0.24 -1.64 0
56 -0.24 -1.74 0
57 0.24 -1.74 0
58 0.24 -1.64 0
59 0.76 -1.64 0
60 0.76 -1.36 0
61 0.24 -1.36 0
62 0.24 -1.26 0
63 0.14 -1.26 0
64 0.14 -0.74 0
65 0.24 -0.74 0
66 0.24 -0.26 0
67 0.14 -0.26 0
68 0.14 0.26 0
69 0.24 0.26 0
70 0.24 0.74 0
71 0.14 0.74 0
72 0.14 1.26 0
73 0.24 1.26 0
74 0.24 1.36 0
75 0.76 1.36 0
76 0.76 1.26 0
77 0.86 1.26 0
78 0.86 0.74 0
79 0.76 0.74 0
80 0.76 0.26 0
81 0.86 0.26 0
82 0.86 -0.26 0
83 1.14 -0.26 0
84 1.14 0.26 0
85 1.24 0.26 0
86 1.24 0.36 0
87 1.76 0.36 0
88 1.76 0.26 0
89 1.86 0.26 0
90 1.86 -0.26 0
91 1.86 -0.74 0
92 1.86 -1.26 0
93 2.14 -1.26 0
94 2.14 -0.74 0
95 2.14 -0.26 0
96 2.14 0.26 0
97 2.24 0.26 0
98 2.24 0.74 0
99 2.14 0.74 0
100 2.14 1.26 0
101 1.86 1.26 0
102 1.86 0.74 0
103 1.76 0.74 0
104 1.76 0.64 0
105 1.24 0.64 0
106 1.24 0.74 0
107 1.14 0.74 0
108 1.14 1.26 0
109 1.24 1.26 0
110 1.24 1.74 0
111 0.76 1.74 0
112 0.76 1.64 0
113 0.24 1.64 0
114 0.24 1.74 0
115 -0.24 1.74 0
116 -0.24 1.26 0
117 -0.14 1.26 0
118 -0.14 0.74 0
119 -0.24 0.74 0
120 -0.24 0.64 0
121 -0.7600000000000002 0.64 0
122 -1.24 0.64 0
123 -1.76 0.64 0
124 -1.76 0.74 0
125 -1.86 0.74 0
126 -1.86 1.26 0
127 -1.76 1.26 0
128 -1.76 1.36 0
129 -1.24 1.36 0
130 -1.24 1.64 0
131 -1.76 1.64 0
132 -1.76 1.74 0
133 -2.24 1.74 0
134 -2.24 1.26 0
135 -2.14 1.26 0
136 -2.14 0.74 0
137 -2.24 0.74 0
138 -2.24 0.26 0
139 -1.76 0.26 0
140 -1.76 0.36 0
141 -1.24 0.36 0
142 -0.7600000000000002 0.36 0
143 -0.24 0.36 0
144 -0.24 0.26 0
145 -0.14 0.26 0
146 -0.14 -0.26 0
147 -0.24 -0.26 0
148 -0.24 -0.36 0
149 -0.7600000000000002 -0.36 0
150 -1.24 -0.36 0
151 -1.76 -0.36 0
152 -1.76 -0.26 0
153 -2.24 -0.26 0
154 -2.24 -0.74 0
155 -2.14 -0.74 0
156 -2.14 -1.26 0
157 -1 1.5 0
158 -1.08 -1.74 0
159 -0.9199999999999999 -1.74 0
160 -0.92 -1.26 0
161 -1.08 -1.26 0
162 0.92 -1.74 0
163 1.08 -1.74 0
164 1.08 -1.26 0
165 0.9199999999999999 -1.26 0
166 2.24 -1.58 0
167 2.24 -1.42 0
168 1.76 -1.42 0
169 1.76 -1.58 0
170 -1.08 -0.74 0
171 -0.9199999999999999 -0.74 0
172 -0.92 -0.26 0
173 -1.08 -0.26 0
174 1.24 -0.58 0
175 1.24 -0.4199999999999999 0
176 0.76 -0.42 0
177 0.76 -0.5800000000000001 0
178 2.24 -0.58 0
179 2.24 -0.4199999999999999 0
180 1.76 -0.42 0
181 1.76 -0.5800000000000001 0
182 -1.08 0.26 0
183 -0.9199999999999999 0.26 0
184 -0.92 0.74 0
185 -1.08 0.74 0
186 -1.08 1.26 0
187 -0.9199999999999999 1.26 0
188 -0.92 1.74 0
189 -1.08 1.74 0
190 2.24 1.42 0
191 2.24 1.58 0
192 1.76 1.58 0
193 1.76 1.42 0
194 -2.24 -1.42 0
195 -2.24 -1.58 0
196 -2.08 -1.74 0
197 -1.92 -1.74 0
198 -1.76 -1.58 0
199 -1.76 -1.42 0
200 -1.86 -1.086666666666667 0
201 -1.86 -0.9133333333333338 0
202 -1.586666666666667 -0.64 0
203 -1.413333333333334 -0.64 0
204 -0.5866666666666671 -0.64 0
205 -0.413333333333334 -0.64 0
206 -0.14 -0.913333333333333 0
207 -0.14 -1.086666666666666 0
208 -0.413333333333333 -1.36 0
209 -0.5866666666666662 -1.36 0
210 -1.24 -1.42 0
211 -1.24 -1.58 0
212 -0.586666666666667 -1.64 0
213 -0.4133333333333338 -1.64 0
214 -0.07999999999999996 -1.74 0
215 0.08000000000000007 -1.74 0
216 0.413333333333333 -1.64 0
217 0.5866666666666662 -1.64 0
218 1.24 -1.58 0
219 1.24 -1.42 0
220 0.586666666666667 -1.36 0
221 0.4133333333333338 -1.36 0
222 0.14 -1.086666666666667 0
223 0.14 -0.9133333333333338 0
224 0.24 -0.58 0
225 0.24 -0.4199999999999999 0
226 0.14 -0.086666666666667 0
227 0.14 0.08666666666666623 0
228 0.24 0.42 0
229 0.24 0.5800000000000001 0
230 0.14 0.913333333333333 0
231 0.14 1.086666666666666 0
232 0.413333333333333 1.36 0
233 0.5866666666666662 1.36 0
234 0.86 1.086666666666667 0
235 0.86 0.9133333333333338 0
236 0.76 0.58 0
237 0.76 0.4199999999999999 0
238 0.86 0.086666666666667 0
239 0.86 -0.08666666666666623 0
240 0.92 -0.74 0
241 1.08 -0.74 0
242 1.14 -0.086666666666667 0
243 1.14 0.08666666666666623 0
244 1.413333333333333 0.36 0
245 1.586666666666666 0.36 0
246 1.86 0.086666666666667 0
247 1.86 -0.08666666666666623 0
248 1.86 -0.913333333333333 0
249 1.86 -1.086666666666666 0
250 1.92 -1.74 0
251 2.08 -1.74 0
252 2.14 -1.086666666666667 0
253 2.14 -0.9133333333333338 0
254 2.14 -0.086666666666667 0
255 2.14 0.08666666666666623 0
256 2.24 0.42 0
257 2.24 0.5800000000000001 0
258 2.14 0.913333333333333 0
259 2.14 1.086666666666666 0
260 2.08 1.74 0
261 1.92 1.74 0
262 1.86 1.086666666666667 0
263 1.86 0.9133333333333338 0
264 1.586666666666667 0.64 0
265 1.413333333333334 0.64 0
266 1.14 0.913333333333333 0
267 1.14 1.086666666666666 0
268 1.24 1.42 0
269 1.24 1.58 0
270 1.08 1.74 0
271 0.9199999999999999 1.74 0
272 0.586666666666667 1.64 0
273 0.4133333333333338 1.64 0
274 0.07999999999999996 1.74 0
275 -0.08000000000000007 1.74 0
276 -0.24 1.58 0
277 -0.24 1.42 0
278 -0.14 1.086666666666667 0
279 -0.14 0.9133333333333338 0
280 -0.4133333333333331 0.64 0
281 -0.5866666666666662 0.64 0
282 -1.413333333333333 0.64 0
283 -1.586666666666666 0.64 0
284 -1.86 0.913333333333333 0
285 -1.86 1.086666666666666 0
286 -1.586666666666667 1.36 0
287 -1.413333333333334 1.36 0
288 -0.76 1.42 0
289 -0.76 1.58 0
290 -1.413333333333333 1.64 0
291 -1.586666666666666 1.64 0
292 -1.92 1.74 0
293 -2.08 1.74 0
294 -2.24 1.58 0
295 -2.24 1.42 0
296 -2.14 1.086666666666667 0
297 -2.14 0.9133333333333338 0
298 -2.24 0.58 0
299 -2.24 0.4199999999999999 0
300 -2.08 0.26 0
301 -1.92 0.26 0
302 -1.586666666666667 0.36 0
303 -1.413333333333334 0.36 0
304 -0.5866666666666671 0.36 0
305 -0.413333333333334 0.36 0
306 -0.14 0.086666666666667 0
307 -0.14 -0.08666666666666623 0
308 -0.4133333333333331 -0.36 0
309 -0.5866666666666662 -0.36 0
310 -1.413333333333333 -0.36 0
311 -1.586666666666666 -0.36 0
312 -1.92 -0.26 0
313 -2.08 -0.26 0
314 -2.24 -0.42 0
315 -2.24 -0.5800000000000001 0
316 -2.14 -0.913333333333333 0
317 -2.14 -1.086666666666666 0
318 2.10534276042992 0.4770598601912339 0
319 0.1053538911407692 0.4770390658262624 0
320 -0.02296093417373757 -1.605353891140769 0
321 0.8946592794089496 0.5229293455480422 0
322 0.1053475992357957 -0.5229547699609846 0
323 -2.109423026064894 -0.5107622751264342 0
324 2.119151477524733 -1.502651607600862 0
325 1.086287464672802 1.50189468155512 0
326 -1.989237724873566 0.3905769739351057 0
327 -2.118505762165523 -1.499953051564524 0
328 -2.001869062431328 1.585135866981034 0
329 2.11947945166979 -0.5002267539452179 0
330 -1.093706355896263 -1.49958171593 0
331 1.002651607600863 -1.380848522475265 0
332 -1.000643902693104 -0.6192874017888108 0
333 -1.00083276264555 0.6193989363154815 0
334 2.118740352306392 1.500068032513183 0
335 -0.1094230260648947 1.489237724873566 0
336 1.122455554028932 -0.5007837716303228 0
337 1.018134803394457 -0.1621576515286796 0
338 1.017870642070046 -0.3032972193719976 0
339 -1.981865196605542 -1.162157651528681 0
340 -1.982129357929955 -1.303297219372 0
341 -2.018287307657489 -0.8422386025522539 0
342 -2.025820912620016 -0.7096705672136145 0
343 1.019536219975068 0.8393985660694421 0
344 1.026051043098271 0.7057859776548336 0
345 0.9817126923425117 1.157761397447744 0
346 0.9807145437983578 1.300690521460552 0
347 0.9817126923425117 0.1577613974477448 0
348 0.9724150920773273 0.2907347022862332 0
349 -1.980560047011968 0.8393523376725089 0
350 -1.974515985300773 0.7055110509682745 0
351 1.339668928986236 0.4803845061876819 0
352 1.207378836772417 0.4734882919708414 0
353 1.657761397447747 0.5182873076574879 0
354 1.791415768092993 0.5264274356358047 0
355 2.018287307657489 -1.157761397447748 0
356 2.017786369676682 -1.30209182423741 0
357 -1.657761397447747 0.4817126923425106 0
358 -1.790329432786387 0.4741790873799827 0
359 0.01984468701344255 -0.160105904651332 0
360 0.0278559230388109 -0.2911509704377142 0
361 2.018287307657489 -0.1577613974477474 0
362 2.021253026927711 -0.3005294694980789 0
363 -2.018287307657489 1.157761397447746 0
364 -2.026483185115592 1.292006826976135 0
365 -1.342238602552255 1.518287307657489 0
366 -1.196072864654699 1.521395879184013 0
367 -0.6621576515286818 -0.5181348033944582 0
368 -0.8032972193719998 -0.5178706420700454 0
369 -0.3422386025522537 -0.4817126923425108 0
370 -0.208584231907007 -0.4735725643641964 0
371 -0.01828730765748898 -0.8422386025522532 0
372 -0.02584320778978277 -0.7062825519778929 0
373 -0.01828730765748832 0.157761397447747 0
374 -0.02584314683000533 0.2937174522839685 0
375 0.01984553070929751 0.8398940744102217 0
376 0.02786098522025915 0.7088489039364445 0
377 2.019844662849566 0.8398941702311857 0
378 2.027855778055544 0.7088494788573438 0
379 -0.3396689289862369 0.5196154938123172 0
380 -0.2073788367724165 0.526511708029159 0
381 -0.6577613974477468 0.4817126923425108 0
382 -0.8005294694980782 0.4787469730722824 0
383 -1.660647662327492 -0.519439952988032 0
384 -1.794488949031726 -0.5254840146992272 0
385 -1.342238602552254 -0.481712692342511 0
386 -1.197908175762591 -0.4822136303233104 0
387 0.0196154938123172 -1.160331071013763 0
388 0.0265117080291577 -1.292621163227582 0
389 -0.6600673313400343 -1.520003936845577 0
390 -0.7910229701883498 -1.528844199925455 0
391 0.6577613974477461 -1.481712692342511 0
392 0.8020918242374084 -1.482213630323312 0
393 -0.01828730765748832 1.157761397447747 0
394 -0.0258209126200164 1.290329432786385 0
395 0.6577613974477452 1.518287307657488 0
396 0.7920125796541417 1.526481771718482 0
397 -1.337842348471319 0.5181348033944579 0
398 -1.196702780628 0.5178706420700454 0
399 -0.3422386025522539 -1.481712692342511 0
400 -0.2062825477160317 -1.474156853169995 0
401 0.3398940744102212 -1.519845530709298 0
402 0.2088489039364441 -1.527860985220259 0
403 0.3393523376725094 1.480560047011968 0
404 0.2055110509682758 1.474515985300774 0
405 1.98171269234251 1.157761397447746 0
406 1.98221363032331 1.302091824237408 0
407 1.980463777993091 0.1606013169591434 0
408 1.973948944710695 0.2942133205166777 0
409 1.981865196605542 -0.8378423484713192 0
410 1.982129357929955 -0.6967027806280017 0
411 -1.661917428195505 1.481608210344122 0
412 -1.801895916595144 1.480630271405003 0
413 0.1014741368897156 -1.369730912639568 0
414 -0.005558387181932689 -1.409185622885612 0
415 1.130269087360431 0.3985258631102844 0
416 1.090814411423939 0.5055578964332224 0
417 -0.1302690873604309 0.6014741368897165 0
418 -0.09081437711438722 0.4944416128180693 0
419 -0.1304125867812158 -0.3985358955380633 0
420 -0.09095340277418118 -0.5055681068371315 0
421 1.869587413218788 0.6014641044619342 0
422 1.909046579238289 0.4944321504486009 0
423 0.1328613926544073 1.395146340197456 0
424 0.09203854911363951 1.4955778974395 0
425 -1.895146340197453 0.6328613926544069 0
426 -1.9955778974395 0.5920385491136395 0
427 -1.867138607345593 -0.6048536598025485 0
428 -1.907961450886361 -0.5044221025605009 0
429 0.8945035466762286 1.367400126670075 0
430 -1.867473340660272 1.394498428090625 0
431 1.893304609934972 0.3658738337263467 0
432 -0.1066777214425494 0.3658529140596629 0
433 -0.1066863718830615 -0.6341476907157384 0
434 1.106686742448456 0.6341255211058114 0
435 -0.1341470859403375 -1.39332227855745 0
436 -1.000226753945219 0.3805205483302061 0
437 -1.877544445971068 -1.500783771630324 0
438 1.000068032513184 -1.618740352306395 0
439 1.880601063684513 -0.50083276264555 0
440 -1.000397622168282 -0.3808333517858569 0
441 0.8814942378344774 -0.4999530515645239 0
442 1.881259647693601 -1.500068032513183 0
443 1.880848522475264 1.502651607600863 0
444 0.8579773661895094 1.627709305750818 0
445 0.9175926657623514 1.496217038035017 0
446 0.9982589517236051 1.623557024751827 0
447 0.9971508271945857 1.404116967803064 0
448 -2.127710315317764 1.357943372409188 0
449 -1.996224508850347 1.417592143457699 0
450 -2.123554197941001 1.498061264021511 0
451 -1.904395867394933 1.496900650820576 0
452 -0.8581340849138435 -1.627579532235546 0
453 -0.9179632778507856 -1.49398879450415 0
454 -0.09328862602628352 -1.491418430862793 0
455 -0.008581569137208422 0.4067113739737174 0
456 1.991418430862796 0.4067113739737138 0
457 -0.008581569137205314 -0.5932886260262848 0
458 1.008581569137203 0.5932886260262866 0
459 2.126501028133333 0.6392486693165722 0
460 2.005812634306632 0.5895736133164284 0
461 0.1265018497052011 -0.3607538766887477 0
462 0.005812634306614495 -0.4104263866835618 0
463 0.1265045851112743 0.6392435971798571 0
464 0.005812634306617603 0.5895736133164369 0
465 0.8735474721223446 0.3606744077294537 0
466 0.9941873656933802 0.4104263866835656 0
467 0.1392435971798567 -1.626504585111274 0
468 0.08957361331643687 -1.505812634306616 0
469 -0.9998182614462663 -1.622644198992996 0
470 -1.126807587794171 1.628924245387048 0
471 -1.126831203088319 1.409152899739386 0
472 -2.12582803790579 -0.6437644730997281 0
473 -1.993953300925986 -0.5914343847446256 0
474 -1.856235526900272 0.3741719620942101 0
475 -1.908565615255376 0.5060466990740129 0
476 -0.1258280379057894 1.356235526900272 0
477 0.00604669907401334 1.408565615255376 0
478 1.127297315356806 -0.3607662901620916 0
479 2.126608475446363 -1.359845824851546 0
480 2.127432351704973 -0.3617168691676049 0
481 -1.139247165393901 -0.3732821539644964 0
482 -1.140650904166723 0.6255280408549408 0
483 -1.872702684643194 -1.360766290162092 0
484 -0.8593490958332772 -0.6255280408549404 0
485 -0.8617168691676054 0.3725676482950231 0
486 0.8598458248515466 -1.373391524553633 0
487 1.874471959145059 -0.6406509041667237 0
488 1.873391524553632 1.359845824851547 0
489 -1.002223426697232 -1.376834956768145 0
490 -0.8673835024995431 -1.368850111886295 0
491 -1.854516508437576 1.60664654416852 0
492 1.106655915063187 1.354382471294561 0
493 0.0002486033687043587 0.99943152331742 0
494 0.0002486033687048028 -0.0005684766825797549 0
495 0.4995189558533748 1.49980789244491 0
496 2.000025417377171 -0.9992672909865112 0
497 -1.500692671791293 1.499982586333601 0
498 1.499550717931602 0.4997823408291258 0
499 -1.99980789244491 0.9995189558533761 0
500 1.000202681078268 0.9995213995484109 0
501 0.0002176591708735742 -1.000449282068397 0
502 0.9999745826228277 -0.0007327090134892078 0
503 1.999797318921731 0.0004786004515877629 0
504 2.000248603368704 0.99943152331742 0
505 0.49943152331742 -1.500248603368704 0
506 -0.5004650371260757 -1.500215825716232 0
507 -0.4995507179316034 0.5002176591708731 0
508 -2.000025417377172 -1.000732709013489 0
509 -1.499267290986511 0.4999745826228275 0
510 -1.500481044146625 -0.5001921075550906 0
511 -0.5007327090134894 -0.4999745826228281 0
512 0.07087992269784538 0.3373919584020524 0
513 -0.1626080415979481 -1.570879922697846 0
514 0.07087926904351383 -0.6626080872966681 0
515 2.070843696469834 0.3374808010923558 0
516 0.9291565588026729 0.66251652536284 0
517 -1.834830324067409 -0.4296925973938799 0
518 -1.954397530307004 -0.3872444956899268 0
519 -2.070307402606121 0.6651696759325918 0
520 -2.112755504310075 0.5456024696929975 0
521 0.1651696759325927 1.570307402606121 0
522 0.04560246969299753 1.612755504310075 0
523 1.003457696041862 -0.4205167499702287 0
524 0.9143315172710134 -1.497286994523222 0
525 -1.072142538655771 0.5039062016057674 0
526 1.996093798394231 -0.5721425386557715 0
527 -1.99654230395814 -1.420516749970228 0
528 -1.070626293735891 -0.4955794030009826 0
529 -0.9295449915623359 0.4961383683676506 0
530 1.99728699452322 1.414331517271014 0
531 -0.9301309906686359 -0.503904857737931 0
532 2.003861631632337 -0.4295449915623331 0
533 2.002713005476764 -1.414331517271006 0
534 1.999800068597348 1.602121436462451 0
535 -1.999708204896259 -1.59973307197844 0
536 1.00029179510374 -0.5997330719784391 0
537 2.000199931402651 -1.602121436462451 0
538 1.102121436462452 -1.499800068597349 0
539 0.8554416038640151 -1.61113295449871 0
540 1.888867045501281 -1.355441603864016 0
541 1.889428531689928 -0.3566218525782354 0
542 -2.111097546467549 -1.355781969767284 0
543 -1.143757035920822 -0.6107121091390099 0
544 -1.143485241676851 0.3892928683112222 0
545 2.111132954498705 1.355441603864014 0
546 0.8889024535324537 -0.3557819697672824 0
547 -0.8542257445527019 -0.3899633067554469 0
548 -0.8566218525782336 0.6105714683100585 0
549 2.110707131688778 -0.6434852416768519 0
550 0.1799647861673934 -1.424039565522845 0
551 -0.07596043447715517 0.679964786167393 0
552 -0.07598722846614381 -0.3200370071491965 0
553 1.076006617979605 0.319963374403379 0
554 1.924012747369981 0.6799630677333122 0
555 1.264417352546731 0.5490364043261251 0
556 1.176710465025267 0.5733450564292255 0
557 1.735582647453267 0.4509635956738725 0
558 1.823188305741307 0.4266478544254855 0
559 -0.2644173525467322 -0.5490364043261253 0
560 -0.1768113022271813 -0.5733530905682587 0
561 -0.2644173525467324 0.4509635956738742 0
562 -0.1767100721631134 0.426653986695896 0
563 -0.04903640432612599 -1.235582647453265 0
564 -0.07334601330410484 -1.323289927836885 0
565 -1.735582647453267 -0.4509635956738742 0
566 -1.950963595673873 1.235582647453265 0
567 -1.925713383196201 1.32316140109021 0
568 0.7355826474532594 1.450963595673874 0
569 0.8231614010902089 1.425713383196193 0
570 -2.049036404326126 0.7644173525467353 0
571 0.264417352546741 1.549036404326126 0
572 -0.7355826474532658 -1.450963595673874 0
573 0.04903640432612599 0.2355826474532674 0
574 -0.2644173525467326 -1.549036404326125 0
575 0.04903640432612555 -0.7644173525467334 0
576 -0.04903640432612666 0.764417352546737 0
577 0.264417352546737 -1.450963595673874 0
578 -0.04903640432612644 -0.2355826474532641 0
579 1.950963595673871 0.7644173525467424 0
580 0.9509635956738731 0.7644173525467424 0
581 2.049036404326125 0.2355826474532638 0
582 1.049036404326127 0.2355826474532572 0
583 0.04903640432612599 1.235582647453266 0
584 0.07533744033542078 1.322612153971657 0
585 -1.735582647453267 0.549036404326126 0
586 -1.822612153971658 0.5753374403354186 0
587 -1.950963595673874 -0.7644173525467339 0
588 -1.924662559664579 -0.6773878460283443 0
589 -1.735582647453257 1.549036404326128 0
590 1.049036404326126 1.235582647453257 0
591 1.950963595673879 -0.235582647453273 0
592 2.049036404326126 -0.7644173525467354 0
593 2.049036404326125 1.235582647453264 0
594 -1.264417352546733 0.4509635956738742 0
595 1.950963595673878 -1.235582647453273 0
596 0.7355826474532674 -1.549036404326125 0
597 -0.7355826474532667 0.5490364043261255 0
598 -1.264417352546733 -0.5490364043261258 0
599 -0.7355826474532667 -0.4509635956738742 0
600 0.9509635956738722 -0.235582647453257 0
601 -2.049036404326126 -1.235582647453266 0
602 -1.26441735254674 1.450963595673874 0
603 1.127696213716972 1.635521123170009 0
604 -2.135521301046566 1.627696201281147 0
605 -1.000195043087532 1.633268318970823 0
606 -0.104463425002058 1.612361627691807 0
607 -2.112361627691808 0.3955365749979425 0
608 -2.104463425002058 -0.3876383723081933 0
609 -1.00080265798393 1.361266997314143 0
610 -1.127646600830457 -1.372353399169542 0
611 -1.129105850016705 -1.634715151288278 0
612 0.165332950198116 -0.648755522248684 0
613 -0.1487555222486838 -1.665332950198115 0
614 2.165331516994146 0.3512649776685712 0
615 0.1653329501981169 0.3512444777513148 0
616 0.8346684830058515 0.6487350223314308 0
617 1.123686517671189 -0.6236865176711857 0
618 1.876313482328812 -1.623686517671191 0
619 2.123686517671189 1.62368651767119 0
620 -2.123686517671191 -1.623686517671191 0
621 1.123686517671193 -1.376313482328808 0
622 1.87631348232881 1.623686517671191 0
623 -1.876313482328809 -1.623686517671191 0
624 1.123686517671193 -1.623686517671191 0
625 2.123686517671192 -1.623686517671189 0
626 0.8763134823288077 -0.6236865176711919 0
627 0.002835659770128895 -0.5078056607439294 0
628 0.9971327865101429 0.5077937962507644 0
629 -0.007852267878707853 -1.502882996101562 0
630 0.002882996101562618 0.4921477321212928 0
631 2.002834776672616 0.4921994461622319 0
632 -0.8771820868313296 1.37718208683133 0
633 -0.855645511508591 1.500000000000002 0
634 -2.160612581383239 0.6541544291251182 0
635 0.1541544291251178 1.660612581383238 0
636 -1.845845570874883 -0.3393874186167616 0
637 -0.8763164621447737 1.623683537855228 0
638 1.170131758420369 0.3245106468869334 0
639 0.1754747103150263 -1.329869265296751 0
640 -0.170142937034947 -0.3245261427825743 0
641 -0.1701307347032479 0.6754747103150263 0
642 1.829857062965054 0.6754738572174261 0
643 -0.8143904795983887 -1.440529340397955 0
644 0.1708835561735271 1.325261066325253 0
645 -1.825261066325252 0.6708835561735285 0
646 -1.82911644382647 -0.6747389336747505 0
647 -0.002959993640447856 1.512176536967204 0
648 -2.012176536967205 0.4970400063595535 0
649 -2.002959993640445 -0.4878234630327976 0
650 0.8252886181858363 1.329216594138559 0
651 -1.829220405779027 1.32528835170387 0
652 1.17483458363935 0.6708336107624939 0
653 -0.1748375677334757 -0.6708338193884853 0
654 -0.1748345836393506 0.3291663892375061 0
655 -0.170833610762495 -1.325165416360648 0
656 1.825162432266525 0.329166180611512 0
$EndNodes
$Elements
1310
1 1 2 1 5 1 158
2 1 2 1 5 158 159
3 1 2 1 5 159 2
4 1 2 1 7 3 160
5 1 2 1 7 160 161
6 1 2 1 7 161 4
7 1 2 1 13 5 162
8 1 2 1 13 162 163
9 1 2 1 13 163 6
10 1 2 1 15 7 164
11 1 2 1 15 164 165
12 1 2 1 15 165 8
13 1 2 1 18 10 166
14 1 2 1 18 166 167
15 1 2 1 18 167 11
16 1 2 1 20 12 168
17 1 2 1 20 168 169
18 1 2 1 20 169 9
19 1 2 1 25 13 170
20 1 2 1 25 170 171
21 1 2 1 25 171 14
22 1 2 1 27 15 172
23 1 2 1 27 172 173
24 1 2 1 27 173 16
25 1 2 1 34 18 174
26 1 2 1 34 174 175
27 1 2 1 34 175 19
28 1 2 1 36 20 176
29 1 2 1 36 176 177
30 1 2 1 36 177 17
31 1 2 1 38 22 178
32 1 2 1 38 178 179
33 1 2 1 38 179 23
34 1 2 1 40 24 180
35 1 2 1 40 180 181
36 1 2 1 40 181 21
37 1 2 1 45 25 182
38 1 2 1 45 182 183
39 1 2 1 45 183 26
40 1 2 1 47 27 184
41 1 2 1 47 184 185
42 1 2 1 47 185 28
43 1 2 1 65 29 186
44 1 2 1 65 186 187
45 1 2 1 65 187 30
46 1 2 1 67 31 188
47 1 2 1 67 188 189
48 1 2 1 67 189 32
49 1 2 1 78 34 190
50 1 2 1 78 190 191
51 1 2 1 78 191 35
52 1 2 1 80 36 192
53 1 2 1 80 192 193
54 1 2 1 80 193 33
55 1 2 1 81 37 194
56 1 2 1 81 194 195
57 1 2 1 81 195 38
58 1 2 1 82 38 196
59 1 2 1 82 196 197
60 1 2 1 82 197 39
61 1 2 1 83 39 198
62 1 2 1 83 198 199
63 1 2 1 83 199 40
64 1 2 1 84 40 41
65 1 2 1 85 41 200
66 1 2 1 85 200 201
67 1 2 1 85 201 42
68 1 2 1 86 42 43
69 1 2 1 87 43 44
70 1 2 1 88 44 202
71 1 2 1 88 202 203
72 1 2 1 88 203 45
73 1 2 1 89 45 13
74 1 2 1 90 14 46
75 1 2 1 91 46 204
76 1 2 1 91 204 205
77 1 2 1 91 205 47
78 1 2 1 92 47 48
79 1 2 1 93 48 49
80 1 2 1 94 49 206
81 1 2 1 94 206 207
82 1 2 1 94 207 50
83 1 2 1 95 50 51
84 1 2 1 96 51 52
85 1 2 1 97 52 208
86 1 2 1 97 208 209
87 1 2 1 97 209 53
88 1 2 1 98 53 3
89 1 2 1 99 4 210
90 1 2 1 99 210 211
91 1 2 1 99 211 1
92 1 2 1 100 2 54
93 1 2 1 101 54 212
94 1 2 1 101 212 213
95 1 2 1 101 213 55
96 1 2 1 102 55 56
97 1 2 1 103 56 214
98 1 2 1 103 214 215
99 1 2 1 103 215 57
100 1 2 1 104 57 58
101 1 2 1 105 58 216
102 1 2 1 105 216 217
103 1 2 1 105 217 59
104 1 2 1 106 59 5
105 1 2 1 107 6 218
106 1 2 1 107 218 219
107 1 2 1 107 219 7
108 1 2 1 108 8 60
109 1 2 1 109 60 220
110 1 2 1 109 220 221
111 1 2 1 109 221 61
112 1 2 1 110 61 62
113 1 2 1 111 62 63
114 1 2 1 112 63 222
115 1 2 1 112 222 223
116 1 2 1 112 223 64
117 1 2 1 113 64 65
118 1 2 1 114 65 224
119 1 2 1 114 224 225
120 1 2 1 114 225 66
121 1 2 1 115 66 67
122 1 2 1 116 67 226
123 1 2 1 116 226 227
124 1 2 1 116 227 68
125 1 2 1 117 68 69
126 1 2 1 118 69 228
127 1 2 1 118 228 229
128 1 2 1 118 229 70
129 1 2 1 119 70 71
130 1 2 1 120 71 230
131 1 2 1 120 230 231
132 1 2 1 120 231 72
133 1 2 1 121 72 73
134 1 2 1 122 73 74
135 1 2 1 123 74 232
136 1 2 1 123 232 233
137 1 2 1 123 233 75
138 1 2 1 124 75 76
139 1 2 1 125 76 77
140 1 2 1 126 77 234
141 1 2 1 126 234 235
142 1 2 1 126 235 78
143 1 2 1 127 78 79
144 1 2 1 128 79 236
145 1 2 1 128 236 237
146 1 2 1 128 237 80
147 1 2 1 129 80 81
148 1 2 1 130 81 238
149 1 2 1 130 238 239
150 1 2 1 130 239 82
151 1 2 1 131 82 20
152 1 2 1 132 17 240
153 1 2 1 132 240 241
154 1 2 1 132 241 18
155 1 2 1 133 19 83
156 1 2 1 134 83 242
157 1 2 1 134 242 243
158 1 2 1 134 243 84
159 1 2 1 135 84 85
160 1 2 1 136 85 86
161 1 2 1 137 86 244
162 1 2 1 137 244 245
163 1 2 1 137 245 87
164 1 2 1 138 87 88
165 1 2 1 139 88 89
166 1 2 1 140 89 246
167 1 2 1 140 246 247
168 1 2 1 140 247 90
169 1 2 1 141 90 24
170 1 2 1 142 21 91
171 1 2 1 143 91 248
172 1 2 1 143 248 249
173 1 2 1 143 249 92
174 1 2 1 144 92 12
175 1 2 1 145 9 250
176 1 2 1 145 250 251
177 1 2 1 145 251 10
178 1 2 1 146 11 93
179 1 2 1 147 93 252
180 1 2 1 147 252 253
181 1 2 1 147 253 94
182 1 2 1 148 94 22
183 1 2 1 149 23 95
184 1 2 1 150 95 254
185 1 2 1 150 254 255
186 1 2 1 150 255 96
187 1 2 1 151 96 97
188 1 2 1 152 97 256
189 1 2 1 152 256 257
190 1 2 1 152 257 98
191 1 2 1 153 98 99
192 1 2 1 154 99 258
193 1 2 1 154 258 259
194 1 2 1 154 259 100
195 1 2 1 155 100 34
196 1 2 1 156 35 260
197 1 2 1 156 260 261
198 1 2 1 156 261 36
199 1 2 1 157 33 101
200 1 2 1 158 101 262
201 1 2 1 158 262 263
202 1 2 1 158 263 102
203 1 2 1 159 102 103
204 1 2 1 160 103 104
205 1 2 1 161 104 264
206 1 2 1 161 264 265
207 1 2 1 161 265 105
208 1 2 1 162 105 106
209 1 2 1 163 106 107
210 1 2 1 164 107 266
211 1 2 1 164 266 267
212 1 2 1 164 267 108
213 1 2 1 165 108 109
214 1 2 1 166 109 268
215 1 2 1 166 268 269
216 1 2 1 166 269 110
217 1 2 1 167 110 270
218 1 2 1 167 270 271
219 1 2 1 167 271 111
220 1 2 1 168 111 112
221 1 2 1 169 112 272
222 1 2 1 169 272 273
223 1 2 1 169 273 113
224 1 2 1 170 113 114
225 1 2 1 171 114 274
226 1 2 1 171 274 275
227 1 2 1 171 275 115
228 1 2 1 172 115 276
229 1 2 1 172 276 277
230 1 2 1 172 277 116
231 1 2 1 173 116 117
232 1 2 1 174 117 278
233 1 2 1 174 278 279
234 1 2 1 174 279 118
235 1 2 1 175 118 119
236 1 2 1 176 119 120
237 1 2 1 177 120 280
238 1 2 1 177 280 281
239 1 2 1 177 281 121
240 1 2 1 178 121 27
241 1 2 1 179 28 122
242 1 2 1 180 122 282
243 1 2 1 180 282 283
244 1 2 1 180 283 123
245 1 2 1 181 123 124
246 1 2 1 182 124 125
247 1 2 1 183 125 284
248 1 2 1 183 284 285
249 1 2 1 183 285 126
250 1 2 1 184 126 127
251 1 2 1 185 127 128
252 1 2 1 186 128 286
253 1 2 1 186 286 287
254 1 2 1 186 287 129
255 1 2 1 187 129 29
256 1 2 1 188 30 288
257 1 2 1 188 288 289
258 1 2 1 188 289 31
259 1 2 1 189 32 130
260 1 2 1 190 130 290
261 1 2 1 190 290 291
262 1 2 1 190 291 131
263 1 2 1 191 131 132
264 1 2 1 192 132 292
265 1 2 1 192 292 293
266 1 2 1 192 293 133
267 1 2 1 193 133 294
268 1 2 1 193 294 295
269 1 2 1 193 295 134
270 1 2 1 194 134 135
271 1 2 1 195 135 296
272 1 2 1 195 296 297
273 1 2 1 195 297 136
274 1 2 1 196 136 137
275 1 2 1 197 137 298
276 1 2 1 197 298 299
277 1 2 1 197 299 138
278 1 2 1 198 138 300
279 1 2 1 198 300 301
280 1 2 1 198 301 139
281 1 2 1 199 139 140
282 1 2 1 200 140 302
283 1 2 1 200 302 303
284 1 2 1 200 303 141
285 1 2 1 201 141 25
286 1 2 1 202 26 142
287 1 2 1 203 142 304
288 1 2 1 203 304 305
289 1 2 1 203 305 143
290 1 2 1 204 143 144
291 1 2 1 205 144 145
292 1 2 1 206 145 306
293 1 2 1 206 306 307
294 1 2 1 206 307 146
295 1 2 1 207 146 147
296 1 2 1 208 147 148
297 1 2 1 209 148 308
298 1 2 1 209 308 309
299 1 2 1 209 309 149
300 1 2 1 210 149 15
301 1 2 1 211 16 150
302 1 2 1 212 150 310
303 1 2 1 212 310 311
304 1 2 1 212 311 151
305 1 2 1 213 151 152
306 1 2 1 214 152 312
307 1 2 1 214 312 313
308 1 2 1 214 313 153
309 1 2 1 215 153 314
310 1 2 1 215 314 315
311 1 2 1 215 315 154
312 1 2 1 216 154 155
313 1 2 1 217 155 316
314 1 2 1 217 316 317
315 1 2 1 217 317 156
316 1 2 1 218 156 37
317 2 2 1 1 184 548 27
318 2 2 1 1 176 546 20
319 2 2 1 1 182 544 25
320 2 2 1 1 170 543 13
321 2 2 1 1 190 545 34
322 2 2 1 1 172 547 15
323 2 2 1 1 194 542 37
324 2 2 1 1 178 549 22
325 2 2 1 1 162 539 5
326 2 2 1 1 180 541 24
327 2 2 1 1 168 540 12
328 2 2 1 1 111 444 271
329 2 2 1 1 134 448 295
330 2 2 1 1 2 452 159
331 2 2 1 1 105 555 265
332 2 2 1 1 47 559 205
333 2 2 1 1 143 561 305
334 2 2 1 1 87 557 245
335 2 2 1 1 50 563 207
336 2 2 1 1 151 565 311
337 2 2 1 1 136 570 297
338 2 2 1 1 126 566 285
339 2 2 1 1 75 568 233
340 2 2 1 1 113 571 273
341 2 2 1 1 53 572 209
342 2 2 1 1 55 574 213
343 2 2 1 1 68 573 227
344 2 2 1 1 64 575 223
345 2 2 1 1 96 581 255
346 2 2 1 1 146 578 307
347 2 2 1 1 61 577 221
348 2 2 1 1 118 576 279
349 2 2 1 1 78 580 235
350 2 2 1 1 84 582 243
351 2 2 1 1 102 579 263
352 2 2 1 1 186 471 129
353 2 2 1 1 123 585 283
354 2 2 1 1 42 587 201
355 2 2 1 1 72 583 231
356 2 2 1 1 108 590 267
357 2 2 1 1 131 589 291
358 2 2 1 1 90 591 247
359 2 2 1 1 92 595 249
360 2 2 1 1 45 598 203
361 2 2 1 1 59 596 217
362 2 2 1 1 141 594 303
363 2 2 1 1 121 597 281
364 2 2 1 1 149 599 309
365 2 2 1 1 156 601 317
366 2 2 1 1 100 593 259
367 2 2 1 1 94 592 253
368 2 2 1 1 82 600 239
369 2 2 1 1 449 451 328
370 2 2 1 1 445 447 325
371 2 2 1 1 129 602 287
372 2 2 1 1 412 589 491
373 2 2 1 1 346 590 492
374 2 2 1 1 356 595 540
375 2 2 1 1 362 591 541
376 2 2 1 1 392 596 539
377 2 2 1 1 340 601 542
378 2 2 1 1 410 592 549
379 2 2 1 1 386 598 543
380 2 2 1 1 338 600 546
381 2 2 1 1 406 593 545
382 2 2 1 1 368 599 547
383 2 2 1 1 398 594 544
384 2 2 1 1 382 597 548
385 2 2 1 1 541 591 90
386 2 2 1 1 540 595 92
387 2 2 1 1 539 596 59
388 2 2 1 1 546 600 82
389 2 2 1 1 549 592 94
390 2 2 1 1 543 598 45
391 2 2 1 1 545 593 100
392 2 2 1 1 542 601 156
393 2 2 1 1 547 599 149
394 2 2 1 1 544 594 141
395 2 2 1 1 548 597 121
396 2 2 1 1 491 589 131
397 2 2 1 1 492 590 108
398 2 2 1 1 387 388 63
399 2 2 1 1 351 352 86
400 2 2 1 1 379 380 120
401 2 2 1 1 369 370 148
402 2 2 1 1 353 354 104
403 2 2 1 1 32 470 189
404 2 2 1 1 403 404 74
405 2 2 1 1 349 350 125
406 2 2 1 1 363 364 135
407 2 2 1 1 383 384 44
408 2 2 1 1 395 396 112
409 2 2 1 1 389 390 54
410 2 2 1 1 375 376 71
411 2 2 1 1 359 360 67
412 2 2 1 1 347 348 81
413 2 2 1 1 343 344 107
414 2 2 1 1 377 378 99
415 2 2 1 1 401 402 58
416 2 2 1 1 407 408 89
417 2 2 1 1 371 372 49
418 2 2 1 1 373 374 145
419 2 2 1 1 399 400 52
420 2 2 1 1 460 554 421
421 2 2 1 1 466 553 415
422 2 2 1 1 464 551 417
423 2 2 1 1 468 550 413
424 2 2 1 1 462 552 419
425 2 2 1 1 345 346 77
426 2 2 1 1 411 412 128
427 2 2 1 1 393 394 117
428 2 2 1 1 357 358 140
429 2 2 1 1 341 342 155
430 2 2 1 1 409 410 91
431 2 2 1 1 337 338 83
432 2 2 1 1 405 406 101
433 2 2 1 1 339 340 41
434 2 2 1 1 391 392 60
435 2 2 1 1 381 382 142
436 2 2 1 1 385 386 150
437 2 2 1 1 367 368 46
438 2 2 1 1 397 398 122
439 2 2 1 1 355 356 93
440 2 2 1 1 361 362 95
441 2 2 1 1 328 450 449
442 2 2 1 1 325 446 445
443 2 2 1 1 369 511 205
444 2 2 1 1 385 510 203
445 2 2 1 1 391 505 217
446 2 2 1 1 357 509 283
447 2 2 1 1 399 506 213
448 2 2 1 1 341 508 201
449 2 2 1 1 381 507 281
450 2 2 1 1 395 495 233
451 2 2 1 1 365 497 287
452 2 2 1 1 347 502 243
453 2 2 1 1 361 503 247
454 2 2 1 1 345 500 267
455 2 2 1 1 371 501 223
456 2 2 1 1 363 499 285
457 2 2 1 1 405 504 259
458 2 2 1 1 373 494 227
459 2 2 1 1 355 496 249
460 2 2 1 1 353 498 245
461 2 2 1 1 393 493 231
462 2 2 1 1 202 383 44
463 2 2 1 1 302 357 140
464 2 2 1 1 310 385 150
465 2 2 1 1 220 391 60
466 2 2 1 1 264 353 104
467 2 2 1 1 278 393 117
468 2 2 1 1 282 397 122
469 2 2 1 1 316 341 155
470 2 2 1 1 272 395 112
471 2 2 1 1 208 399 52
472 2 2 1 1 308 369 148
473 2 2 1 1 204 367 46
474 2 2 1 1 234 345 77
475 2 2 1 1 304 381 142
476 2 2 1 1 212 389 54
477 2 2 1 1 280 379 120
478 2 2 1 1 286 411 128
479 2 2 1 1 206 371 49
480 2 2 1 1 222 387 63
481 2 2 1 1 290 365 130
482 2 2 1 1 242 337 83
483 2 2 1 1 266 343 107
484 2 2 1 1 284 349 125
485 2 2 1 1 306 373 145
486 2 2 1 1 216 401 58
487 2 2 1 1 238 347 81
488 2 2 1 1 244 351 86
489 2 2 1 1 296 363 135
490 2 2 1 1 246 407 89
491 2 2 1 1 200 339 41
492 2 2 1 1 232 403 74
493 2 2 1 1 248 409 91
494 2 2 1 1 254 361 95
495 2 2 1 1 226 359 67
496 2 2 1 1 258 377 99
497 2 2 1 1 262 405 101
498 2 2 1 1 230 375 71
499 2 2 1 1 252 355 93
500 2 2 1 1 431 456 422
501 2 2 1 1 433 457 420
502 2 2 1 1 432 455 418
503 2 2 1 1 434 458 416
504 2 2 1 1 435 454 414
505 2 2 1 1 157 470 366
506 2 2 1 1 516 616 321
507 2 2 1 1 514 612 322
508 2 2 1 1 512 615 319
509 2 2 1 1 513 613 320
510 2 2 1 1 515 614 318
511 2 2 1 1 300 607 138
512 2 2 1 1 276 606 115
513 2 2 1 1 314 608 153
514 2 2 1 1 365 366 130
515 2 2 1 1 205 559 369
516 2 2 1 1 305 561 379
517 2 2 1 1 265 555 351
518 2 2 1 1 245 557 353
519 2 2 1 1 207 563 387
520 2 2 1 1 453 489 330
521 2 2 1 1 311 565 383
522 2 2 1 1 297 570 349
523 2 2 1 1 285 566 363
524 2 2 1 1 233 568 395
525 2 2 1 1 273 571 403
526 2 2 1 1 209 572 389
527 2 2 1 1 213 574 399
528 2 2 1 1 227 573 373
529 2 2 1 1 223 575 371
530 2 2 1 1 307 578 359
531 2 2 1 1 221 577 401
532 2 2 1 1 255 581 407
533 2 2 1 1 279 576 375
534 2 2 1 1 235 580 343
535 2 2 1 1 263 579 377
536 2 2 1 1 243 582 347
537 2 2 1 1 422 460 421
538 2 2 1 1 416 466 415
539 2 2 1 1 414 468 413
540 2 2 1 1 418 464 417
541 2 2 1 1 420 462 419
542 2 2 1 1 283 585 357
543 2 2 1 1 201 587 341
544 2 2 1 1 231 583 393
545 2 2 1 1 267 590 345
546 2 2 1 1 291 589 411
547 2 2 1 1 249 595 355
548 2 2 1 1 247 591 361
549 2 2 1 1 217 596 391
550 2 2 1 1 203 598 385
551 2 2 1 1 281 597 381
552 2 2 1 1 309 599 367
553 2 2 1 1 303 594 397
554 2 2 1 1 317 601 339
555 2 2 1 1 259 593 405
556 2 2 1 1 253 592 409
557 2 2 1 1 239 600 337
558 2 2 1 1 422 558 431
559 2 2 1 1 418 562 432
560 2 2 1 1 420 560 433
561 2 2 1 1 416 556 434
562 2 2 1 1 414 564 435
563 2 2 1 1 287 602 365
564 2 2 1 1 471 602 129
565 2 2 1 1 457 514 322
566 2 2 1 1 454 513 320
567 2 2 1 1 456 515 318
568 2 2 1 1 458 516 321
569 2 2 1 1 455 512 319
570 2 2 1 1 388 413 63
571 2 2 1 1 352 415 86
572 2 2 1 1 380 417 120
573 2 2 1 1 370 419 148
574 2 2 1 1 354 421 104
575 2 2 1 1 442 537 533
576 2 2 1 1 438 538 524
577 2 2 1 1 327 535 527
578 2 2 1 1 334 534 530
579 2 2 1 1 441 536 523
580 2 2 1 1 533 537 324
581 2 2 1 1 524 538 331
582 2 2 1 1 527 535 437
583 2 2 1 1 530 534 443
584 2 2 1 1 523 536 336
585 2 2 1 1 330 469 453
586 2 2 1 1 366 471 157
587 2 2 1 1 404 423 74
588 2 2 1 1 350 425 125
589 2 2 1 1 384 427 44
590 2 2 1 1 412 491 451
591 2 2 1 1 346 492 447
592 2 2 1 1 138 607 299
593 2 2 1 1 153 608 313
594 2 2 1 1 115 606 275
595 2 2 1 1 346 429 77
596 2 2 1 1 412 430 128
597 2 2 1 1 344 434 107
598 2 2 1 1 408 431 89
599 2 2 1 1 372 433 49
600 2 2 1 1 400 435 52
601 2 2 1 1 374 432 145
602 2 2 1 1 208 506 399
603 2 2 1 1 308 511 369
604 2 2 1 1 220 505 391
605 2 2 1 1 302 509 357
606 2 2 1 1 310 510 385
607 2 2 1 1 304 507 381
608 2 2 1 1 316 508 341
609 2 2 1 1 272 495 395
610 2 2 1 1 290 497 365
611 2 2 1 1 254 503 361
612 2 2 1 1 296 499 363
613 2 2 1 1 238 502 347
614 2 2 1 1 206 501 371
615 2 2 1 1 234 500 345
616 2 2 1 1 262 504 405
617 2 2 1 1 252 496 355
618 2 2 1 1 264 498 353
619 2 2 1 1 306 494 373
620 2 2 1 1 278 493 393
621 2 2 1 1 299 607 520
622 2 2 1 1 313 608 518
623 2 2 1 1 275 606 522
624 2 2 1 1 473 588 427
625 2 2 1 1 475 586 425
626 2 2 1 1 477 584 423
627 2 2 1 1 313 518 312
628 2 2 1 1 299 520 298
629 2 2 1 1 275 522 274
630 2 2 1 1 424 477 423
631 2 2 1 1 426 475 425
632 2 2 1 1 428 473 427
633 2 2 1 1 356 540 533
634 2 2 1 1 362 541 532
635 2 2 1 1 392 539 524
636 2 2 1 1 386 543 528
637 2 2 1 1 410 549 526
638 2 2 1 1 340 542 527
639 2 2 1 1 368 547 531
640 2 2 1 1 398 544 525
641 2 2 1 1 406 545 530
642 2 2 1 1 382 548 529
643 2 2 1 1 338 546 523
644 2 2 1 1 236 616 79
645 2 2 1 1 228 615 69
646 2 2 1 1 224 612 65
647 2 2 1 1 214 613 56
648 2 2 1 1 256 614 97
649 2 2 1 1 366 602 471
650 2 2 1 1 312 636 152
651 2 2 1 1 298 634 137
652 2 2 1 1 274 635 114
653 2 2 1 1 449 567 430
654 2 2 1 1 445 569 429
655 2 2 1 1 348 465 81
656 2 2 1 1 402 467 58
657 2 2 1 1 360 461 67
658 2 2 1 1 376 463 71
659 2 2 1 1 378 459 99
660 2 2 1 1 430 451 449
661 2 2 1 1 429 447 445
662 2 2 1 1 394 476 117
663 2 2 1 1 358 474 140
664 2 2 1 1 342 472 155
665 2 2 1 1 102 642 554
666 2 2 1 1 84 638 553
667 2 2 1 1 118 641 551
668 2 2 1 1 146 640 552
669 2 2 1 1 61 639 550
670 2 2 1 1 229 463 319
671 2 2 1 1 225 461 322
672 2 2 1 1 257 459 318
673 2 2 1 1 237 465 321
674 2 2 1 1 215 467 320
675 2 2 1 1 338 478 83
676 2 2 1 1 406 488 101
677 2 2 1 1 340 483 41
678 2 2 1 1 410 487 91
679 2 2 1 1 356 479 93
680 2 2 1 1 362 480 95
681 2 2 1 1 386 481 150
682 2 2 1 1 398 482 122
683 2 2 1 1 368 484 46
684 2 2 1 1 382 485 142
685 2 2 1 1 392 486 60
686 2 2 1 1 229 319 228
687 2 2 1 1 237 321 236
688 2 2 1 1 257 318 256
689 2 2 1 1 225 322 224
690 2 2 1 1 215 320 214
691 2 2 1 1 329 532 526
692 2 2 1 1 526 532 439
693 2 2 1 1 528 531 440
694 2 2 1 1 332 531 528
695 2 2 1 1 436 529 525
696 2 2 1 1 525 529 333
697 2 2 1 1 396 444 112
698 2 2 1 1 364 448 135
699 2 2 1 1 409 496 253
700 2 2 1 1 351 498 265
701 2 2 1 1 375 493 279
702 2 2 1 1 359 494 307
703 2 2 1 1 349 499 297
704 2 2 1 1 387 501 207
705 2 2 1 1 339 508 317
706 2 2 1 1 377 504 263
707 2 2 1 1 379 507 305
708 2 2 1 1 389 506 209
709 2 2 1 1 383 510 311
710 2 2 1 1 343 500 235
711 2 2 1 1 367 511 309
712 2 2 1 1 337 502 239
713 2 2 1 1 407 503 255
714 2 2 1 1 397 509 303
715 2 2 1 1 411 497 291
716 2 2 1 1 401 505 221
717 2 2 1 1 403 495 273
718 2 2 1 1 271 446 270
719 2 2 1 1 295 450 294
720 2 2 1 1 390 452 54
721 2 2 1 1 159 469 158
722 2 2 1 1 321 616 236
723 2 2 1 1 319 615 228
724 2 2 1 1 322 612 224
725 2 2 1 1 320 613 214
726 2 2 1 1 318 614 256
727 2 2 1 1 554 579 102
728 2 2 1 1 553 582 84
729 2 2 1 1 551 576 118
730 2 2 1 1 552 578 146
731 2 2 1 1 550 577 61
732 2 2 1 1 277 335 276
733 2 2 1 1 269 325 268
734 2 2 1 1 315 323 314
735 2 2 1 1 293 328 292
736 2 2 1 1 301 326 300
737 2 2 1 1 453 490 489
738 2 2 1 1 461 462 322
739 2 2 1 1 463 464 319
740 2 2 1 1 467 468 320
741 2 2 1 1 465 466 321
742 2 2 1 1 459 460 318
743 2 2 1 1 315 472 323
744 2 2 1 1 301 474 326
745 2 2 1 1 277 476 335
746 2 2 1 1 133 604 293
747 2 2 1 1 110 603 269
748 2 2 1 1 183 436 182
749 2 2 1 1 167 324 166
750 2 2 1 1 169 442 168
751 2 2 1 1 177 441 176
752 2 2 1 1 191 334 190
753 2 2 1 1 193 443 192
754 2 2 1 1 195 327 194
755 2 2 1 1 199 437 198
756 2 2 1 1 211 330 210
757 2 2 1 1 165 331 164
758 2 2 1 1 171 332 170
759 2 2 1 1 173 440 172
760 2 2 1 1 163 438 162
761 2 2 1 1 181 439 180
762 2 2 1 1 175 336 174
763 2 2 1 1 179 329 178
764 2 2 1 1 185 333 184
765 2 2 1 1 161 489 160
766 2 2 1 1 1 611 211
767 2 2 1 1 396 569 445
768 2 2 1 1 364 567 449
769 2 2 1 1 167 479 324
770 2 2 1 1 179 480 329
771 2 2 1 1 175 478 336
772 2 2 1 1 199 483 437
773 2 2 1 1 173 481 440
774 2 2 1 1 185 482 333
775 2 2 1 1 171 484 332
776 2 2 1 1 183 485 436
777 2 2 1 1 181 487 439
778 2 2 1 1 165 486 331
779 2 2 1 1 193 488 443
780 2 2 1 1 294 604 133
781 2 2 1 1 270 603 110
782 2 2 1 1 366 470 130
783 2 2 1 1 456 631 422
784 2 2 1 1 458 628 416
785 2 2 1 1 457 627 420
786 2 2 1 1 454 629 414
787 2 2 1 1 455 630 418
788 2 2 1 1 342 588 473
789 2 2 1 1 394 584 477
790 2 2 1 1 358 586 475
791 2 2 1 1 265 498 264
792 2 2 1 1 279 493 278
793 2 2 1 1 253 496 252
794 2 2 1 1 307 494 306
795 2 2 1 1 263 504 262
796 2 2 1 1 207 501 206
797 2 2 1 1 297 499 296
798 2 2 1 1 255 503 254
799 2 2 1 1 305 507 304
800 2 2 1 1 235 500 234
801 2 2 1 1 291 497 290
802 2 2 1 1 311 510 310
803 2 2 1 1 209 506 208
804 2 2 1 1 239 502 238
805 2 2 1 1 317 508 316
806 2 2 1 1 309 511 308
807 2 2 1 1 221 505 220
808 2 2 1 1 273 495 272
809 2 2 1 1 303 509 302
810 2 2 1 1 444 446 271
811 2 2 1 1 448 450 295
812 2 2 1 1 319 630 455
813 2 2 1 1 320 629 454
814 2 2 1 1 321 628 458
815 2 2 1 1 322 627 457
816 2 2 1 1 318 631 456
817 2 2 1 1 354 422 421
818 2 2 1 1 388 414 413
819 2 2 1 1 380 418 417
820 2 2 1 1 370 420 419
821 2 2 1 1 352 416 415
822 2 2 1 1 335 606 276
823 2 2 1 1 326 607 300
824 2 2 1 1 323 608 314
825 2 2 1 1 158 611 1
826 2 2 1 1 452 469 159
827 2 2 1 1 378 460 459
828 2 2 1 1 348 466 465
829 2 2 1 1 360 462 461
830 2 2 1 1 402 468 467
831 2 2 1 1 376 464 463
832 2 2 1 1 325 492 268
833 2 2 1 1 328 491 292
834 2 2 1 1 554 642 421
835 2 2 1 1 553 638 415
836 2 2 1 1 551 641 417
837 2 2 1 1 550 639 413
838 2 2 1 1 552 640 419
839 2 2 1 1 451 491 328
840 2 2 1 1 447 492 325
841 2 2 1 1 217 505 216
842 2 2 1 1 283 509 282
843 2 2 1 1 205 511 204
844 2 2 1 1 201 508 200
845 2 2 1 1 213 506 212
846 2 2 1 1 203 510 202
847 2 2 1 1 233 495 232
848 2 2 1 1 267 500 266
849 2 2 1 1 281 507 280
850 2 2 1 1 243 502 242
851 2 2 1 1 247 503 246
852 2 2 1 1 287 497 286
853 2 2 1 1 285 499 284
854 2 2 1 1 259 504 258
855 2 2 1 1 223 501 222
856 2 2 1 1 227 494 226
857 2 2 1 1 249 496 248
858 2 2 1 1 231 493 230
859 2 2 1 1 245 498 244
860 2 2 1 1 408 456 431
861 2 2 1 1 344 458 434
862 2 2 1 1 372 457 433
863 2 2 1 1 400 454 435
864 2 2 1 1 374 455 432
865 2 2 1 1 489 490 160
866 2 2 1 1 241 536 240
867 2 2 1 1 261 534 260
868 2 2 1 1 251 537 250
869 2 2 1 1 197 535 196
870 2 2 1 1 219 538 218
871 2 2 1 1 404 424 423
872 2 2 1 1 384 428 427
873 2 2 1 1 350 426 425
874 2 2 1 1 412 451 430
875 2 2 1 1 346 447 429
876 2 2 1 1 342 473 472
877 2 2 1 1 394 477 476
878 2 2 1 1 358 475 474
879 2 2 1 1 476 477 335
880 2 2 1 1 472 473 323
881 2 2 1 1 474 475 326
882 2 2 1 1 490 643 53
883 2 2 1 1 516 580 78
884 2 2 1 1 512 573 68
885 2 2 1 1 515 581 96
886 2 2 1 1 513 574 55
887 2 2 1 1 514 575 64
888 2 2 1 1 18 617 241
889 2 2 1 1 174 617 18
890 2 2 1 1 260 619 35
891 2 2 1 1 9 618 169
892 2 2 1 1 35 619 191
893 2 2 1 1 10 625 251
894 2 2 1 1 192 622 36
895 2 2 1 1 250 618 9
896 2 2 1 1 36 622 261
897 2 2 1 1 166 625 10
898 2 2 1 1 198 623 39
899 2 2 1 1 196 620 38
900 2 2 1 1 39 623 197
901 2 2 1 1 38 620 195
902 2 2 1 1 6 624 163
903 2 2 1 1 240 626 17
904 2 2 1 1 218 624 6
905 2 2 1 1 164 621 7
906 2 2 1 1 17 626 177
907 2 2 1 1 7 621 219
908 2 2 1 1 288 632 30
909 2 2 1 1 30 632 187
910 2 2 1 1 97 614 96
911 2 2 1 1 56 613 55
912 2 2 1 1 65 612 64
913 2 2 1 1 69 615 68
914 2 2 1 1 79 616 78
915 2 2 1 1 114 635 113
916 2 2 1 1 137 634 136
917 2 2 1 1 152 636 151
918 2 2 1 1 441 546 176
919 2 2 1 1 436 544 182
920 2 2 1 1 334 545 190
921 2 2 1 1 329 549 178
922 2 2 1 1 333 548 184
923 2 2 1 1 332 543 170
924 2 2 1 1 327 542 194
925 2 2 1 1 440 547 172
926 2 2 1 1 438 539 162
927 2 2 1 1 442 540 168
928 2 2 1 1 439 541 180
929 2 2 1 1 416 628 466
930 2 2 1 1 414 629 468
931 2 2 1 1 418 630 464
932 2 2 1 1 420 627 462
933 2 2 1 1 422 631 460
934 2 2 1 1 521 571 113
935 2 2 1 1 517 565 151
936 2 2 1 1 519 570 136
937 2 2 1 1 396 445 444
938 2 2 1 1 364 449 448
939 2 2 1 1 210 610 4
940 2 2 1 1 4 610 161
941 2 2 1 1 354 558 422
942 2 2 1 1 370 560 420
943 2 2 1 1 380 562 418
944 2 2 1 1 352 556 416
945 2 2 1 1 388 564 414
946 2 2 1 1 31 637 289
947 2 2 1 1 188 637 31
948 2 2 1 1 204 511 367
949 2 2 1 1 212 506 389
950 2 2 1 1 216 505 401
951 2 2 1 1 202 510 383
952 2 2 1 1 242 502 337
953 2 2 1 1 246 503 407
954 2 2 1 1 280 507 379
955 2 2 1 1 266 500 343
956 2 2 1 1 282 509 397
957 2 2 1 1 200 508 339
958 2 2 1 1 222 501 387
959 2 2 1 1 226 494 359
960 2 2 1 1 258 504 377
961 2 2 1 1 284 499 349
962 2 2 1 1 248 496 409
963 2 2 1 1 286 497 411
964 2 2 1 1 232 495 403
965 2 2 1 1 244 498 351
966 2 2 1 1 230 493 375
967 2 2 1 1 390 453 452
968 2 2 1 1 374 512 455
969 2 2 1 1 400 513 454
970 2 2 1 1 344 516 458
971 2 2 1 1 372 514 457
972 2 2 1 1 408 515 456
973 2 2 1 1 430 651 128
974 2 2 1 1 429 650 77
975 2 2 1 1 344 580 516
976 2 2 1 1 374 573 512
977 2 2 1 1 408 581 515
978 2 2 1 1 400 574 513
979 2 2 1 1 372 575 514
980 2 2 1 1 446 603 270
981 2 2 1 1 450 604 294
982 2 2 1 1 415 638 86
983 2 2 1 1 419 640 148
984 2 2 1 1 413 639 63
985 2 2 1 1 417 641 120
986 2 2 1 1 421 642 104
987 2 2 1 1 423 644 74
988 2 2 1 1 425 645 125
989 2 2 1 1 427 646 44
990 2 2 1 1 404 571 521
991 2 2 1 1 384 565 517
992 2 2 1 1 350 570 519
993 2 2 1 1 351 555 352
994 2 2 1 1 353 557 354
995 2 2 1 1 387 563 388
996 2 2 1 1 379 561 380
997 2 2 1 1 369 559 370
998 2 2 1 1 434 652 107
999 2 2 1 1 435 655 52
1000 2 2 1 1 433 653 49
1001 2 2 1 1 432 654 145
1002 2 2 1 1 431 656 89
1003 2 2 1 1 390 643 453
1004 2 2 1 1 363 566 364
1005 2 2 1 1 383 565 384
1006 2 2 1 1 349 570 350
1007 2 2 1 1 403 571 404
1008 2 2 1 1 395 568 396
1009 2 2 1 1 384 517 428
1010 2 2 1 1 350 519 426
1011 2 2 1 1 404 521 424
1012 2 2 1 1 389 572 390
1013 2 2 1 1 375 576 376
1014 2 2 1 1 373 573 374
1015 2 2 1 1 359 578 360
1016 2 2 1 1 377 579 378
1017 2 2 1 1 371 575 372
1018 2 2 1 1 399 574 400
1019 2 2 1 1 407 581 408
1020 2 2 1 1 401 577 402
1021 2 2 1 1 343 580 344
1022 2 2 1 1 347 582 348
1023 2 2 1 1 445 446 444
1024 2 2 1 1 449 450 448
1025 2 2 1 1 338 523 478
1026 2 2 1 1 410 526 487
1027 2 2 1 1 406 530 488
1028 2 2 1 1 386 528 481
1029 2 2 1 1 382 529 485
1030 2 2 1 1 398 525 482
1031 2 2 1 1 340 527 483
1032 2 2 1 1 368 531 484
1033 2 2 1 1 392 524 486
1034 2 2 1 1 362 532 480
1035 2 2 1 1 356 533 479
1036 2 2 1 1 378 579 554
1037 2 2 1 1 348 582 553
1038 2 2 1 1 376 576 551
1039 2 2 1 1 402 577 550
1040 2 2 1 1 360 578 552
1041 2 2 1 1 357 585 358
1042 2 2 1 1 393 583 394
1043 2 2 1 1 341 587 342
1044 2 2 1 1 411 589 412
1045 2 2 1 1 345 590 346
1046 2 2 1 1 148 640 147
1047 2 2 1 1 147 640 146
1048 2 2 1 1 104 642 103
1049 2 2 1 1 119 641 118
1050 2 2 1 1 120 641 119
1051 2 2 1 1 62 639 61
1052 2 2 1 1 103 642 102
1053 2 2 1 1 63 639 62
1054 2 2 1 1 85 638 84
1055 2 2 1 1 86 638 85
1056 2 2 1 1 77 650 76
1057 2 2 1 1 76 650 75
1058 2 2 1 1 127 651 126
1059 2 2 1 1 128 651 127
1060 2 2 1 1 74 644 73
1061 2 2 1 1 73 644 72
1062 2 2 1 1 124 645 123
1063 2 2 1 1 125 645 124
1064 2 2 1 1 43 646 42
1065 2 2 1 1 44 646 43
1066 2 2 1 1 453 469 452
1067 2 2 1 1 469 611 158
1068 2 2 1 1 348 553 466
1069 2 2 1 1 402 550 468
1070 2 2 1 1 378 554 460
1071 2 2 1 1 376 551 464
1072 2 2 1 1 360 552 462
1073 2 2 1 1 107 652 106
1074 2 2 1 1 145 654 144
1075 2 2 1 1 106 652 105
1076 2 2 1 1 144 654 143
1077 2 2 1 1 49 653 48
1078 2 2 1 1 52 655 51
1079 2 2 1 1 48 653 47
1080 2 2 1 1 88 656 87
1081 2 2 1 1 51 655 50
1082 2 2 1 1 89 656 88
1083 2 2 1 1 87 656 558
1084 2 2 1 1 47 653 560
1085 2 2 1 1 143 654 562
1086 2 2 1 1 50 655 564
1087 2 2 1 1 105 652 556
1088 2 2 1 1 339 601 340
1089 2 2 1 1 385 598 386
1090 2 2 1 1 397 594 398
1091 2 2 1 1 381 597 382
1092 2 2 1 1 409 592 410
1093 2 2 1 1 391 596 392
1094 2 2 1 1 355 595 356
1095 2 2 1 1 361 591 362
1096 2 2 1 1 367 599 368
1097 2 2 1 1 337 600 338
1098 2 2 1 1 405 593 406
1099 2 2 1 1 453 643 490
1100 2 2 1 1 293 604 328
1101 2 2 1 1 269 603 325
1102 2 2 1 1 518 636 312
1103 2 2 1 1 520 634 298
1104 2 2 1 1 522 635 274
1105 2 2 1 1 462 627 322
1106 2 2 1 1 468 629 320
1107 2 2 1 1 464 630 319
1108 2 2 1 1 466 628 321
1109 2 2 1 1 460 631 318
1110 2 2 1 1 480 532 329
1111 2 2 1 1 479 533 324
1112 2 2 1 1 486 524 331
1113 2 2 1 1 487 526 439
1114 2 2 1 1 481 528 440
1115 2 2 1 1 483 527 437
1116 2 2 1 1 484 531 332
1117 2 2 1 1 478 523 336
1118 2 2 1 1 482 525 333
1119 2 2 1 1 485 529 436
1120 2 2 1 1 488 530 443
1121 2 2 1 1 517 636 518
1122 2 2 1 1 519 634 520
1123 2 2 1 1 521 635 522
1124 2 2 1 1 330 610 210
1125 2 2 1 1 365 602 366
1126 2 2 1 1 328 604 450
1127 2 2 1 1 325 603 446
1128 2 2 1 1 211 611 330
1129 2 2 1 1 524 539 438
1130 2 2 1 1 533 540 442
1131 2 2 1 1 523 546 441
1132 2 2 1 1 525 544 436
1133 2 2 1 1 532 541 439
1134 2 2 1 1 528 543 332
1135 2 2 1 1 527 542 327
1136 2 2 1 1 530 545 334
1137 2 2 1 1 526 549 329
1138 2 2 1 1 531 547 440
1139 2 2 1 1 529 548 333
1140 2 2 1 1 143 562 561
1141 2 2 1 1 47 560 559
1142 2 2 1 1 50 564 563
1143 2 2 1 1 105 556 555
1144 2 2 1 1 87 558 557
1145 2 2 1 1 517 518 428
1146 2 2 1 1 519 520 426
1147 2 2 1 1 521 522 424
1148 2 2 1 1 443 622 192
1149 2 2 1 1 331 621 164
1150 2 2 1 1 177 626 441
1151 2 2 1 1 437 623 198
1152 2 2 1 1 195 620 327
1153 2 2 1 1 169 618 442
1154 2 2 1 1 191 619 334
1155 2 2 1 1 163 624 438
1156 2 2 1 1 324 625 166
1157 2 2 1 1 336 617 174
1158 2 2 1 1 489 610 330
1159 2 2 1 1 558 656 431
1160 2 2 1 1 560 653 433
1161 2 2 1 1 564 655 435
1162 2 2 1 1 562 654 432
1163 2 2 1 1 556 652 434
1164 2 2 1 1 68 615 512
1165 2 2 1 1 55 613 513
1166 2 2 1 1 64 612 514
1167 2 2 1 1 78 616 516
1168 2 2 1 1 96 614 515
1169 2 2 1 1 187 609 186
1170 2 2 1 1 609 632 157
1171 2 2 1 1 189 605 188
1172 2 2 1 1 123 645 586
1173 2 2 1 1 42 646 588
1174 2 2 1 1 72 644 584
1175 2 2 1 1 186 609 471
1176 2 2 1 1 157 605 470
1177 2 2 1 1 126 651 567
1178 2 2 1 1 75 650 569
1179 2 2 1 1 330 611 469
1180 2 2 1 1 151 636 517
1181 2 2 1 1 136 634 519
1182 2 2 1 1 113 635 521
1183 2 2 1 1 161 610 489
1184 2 2 1 1 424 647 477
1185 2 2 1 1 426 648 475
1186 2 2 1 1 428 649 473
1187 2 2 1 1 289 633 288
1188 2 2 1 1 632 633 157
1189 2 2 1 1 568 569 396
1190 2 2 1 1 566 567 364
1191 2 2 1 1 633 637 157
1192 2 2 1 1 123 586 585
1193 2 2 1 1 72 584 583
1194 2 2 1 1 42 588 587
1195 2 2 1 1 561 562 380
1196 2 2 1 1 563 564 388
1197 2 2 1 1 559 560 370
1198 2 2 1 1 557 558 354
1199 2 2 1 1 555 556 352
1200 2 2 1 1 126 567 566
1201 2 2 1 1 75 569 568
1202 2 2 1 1 586 645 425
1203 2 2 1 1 588 646 427
1204 2 2 1 1 584 644 423
1205 2 2 1 1 583 584 394
1206 2 2 1 1 587 588 342
1207 2 2 1 1 585 586 358
1208 2 2 1 1 538 621 331
1209 2 2 1 1 534 622 443
1210 2 2 1 1 327 620 535
1211 2 2 1 1 535 623 437
1212 2 2 1 1 334 619 534
1213 2 2 1 1 438 624 538
1214 2 2 1 1 442 618 537
1215 2 2 1 1 441 626 536
1216 2 2 1 1 536 617 336
1217 2 2 1 1 537 625 324
1218 2 2 1 1 567 651 430
1219 2 2 1 1 569 650 429
1220 2 2 1 1 470 605 189
1221 2 2 1 1 241 617 536
1222 2 2 1 1 534 619 260
1223 2 2 1 1 535 620 196
1224 2 2 1 1 261 622 534
1225 2 2 1 1 219 621 538
1226 2 2 1 1 536 626 240
1227 2 2 1 1 537 618 250
1228 2 2 1 1 197 623 535
1229 2 2 1 1 251 625 537
1230 2 2 1 1 538 624 218
1231 2 2 1 1 53 643 572
1232 2 2 1 1 157 637 605
1233 2 2 1 1 473 649 323
1234 2 2 1 1 477 647 335
1235 2 2 1 1 475 648 326
1236 2 2 1 1 606 647 522
1237 2 2 1 1 608 649 518
1238 2 2 1 1 607 648 520
1239 2 2 1 1 323 649 608
1240 2 2 1 1 335 647 606
1241 2 2 1 1 326 648 607
1242 2 2 1 1 471 609 157
1243 2 2 1 1 572 643 390
1244 2 2 1 1 522 647 424
1245 2 2 1 1 520 648 426
1246 2 2 1 1 518 649 428
1247 2 2 1 1 187 632 609
1248 2 2 1 1 288 633 632
1249 2 2 1 1 605 637 188
1250 2 2 1 1 289 637 633
1251 2 2 1 1 54 452 2
1252 2 2 1 1 3 490 53
1253 2 2 1 1 160 490 3
1254 2 2 1 1 5 539 59
1255 2 2 1 1 60 486 8
1256 2 2 1 1 8 486 165
1257 2 2 1 1 93 479 11
1258 2 2 1 1 11 479 167
1259 2 2 1 1 12 540 92
1260 2 2 1 1 13 543 45
1261 2 2 1 1 46 484 14
1262 2 2 1 1 14 484 171
1263 2 2 1 1 15 547 149
1264 2 2 1 1 150 481 16
1265 2 2 1 1 16 481 173
1266 2 2 1 1 83 478 19
1267 2 2 1 1 19 478 175
1268 2 2 1 1 20 546 82
1269 2 2 1 1 91 487 21
1270 2 2 1 1 21 487 181
1271 2 2 1 1 22 549 94
1272 2 2 1 1 95 480 23
1273 2 2 1 1 23 480 179
1274 2 2 1 1 24 541 90
1275 2 2 1 1 25 544 141
1276 2 2 1 1 142 485 26
1277 2 2 1 1 26 485 183
1278 2 2 1 1 27 548 121
1279 2 2 1 1 122 482 28
1280 2 2 1 1 28 482 185
1281 2 2 1 1 186 129 29
1282 2 2 1 1 130 470 32
1283 2 2 1 1 101 488 33
1284 2 2 1 1 33 488 193
1285 2 2 1 1 34 545 100
1286 2 2 1 1 37 542 156
1287 2 2 1 1 41 483 40
1288 2 2 1 1 40 483 199
1289 2 2 1 1 58 467 57
1290 2 2 1 1 57 467 215
1291 2 2 1 1 67 461 66
1292 2 2 1 1 66 461 225
1293 2 2 1 1 71 463 70
1294 2 2 1 1 70 463 229
1295 2 2 1 1 81 465 80
1296 2 2 1 1 80 465 237
1297 2 2 1 1 99 459 98
1298 2 2 1 1 98 459 257
1299 2 2 1 1 109 492 108
1300 2 2 1 1 268 492 109
1301 2 2 1 1 112 444 111
1302 2 2 1 1 117 476 116
1303 2 2 1 1 116 476 277
1304 2 2 1 1 132 491 131
1305 2 2 1 1 292 491 132
1306 2 2 1 1 135 448 134
1307 2 2 1 1 140 474 139
1308 2 2 1 1 139 474 301
1309 2 2 1 1 155 472 154
1310 2 2 1 1 154 472 315
$EndElements
