$MeshFormat
2.2 0 8
$EndMeshFormat
$Nodes
136
1 9.919639073093561e-17 1.62 0
2 -0.4676537180435968 0.8099999999999999 0
3 -1.402961154130791 0.8099999999999998 0
4 -0.9353074360871937 -2.220446049250313e-16 0
5 -1.402961154130791 -0.8100000000000003 0
6 -0.467653718043597 -0.8100000000000004 0
7 -2.775557561562891e-16 -1.620000000000001 0
8 0.4676537180435967 -0.8100000000000006 0
9 1.40296115413079 -0.8100000000000007 0
10 0.9353074360871936 -5.551115123125783e-16 0
11 1.402961154130791 0.8099999999999994 0
12 0.4676537180435968 0.8099999999999996 0
13 -0.09353074360852112 1.458000000000343 0
14 -0.1870614872169861 1.296000000000784 0
15 -0.2805922308256804 1.134000000000827 0
16 -0.3741229744346309 0.972000000000427 0
17 -0.6547152052606198 0.8099999999999999 0
18 -0.841776692477517 0.8099999999999999 0
19 -1.028838179694995 0.8099999999999998 0
20 -1.215899666912858 0.8099999999999998 0
21 -1.30943041052229 0.6480000000003778 0
22 -1.215899666913844 0.486000000000852 0
23 -1.12236892330509 0.3240000000007921 0
24 -1.028838179696145 0.1620000000004011 0
25 -1.028838179695735 -0.1619999999996924 0
26 -1.122368923304187 -0.323999999999228 0
27 -1.215899666912829 -0.4859999999990948 0
28 -1.309430410521805 -0.6479999999995394 0
29 -1.215899666913859 -0.8100000000000003 0
30 -1.028838179696884 -0.8100000000000003 0
31 -0.8417766924794887 -0.8100000000000004 0
32 -0.6547152052615082 -0.8100000000000004 0
33 -0.3741229744350987 -0.9719999999996177 0
34 -0.2805922308265887 -1.133999999999255 0
35 -0.1870614872179426 -1.295999999999129 0
36 -0.09353074360897515 -1.457999999999558 0
37 0.09353074360857036 -1.458000000000259 0
38 0.1870614872169535 -1.296000000000841 0
39 0.2805922308256357 -1.134000000000905 0
40 0.3741229744346276 -0.9720000000004331 0
41 0.6547152052605848 -0.8100000000000006 0
42 0.8417766924775338 -0.8100000000000006 0
43 1.028838179694855 -0.8100000000000007 0
44 1.215899666912909 -0.8100000000000007 0
45 1.309430410522314 -0.6480000000004222 0
46 1.215899666913846 -0.4860000000008574 0
47 1.122368923305158 -0.3240000000009108 0
48 1.028838179696168 -0.1620000000004425 0
49 1.028838179695719 0.1619999999996641 0
50 1.122368923304163 0.3239999999991861 0
51 1.215899666912878 0.4859999999991784 0
52 1.30943041052187 0.6479999999996509 0
53 1.215899666913733 0.8099999999999994 0
54 1.02883817969684 0.8099999999999995 0
55 0.8417766924794322 0.8099999999999995 0
56 0.6547152052615255 0.8099999999999996 0
57 0.3741229744350709 0.9719999999996646 0
58 0.2805922308267002 1.133999999999061 0
59 0.187061487217915 1.295999999999175 0
60 0.09353074360896703 1.457999999999571 0
61 0.2553923681523287 0.812524128921985 0
62 0.3759999125962721 0.6143429287285066 0
63 -0.2515576578420745 -0.7989421704954205 0
64 -0.3854691461051807 -0.6006832814093666 0
65 0.5700431691288042 -0.6359675938947278 0
66 -0.5738386444720714 0.6253887035561037 0
67 0.3578920641091284 -0.6223412288390567 0
68 -0.3421674106591819 0.6203509463940577 0
69 0.4752581510484926 -0.4105243231441602 0
70 -0.4617148446500217 0.3996496536009742 0
71 0.8184314190263869 0.1644504992040694 0
72 -0.8371435325843212 -0.1628875973798642 0
73 -0.1296548797729522 0.4279836969082781 0
74 0.2052161987453394 -0.4165614550158304 0
75 -0.2058729560485072 0.986299476604616 0
76 0.2053035191603613 -0.9839940437480245 0
77 0.7364685431462317 0.6396963834508318 0
78 -0.7372466190413068 -0.6386134757567856 0
79 0.3639464213869484 -0.07010221356812696 0
80 -0.3557877922555367 0.0589014478068444 0
81 0.9221863379292339 -0.6426057536868001 0
82 -0.9221863379292428 0.6426057536867921 0
83 -0.9536419081771735 0.320217937200188 0
84 0.9542521137304594 -0.3208386984004851 0
85 -1.025331137067361 -0.4839019297629713 0
86 0.09621955524837605 1.120154953995902 0
87 1.025040499871752 0.4837305827042665 0
88 -0.09428051684772831 -1.117837108695261 0
89 0.1061236864826104 0.6193454846926524 0
90 0.275081464657222 0.3306411462782206 0
91 -0.08974683351184783 -0.5516039656503873 0
92 -0.3374379189215531 -0.3186901749170093 0
93 0.5872042027461208 0.4542664514426598 0
94 -0.6000182219379497 -0.4607211544695826 0
95 0.6897923178785442 -0.01883720020351057 0
96 -0.7003002029517111 0.01450708102850446 0
97 0.0002574638113686256 -1.291831352510369 0
98 1.120182073611804 -0.6471009589480412 0
99 -1.121046545407715 -0.6470815691237317 0
100 1.120962920066156 0.6470597548423175 0
101 -1.120182073611802 0.6471009589480252 0
102 0.0003342629272171518 1.293016795392844 0
103 0.7665642750824316 -0.4461904530662988 0
104 0.01041656095973311 -0.8792522077196886 0
105 -0.0005266005467761592 0.881497383020137 0
106 -0.7659895800836574 0.443788249587607 0
107 0.2805922308260149 -0.8100000000002062 0
108 -0.5665887915813637 -0.6641796809719973 0
109 0.8292650665466079 -0.1934943276707338 0
110 -0.2805922308260171 0.8100000000002036 0
111 0.5641357111022066 0.6597311273904932 0
112 -0.8298618856624307 0.1912360102980167 0
113 0.2028199720504644 0.9828314197027033 0
114 -0.9317949733954189 -0.3226479975999901 0
115 0.9280954083928511 0.3226434293060055 0
116 -0.7507911081353479 0.6685433717539179 0
117 -0.2043429907607999 -0.9802462817836578 0
118 0.7510571359757177 -0.6689527601295655 0
119 0.9298201100641921 0.6447817145398131 0
120 -0.09421397768644786 1.129945818361292 0
121 -1.028838179697585 0.4860000000001305 0
122 0.09582529971733403 -1.125151006367166 0
123 1.028838179697665 -0.4860000000001665 0
124 -0.930513548757202 -0.6447825721837434 0
125 0.008564682973078774 0.1282266878393473 0
126 -0.596280720867513 -0.199770279937327 0
127 0.5804955686946811 0.1974208383109576 0
128 0.8258338251247408 0.4782035662414644 0
129 -0.8288584081782817 -0.4791111882953811 0
130 0.624965246388605 -0.2278297035305661 0
131 -0.6069921959760927 0.2157881124496955 0
132 -0.1395501461904322 0.6490836242987877 0
133 0.1464336473168439 -0.6483138043755439 0
134 -0.02248625787752874 -0.196483194517708 0
135 -0.748245948870452 -0.3239999999992136 0
136 0.7480596033343446 0.3234759276873831 0
$EndNodes
$Elements
270
1 1 2 1 1 1 13
2 1 2 1 1 13 14
3 1 2 1 1 14 15
4 1 2 1 1 15 16
5 1 2 1 1 16 2
6 1 2 1 2 2 17
7 1 2 1 2 17 18
8 1 2 1 2 18 19
9 1 2 1 2 19 20
10 1 2 1 2 20 3
11 1 2 1 3 3 21
12 1 2 1 3 21 22
13 1 2 1 3 22 23
14 1 2 1 3 23 24
15 1 2 1 3 24 4
16 1 2 1 4 4 25
17 1 2 1 4 25 26
18 1 2 1 4 26 27
19 1 2 1 4 27 28
20 1 2 1 4 28 5
21 1 2 1 5 5 29
22 1 2 1 5 29 30
23 1 2 1 5 30 31
24 1 2 1 5 31 32
25 1 2 1 5 32 6
26 1 2 1 6 6 33
27 1 2 1 6 33 34
28 1 2 1 6 34 35
29 1 2 1 6 35 36
30 1 2 1 6 36 7
31 1 2 1 7 7 37
32 1 2 1 7 37 38
33 1 2 1 7 38 39
34 1 2 1 7 39 40
35 1 2 1 7 40 8
36 1 2 1 8 8 41
37 1 2 1 8 41 42
38 1 2 1 8 42 43
39 1 2 1 8 43 44
40 1 2 1 8 44 9
41 1 2 1 9 9 45
42 1 2 1 9 45 46
43 1 2 1 9 46 47
44 1 2 1 9 47 48
45 1 2 1 9 48 10
46 1 2 1 10 10 49
47 1 2 1 10 49 50
48 1 2 1 10 50 51
49 1 2 1 10 51 52
50 1 2 1 10 52 11
51 1 2 1 11 11 53
52 1 2 1 11 53 54
53 1 2 1 11 54 55
54 1 2 1 11 55 56
55 1 2 1 11 56 12
56 1 2 1 12 12 57
57 1 2 1 12 57 58
58 1 2 1 12 58 59
59 1 2 1 12 59 60
60 1 2 1 12 60 1
61 2 2 1 1 79 127 90
62 2 2 1 1 80 126 92
63 2 2 1 1 73 90 89
64 2 2 1 1 89 132 73
65 2 2 1 1 91 133 74
66 2 2 1 1 92 134 80
67 2 2 1 1 90 125 79
68 2 2 1 1 88 122 104
69 2 2 1 1 81 123 103
70 2 2 1 1 82 121 106
71 2 2 1 1 86 120 105
72 2 2 1 1 95 127 79
73 2 2 1 1 96 126 80
74 2 2 1 1 75 110 105
75 2 2 1 1 83 112 106
76 2 2 1 1 84 109 103
77 2 2 1 1 76 107 104
78 2 2 1 1 90 127 93
79 2 2 1 1 92 126 94
80 2 2 1 1 104 122 76
81 2 2 1 1 103 123 84
82 2 2 1 1 106 121 83
83 2 2 1 1 105 120 75
84 2 2 1 1 74 134 91
85 2 2 1 1 91 134 92
86 2 2 1 1 79 130 95
87 2 2 1 1 80 131 96
88 2 2 1 1 73 125 90
89 2 2 1 1 104 117 88
90 2 2 1 1 103 118 81
91 2 2 1 1 106 116 82
92 2 2 1 1 105 113 86
93 2 2 1 1 36 7 37
94 2 2 1 1 20 3 21
95 2 2 1 1 28 5 29
96 2 2 1 1 60 1 13
97 2 2 1 1 52 11 53
98 2 2 1 1 44 9 45
99 2 2 1 1 77 111 93
100 2 2 1 1 78 108 94
101 2 2 1 1 94 108 64
102 2 2 1 1 93 111 62
103 2 2 1 1 110 132 105
104 2 2 1 1 107 133 104
105 2 2 1 1 112 131 106
106 2 2 1 1 109 130 103
107 2 2 1 1 37 97 36
108 2 2 1 1 29 99 28
109 2 2 1 1 38 97 37
110 2 2 1 1 30 99 29
111 2 2 1 1 45 98 44
112 2 2 1 1 46 98 45
113 2 2 1 1 21 101 20
114 2 2 1 1 13 102 60
115 2 2 1 1 22 101 21
116 2 2 1 1 53 100 52
117 2 2 1 1 14 102 13
118 2 2 1 1 54 100 53
119 2 2 1 1 44 98 43
120 2 2 1 1 10 109 48
121 2 2 1 1 8 107 40
122 2 2 1 1 40 76 39
123 2 2 1 1 2 110 16
124 2 2 1 1 32 78 31
125 2 2 1 1 48 84 47
126 2 2 1 1 12 111 56
127 2 2 1 1 6 108 32
128 2 2 1 1 28 99 27
129 2 2 1 1 4 112 24
130 2 2 1 1 56 77 55
131 2 2 1 1 16 75 15
132 2 2 1 1 24 83 23
133 2 2 1 1 52 100 51
134 2 2 1 1 36 97 35
135 2 2 1 1 20 101 19
136 2 2 1 1 60 102 59
137 2 2 1 1 59 86 58
138 2 2 1 1 19 82 18
139 2 2 1 1 51 87 50
140 2 2 1 1 43 81 42
141 2 2 1 1 27 85 26
142 2 2 1 1 35 88 34
143 2 2 1 1 25 72 4
144 2 2 1 1 57 61 12
145 2 2 1 1 49 71 10
146 2 2 1 1 17 66 2
147 2 2 1 1 34 117 33
148 2 2 1 1 33 63 6
149 2 2 1 1 41 65 8
150 2 2 1 1 42 118 41
151 2 2 1 1 26 114 25
152 2 2 1 1 18 116 17
153 2 2 1 1 50 115 49
154 2 2 1 1 58 113 57
155 2 2 1 1 55 119 54
156 2 2 1 1 23 121 22
157 2 2 1 1 15 120 14
158 2 2 1 1 39 122 38
159 2 2 1 1 47 123 46
160 2 2 1 1 31 124 30
161 2 2 1 1 93 128 77
162 2 2 1 1 94 129 78
163 2 2 1 1 72 96 4
164 2 2 1 1 63 64 6
165 2 2 1 1 71 95 10
166 2 2 1 1 65 67 8
167 2 2 1 1 66 68 2
168 2 2 1 1 61 62 12
169 2 2 1 1 95 109 10
170 2 2 1 1 96 112 4
171 2 2 1 1 67 107 8
172 2 2 1 1 68 110 2
173 2 2 1 1 62 111 12
174 2 2 1 1 64 108 6
175 2 2 1 1 80 134 125
176 2 2 1 1 48 109 84
177 2 2 1 1 40 107 76
178 2 2 1 1 24 112 83
179 2 2 1 1 32 108 78
180 2 2 1 1 56 111 77
181 2 2 1 1 16 110 75
182 2 2 1 1 43 98 81
183 2 2 1 1 51 100 87
184 2 2 1 1 35 97 88
185 2 2 1 1 27 99 85
186 2 2 1 1 59 102 86
187 2 2 1 1 19 101 82
188 2 2 1 1 82 116 18
189 2 2 1 1 86 113 58
190 2 2 1 1 87 115 50
191 2 2 1 1 88 117 34
192 2 2 1 1 81 118 42
193 2 2 1 1 77 119 55
194 2 2 1 1 84 123 47
195 2 2 1 1 75 120 15
196 2 2 1 1 83 121 23
197 2 2 1 1 76 122 39
198 2 2 1 1 78 124 31
199 2 2 1 1 85 114 26
200 2 2 1 1 33 117 63
201 2 2 1 1 25 114 72
202 2 2 1 1 49 115 71
203 2 2 1 1 41 118 65
204 2 2 1 1 17 116 66
205 2 2 1 1 57 113 61
206 2 2 1 1 54 119 100
207 2 2 1 1 22 121 101
208 2 2 1 1 14 120 102
209 2 2 1 1 38 122 97
210 2 2 1 1 46 123 98
211 2 2 1 1 30 124 99
212 2 2 1 1 92 94 64
213 2 2 1 1 90 93 62
214 2 2 1 1 95 130 109
215 2 2 1 1 96 131 112
216 2 2 1 1 61 113 105
217 2 2 1 1 65 118 103
218 2 2 1 1 63 117 104
219 2 2 1 1 66 116 106
220 2 2 1 1 105 132 89
221 2 2 1 1 104 133 91
222 2 2 1 1 125 134 79
223 2 2 1 1 102 120 86
224 2 2 1 1 100 119 87
225 2 2 1 1 98 123 81
226 2 2 1 1 101 121 82
227 2 2 1 1 99 124 85
228 2 2 1 1 97 122 88
229 2 2 1 1 61 105 89
230 2 2 1 1 65 103 69
231 2 2 1 1 63 104 91
232 2 2 1 1 66 106 70
233 2 2 1 1 72 126 96
234 2 2 1 1 61 89 62
235 2 2 1 1 71 127 95
236 2 2 1 1 66 70 68
237 2 2 1 1 63 91 64
238 2 2 1 1 65 69 67
239 2 2 1 1 80 125 73
240 2 2 1 1 68 132 110
241 2 2 1 1 67 133 107
242 2 2 1 1 106 131 70
243 2 2 1 1 103 130 69
244 2 2 1 1 79 134 74
245 2 2 1 1 93 136 128
246 2 2 1 1 94 135 129
247 2 2 1 1 70 80 73
248 2 2 1 1 69 79 74
249 2 2 1 1 69 74 67
250 2 2 1 1 91 92 64
251 2 2 1 1 89 90 62
252 2 2 1 1 70 73 68
253 2 2 1 1 70 131 80
254 2 2 1 1 69 130 79
255 2 2 1 1 114 135 72
256 2 2 1 1 115 136 71
257 2 2 1 1 124 129 85
258 2 2 1 1 119 128 87
259 2 2 1 1 78 129 124
260 2 2 1 1 77 128 119
261 2 2 1 1 87 128 115
262 2 2 1 1 85 129 114
263 2 2 1 1 73 132 68
264 2 2 1 1 74 133 67
265 2 2 1 1 72 135 126
266 2 2 1 1 71 136 127
267 2 2 1 1 129 135 114
268 2 2 1 1 128 136 115
269 2 2 1 1 127 136 93
270 2 2 1 1 126 135 94
$EndElements
